<svg width="52" height="52" viewBox="0 0 52 52" fill="#000000" xmlns="http://www.w3.org/2000/svg"><path d="M36.5 17.1c-2.1 0-4.5 1.1-4.5 4.2v5.4c0 2.5 2 4 4.7 4 2.1 0 4.5-1 4.5-4.2v-5.2c0-2.6-2-4.2-4.7-4.2zM10.1 28.3c0 1.8 1.5 2.7 3.9 2.7 4 0 4.7-2 4.7-4.3v-1h-5c-2.2 0-3.6.7-3.6 2.6z"/><path d="M0 0v52h52V0H0zm11.5 40.3H9.7V40c0-.8-.6-1-1.2-1s-1.3.3-1.3 1v2.3c0 .8.6 1.2 1.3 1.2.6 0 1.2-.3 1.2-1v-.3h1.8v.4c0 1.7-1.6 2.4-3 2.4-1.6 0-3.1-.8-3.1-2.6v-2.3c0-1.8 1.5-2.7 3-2.7s3 .7 3 2.4v.4zm7 2c0 2-1.5 2.8-3 2.8-1.7 0-3.2-.8-3.2-2.7v-2.1c0-1.9 1.5-2.8 3.1-2.8s3.2.9 3.2 2.8v2zm.4-9.6c-2 2-3.6 2.4-6.3 2.4C8.2 35 5 32.6 5 28.6c0-4.2 3.8-6.6 8-6.6h5.6v-2c0-2.3-1.5-3.2-4-3.2-2.3 0-4 .7-4 2.1v.8H6.3V19c0-4.7 4.5-6.3 8.5-6.3 4.7 0 9.1 1.6 9.1 6.8V30c0 1 .2 4.2.4 4.7h-5l-.3-2zm6.8 9.6c0 1.8-1.4 2.8-3 2.8-2 0-3.1-.9-3.1-2.7v-4.8h1.8v4.6c0 .9.5 1.4 1.3 1.4s1.2-.5 1.2-1.3v-4.7h1.8v4.7zm7.5 2.7h-1.7l-2.8-4.3V45h-1.8v-7.4h1.8l2.8 4.2v-4.2h1.7V45zm7.2-4.7h-1.8V40c0-.8-.6-1-1.2-1s-1.3.3-1.3 1v2.3c0 .8.6 1.2 1.3 1.2.6 0 1.2-.3 1.2-1v-.3h1.8v.4c0 1.7-1.5 2.4-3 2.4-1.6 0-3.1-.8-3.1-2.6v-2.3c0-1.8 1.5-2.7 3-2.7s3 .7 3 2.4v.4zm1-8a8.5 8.5 0 0 1-6.1 2.9c-4.7 0-8.5-3-8.5-8.5v-5.2c0-5.8 4-8.7 8.9-8.7a7 7 0 0 1 5.4 2.6h.1V4.8h5.1v29.8h-5v-2.3zM43.1 45h-1.8v-7.4h1.8V45zm5.3 0h-4v-7.4h1.8v5.7h2.2V45z"/><path d="M15.4 39c-.6 0-1.3.4-1.3 1.2v2.2c0 .8.6 1.2 1.3 1.2.7 0 1.3-.4 1.3-1.2v-2.2c0-.8-.6-1.2-1.3-1.2z"/></svg>
