<svg width="134" height="32" viewBox="0 0 134 32" fill="none" xmlns="http://www.w3.org/2000/svg"><path d="m24.016 31.264 2.009-5.609c.24-.69-.287-1.425-1.052-1.425H14.639c-.478 0-.909.276-1.052.735l-2.01 5.61c-.239.69.287 1.425 1.053 1.425h10.333c.479 0 .91-.276 1.053-.736ZM33.488 0h-18.18c-.478 0-.909.276-1.052.736l-2.01 5.609c-.239.69.288 1.425 1.053 1.425h18.18c.478 0 .908-.276 1.052-.736l2.01-5.609C34.826.735 34.252 0 33.487 0ZM29.23 12.092H3.11c-.479 0-.91.276-1.053.736L.048 18.483c-.24.69.287 1.425 1.052 1.425h26.121c.479 0 .91-.276 1.053-.736l2.009-5.609a1.11 1.11 0 0 0-1.053-1.471Z" fill="#98C1A5"/><path d="M133.952 11.77C133.761 5.15 127.972 0 121.083 0h-11.625c-.622 0-1.101.506-1.101 1.057v29.84c0 .597.527 1.057 1.101 1.057h6.984c.622 0 1.101-.506 1.101-1.057V24.69a.42.42 0 0 1 .43-.414h3.349c7.128 0 12.869-5.655 12.63-12.506Zm-16.409 3.448v-6.16a.42.42 0 0 1 .43-.414h2.966c1.866 0 3.493 1.287 3.732 3.034.287 2.115-1.435 3.954-3.588 3.954h-3.11c-.191 0-.43-.184-.43-.414ZM94.148 1.103v29.84c0 .597.527 1.057 1.1 1.057h6.985c.622 0 1.101-.506 1.101-1.057V1.103c0-.597-.527-1.057-1.101-1.057h-6.984c-.574-.046-1.1.46-1.1 1.057ZM79.988 1.103v10.07a.42.42 0 0 1-.43.413h-7.464a.42.42 0 0 1-.43-.414V1.103c0-.597-.526-1.057-1.1-1.057h-6.985c-.622 0-1.1.506-1.1 1.057v16.368l4.88 13.793c.143.46.573.736 1.052.736h2.153c.621 0 1.1-.506 1.1-1.057v-10.07a.42.42 0 0 1 .43-.413h7.463c.24 0 .431.184.431.414v10.069c0 .597.526 1.057 1.1 1.057h6.985c.622 0 1.1-.506 1.1-1.057V1.103c0-.597-.526-1.057-1.1-1.057h-6.985c-.622-.046-1.1.46-1.1 1.057ZM50.758 0h-9.616c-.479 0-.91.276-1.053.736L29.565 30.575c-.24.69.287 1.425 1.052 1.425h8.276c.479 0 .957-.322 1.1-.782L45.4 14.023c.239-.736 1.291-.69 1.483 0l5.023 17.195c.143.46.574.782 1.1.782h8.468c.765 0 1.34-.736 1.052-1.425L51.81.735C51.667.276 51.236 0 50.758 0Z" fill="#004B66"/></svg>
