<svg width="684" height="234" viewBox="0 0 684 234" xmlns="http://www.w3.org/2000/svg">
<path fill="#19398A" d="M180.487,37.646C137.001,37.906,126.648,0,126.648,0h-27.75c3.057,9.938,8.199,30.648,7.059,54.749
	c-0.847,17.937-5.536,34.63-10.07,50.774c-3.847,13.695-7.825,27.858-9.268,42.394c-3.742,37.694,3.477,72.947,6.672,86.083
	C108.847,224.599,189.994,161.98,180.487,37.646"/>
<path fill="#ED1C28" d="M80.556,147.313c1.496-15.064,5.547-29.489,9.465-43.437c4.442-15.816,9.036-32.172,9.85-49.416
	C101.033,29.886,95.243,8.572,92.492,0H54.603c0,0-10.354,37.906-53.839,37.646C-8.333,156.6,66.461,219.062,86.676,232.479
	C83.158,217.113,76.982,183.309,80.556,147.313"/>
<path fill="#263D87" d="M277.036,181.716h1.344c22.536,0,31.975-13.676,31.975-38.522h14.254v1.928
	c0,31.586-15.407,49.115-47.38,49.115c-34.48,0-51.046-21.381-51.046-73.385v-7.703c0-52.004,16.565-73.385,51.046-73.385
	c31.973,0,47.38,17.529,47.38,51.427v5.394h-14.254c0-31.012-9.438-44.299-31.975-44.299h-1.344
	c-25.043,0-36.602,18.104-36.602,60.863v7.703C240.435,163.612,251.801,181.716,277.036,181.716"/>
<polygon fill="#263D87" points="447.169,193.582 432.069,193.582 360.638,66.192 361.41,101.234 361.41,193.582 348.248,193.582
	348.248,42.574 363.348,42.574 434.586,169.965 434.001,134.922 434.001,42.574 447.169,42.574 "/>
<path fill="#263D87" d="M529.934,41.883l43.335,151.775h-15.023l-10.784-38.522h-54.892l-10.788,38.522h-15.023l43.339-151.775
	H529.934z M496.035,142.617h47.77L519.92,57.1L496.035,142.617z"/>
<path fill="#263D87" d="M587.143,81.946V80.02c0-25.038,18.685-40.256,47.188-40.256c33.516,0,47.385,17.334,47.385,48.346v4.621
	h-13.869c0-28.506-10.016-40.446-32.935-40.446h-1.35c-18.296,0-32.166,9.823-32.166,26.003v1.541
	c0,15.984,8.281,25.424,35.827,29.275c32.742,4.43,46.222,17.719,46.222,40.833v1.925c0,26.58-19.063,42.375-49.114,42.375
	c-31.775,0-48.919-18.105-48.919-49.115v-1.928h13.865c0,26.391,14.253,38.525,34.476,38.525h1.351
	c20.416,0,34.093-10.597,34.093-28.893v-1.734c0-17.723-10.98-26.58-37.172-30.24C599.276,116.422,587.143,101.785,587.143,81.946"
	/>
<rect fill="none" width="683.444" height="234"/>
</svg>
