<svg width="107" height="30" viewBox="0 0 107 30" xmlns="http://www.w3.org/2000/svg" fill="#092DC5">
<path d="M13.8677 22.8193C10.5754 22.8193 9.30926 25.541 6.17471 25.541C5.19387 25.541 4.30769 24.877 4.30769 23.7686C4.30769 21.774 6.39694 21.5532 8.48618 21.5532H9.08702C13.71 21.5532 17.2862 18.2924 17.2862 13.417C17.2814 12.3189 17.0163 11.2376 16.5125 10.2619L10.7003 9.26873C10.7003 9.26873 10.6303 9.27696 10.6646 9.34555C12.2778 9.9752 13.3615 11.5802 13.3615 13.417C13.3615 15.8232 11.4932 17.7547 9.08702 17.7547C6.71382 17.7547 4.84544 15.8232 4.84544 13.417C4.84544 11.0438 6.71382 9.08079 9.08702 9.08079H17.1916V5.31384H9.08702C4.62458 5.31384 0.920733 8.92166 0.920733 13.417C0.914154 15.4751 1.69558 17.4576 3.10463 18.9577C1.30072 19.8754 0.0976562 21.3625 0.0976562 23.7686C0.0976562 27.2502 2.88377 29.3395 6.14315 29.3395H6.17333C10.2887 29.3395 12.3464 26.7756 13.7086 26.7756C14.0872 26.7756 14.1832 27.2818 14.1832 27.6302H18.1395C18.1409 24.8455 17.16 22.8193 13.8677 22.8193Z" fill="#092DC5"/>
<path d="M29.1236 21.5531C24.4705 21.5531 20.9258 17.7861 20.9258 13.1645C20.9258 8.54295 24.4705 4.776 29.1236 4.776C33.7466 4.776 37.3228 8.54295 37.3228 13.1645C37.3228 17.7861 33.7452 21.5531 29.1236 21.5531ZM29.1236 8.5745C26.5597 8.5745 24.9451 10.6322 24.9451 13.1645C24.9451 15.6969 26.5597 17.7546 29.1236 17.7546C31.6573 17.7546 33.2706 15.6969 33.2706 13.1645C33.2706 10.6322 31.6573 8.5745 29.1236 8.5745Z" fill="#092DC5"/>
<path d="M48.3072 21.5531C43.6541 21.5531 40.1094 17.7861 40.1094 13.1645C40.1094 8.54295 43.6541 4.776 48.3072 4.776C52.9302 4.776 56.5064 8.54295 56.5064 13.1645C56.5064 17.7861 52.9302 21.5531 48.3072 21.5531ZM48.3072 8.5745C45.7433 8.5745 44.1287 10.6322 44.1287 13.1645C44.1287 15.6969 45.7433 17.7546 48.3072 17.7546C50.8396 17.7546 52.4542 15.6969 52.4542 13.1645C52.4542 10.6322 50.8396 8.5745 48.3072 8.5745Z" fill="#092DC5"/>
<path d="M69.2642 9.30158H65.7812V20.9824H61.4449V9.30158H58.5957V5.31377H61.4449V0.660645H65.7812V5.31377H69.2642V9.30158Z" fill="#092DC5"/>
<path d="M75.6267 14.7462C76.2591 16.5199 77.6528 17.7546 79.742 17.7546C81.4197 17.7546 82.5597 16.9315 83.3499 15.6969H87.719C86.6106 19.0838 83.4774 21.5531 79.742 21.5531C78.6402 21.5538 77.5491 21.3373 76.531 20.916C75.513 20.4947 74.5879 19.8768 73.8088 19.0977C73.0298 18.3186 72.4119 17.3936 71.9906 16.3755C71.5693 15.3575 71.3528 14.2663 71.3535 13.1645C71.3535 8.54295 74.8982 4.776 79.5514 4.776C84.1729 4.776 87.719 8.54295 87.719 13.1645V14.7462H75.6267ZM83.509 11.613C82.9068 9.84067 81.5459 8.51003 79.5514 8.51003C77.5266 8.51003 76.1644 9.84067 75.5636 11.613H83.509Z" fill="#092DC5"/>
<path d="M95.5374 5.31384H91.2012V20.9839H95.5374V5.31384Z" fill="#092DC5"/>
<path d="M99.8438 4.776C98.2978 4.776 97.2854 5.12992 96.7038 5.43309L95.5762 11.2317C95.701 10.9312 96.7765 8.54021 99.2992 8.54021C101.483 8.54021 102.56 10.1864 102.56 12.8764V20.9796H106.896V12.8792C106.903 8.00383 104.719 4.776 99.8438 4.776Z" fill="#092DC5"/>
</svg>
