<svg xmlns="http://www.w3.org/2000/svg" width="58" height="23" viewBox="0 0 58 23"><path fill="#000" fill-rule="evenodd" d="M58 21.467V23h-7.632v-1.533H58Zm-18.316 0V23h-7.631v-1.533h7.631Zm5.955 0L45.025 23l-.606-1.533h1.22Zm-17.097 0A6.285 6.285 0 0 1 24.391 23H12.21v-1.533Zm-17.858 0V23H0v-1.533h10.684Zm29-3.067v1.533h-7.631V18.4h7.631Zm7.148 0-.594 1.533H43.82l-.598-1.533h3.609Zm-16.764 0a5.719 5.719 0 0 1-.64 1.533H12.21V18.4Zm-19.384 0v1.533H0V18.4h10.684ZM58 18.4v1.533h-7.632V18.4H58Zm-3.053-3.067v1.534h-4.579v-1.534h4.58Zm-15.263 0v1.534h-4.579v-1.534h4.58Zm8.345 0-.6 1.534h-4.806l-.604-1.534h6.01Zm-18.174 0c.137.49.213 1.003.213 1.534h-5.647v-1.534Zm-10.013 0v1.534h-4.579v-1.534h4.58Zm-12.21 0v1.534h-4.58v-1.534h4.58Zm47.315-3.066V13.8h-4.579v-1.533h4.58Zm-15.263 0V13.8h-4.579v-1.533h4.58Zm9.541 0-.597 1.533h-7.22l-.591-1.533h8.408Zm-21.248 0c.527.432.98.951 1.328 1.533H15.263v-1.533Zm-20.345 0V13.8h-4.58v-1.533h4.58ZM44.599 9.2l.427 1.24.428-1.24h9.493v1.533h-4.579V9.324l-.519 1.41h-9.661l-.504-1.41v1.41h-4.579V9.2H44.6Zm-36.967 0v1.533h-4.58V9.2h4.58Zm21.673 0a5.95 5.95 0 0 1-1.328 1.533H15.263V9.2Zm25.642-3.067v1.534h-8.964l.54-1.534h8.424Zm-11.413 0 .54 1.534h-8.969V6.133h8.43Zm-13.466 0c0 .531-.076 1.045-.213 1.534H24.42V6.133Zm-10.226 0v1.534h-4.579V6.133h4.58Zm-12.21 0v1.534h-4.58V6.133h4.58Zm34.845-3.066.53 1.533H32.054V3.067h10.424Zm15.523 0V4.6H47.04l.55-1.533H58Zm-28.573 0c.284.473.504.988.641 1.533H12.211V3.067Zm-18.743 0V4.6H0V3.067h10.684ZM41.406 0l.54 1.533h-9.893V0h9.353ZM58 0v1.533h-9.881L48.647 0H58ZM24.39 0c1.601 0 3.057.581 4.152 1.533H12.211V0ZM10.685 0v1.533H0V0h10.684Z"/></svg>
