<svg xmlns="http://www.w3.org/2000/svg" width="377" height="67" fill="none"><g clip-path="url(#a)"><path fill="#0f4777" d="M65.57 50.05V3.92c0-.2-.02-.39-.06-.58l-.04-.16a3 3 0 0 0-.12-.4l-.06-.15c-.07-.16-.16-.31-.25-.45l-.02-.04a3 3 0 0 0-.35-.43l-.12-.1a3.2 3.2 0 0 0-.87-.59L63.6.98h-.02c-.38-.16-.79-.24-1.2-.24H3.18c-.84 0-1.6.34-2.18.88l-.04.03-.09.1a3.4 3.4 0 0 0-.57.85l-.06.12c-.07.17-.12.34-.16.5v.02c-.05.22-.08.45-.08.68v59.2c0 .93.41 1.76 1.05 2.35.06.07.14.11.21.17l.2.15.31.17c.07.03.14.08.22.1.11.05.24.09.37.12.07.02.13.05.2.06q.285.06.57.06h59.25c.29 0 .56-.04.82-.12v.02l.15-.06a3.2 3.2 0 0 0 1.02-.56l.19-.15c.12-.12.24-.25.35-.4l.1-.1c.12-.2.23-.4.32-.61l.02-.03v-.01c.13-.36.22-.75.22-1.16zm-22.98-.86-.52.54a.64.64 0 0 0-.22.46c0 .24.07.4-.06.6-.13.22-.3.35-.47.52-.25.24-.46.5-.72.72l-.14.12c-.3.21-.83.41-.94.8l-.02.04c-.05.22-.03.29-.23.46-.13.1-.28.2-.42.32-.14.13-.12.17-.18.33-.05.13-.17.22-.24.34-.1.18-.15.4-.27.59-.1.16-.17.36-.3.51-.16.2-.37.3-.59.4-.07.03-.13.09-.2.13a4.4 4.4 0 0 0-.76.58c-.28.26-.6.48-.84.79-.15.19-.3.38-.47.55-.19.2-.37.4-.6.53-.08.05-.15.07-.21.1l-.42.13c-.28.09-.53.1-.78.09-.12 0-.23 0-.36-.04-.34-.07-.63-.11-.93-.3-.33-.2-.65-.41-.98-.6-.23-.12-.5-.16-.73-.3-.25-.15-.4-.35-.62-.55-.24-.24-.55-.41-.82-.63-.14-.12-.3-.21-.45-.33l-.03-.03c-.25-.23-.45-.51-.69-.76-.1-.11-.22-.18-.26-.32-.07-.22.05-.46-.03-.68-.07-.16-.25-.3-.43-.42l-.43-.25c-.24-.14-.33-.31-.51-.52-.16-.2-.38-.34-.45-.58-.07-.25-.04-.55-.15-.78-.13-.28-.5-.4-.68-.67s-.15-.64-.32-.92c-.17-.3-.44-.52-.7-.73-.17-.14-.45-.24-.57-.42-.11-.18-.09-.51-.15-.73-.1-.32-.27-.6-.42-.9a3.3 3.3 0 0 0-.5-.73 1.5 1.5 0 0 0-.21-.18c-.15-.12-.32-.24-.37-.36-.1-.19.04-.46-.06-.61a1 1 0 0 0-.1-.06c-.13-.12-.21-.28-.33-.4-.14-.15-.33-.41-.5-.51-.02-.02-.05-.02-.08-.03-.07-.02-.15-.03-.21-.07-.22-.14-.25-.44-.33-.66-.1-.23-.24-.44-.35-.67-.08-.14-.22-.34-.3-.5-.2-.35-.46-.73-.6-1.11-.05-.12-.12-.21-.2-.34-.04-.08-.05-.17-.1-.25-.05-.1-.18-.18-.2-.3 0-.05.07-.22.05-.34-.04-.18-.1-.35-.16-.52-.03-.1-.06-.26-.1-.36-.1-.2-.2-.4-.24-.62-.06-.28-.05-.55-.09-.81-.04-.36-.12-.72-.19-1.08-.06-.34-.15-.67-.2-1.02-.12-.72-.23-1.45-.53-2.12-.25-.56-.73-.96-.87-1.58-.16-.7.07-1.6.12-2.3.04-.49.14-1.02-.06-1.5l-.22-.46c-.15-.34-.46-.58-.48-.98 0-.39.17-.76.07-1.14-.08-.29-.14-.59-.25-.86-.12-.28-.34-.52-.4-.83-.04-.27.03-.56.07-.83l.01-.08c.02-.2.06-.4.1-.6.13-.58.27-1.18.1-1.7l-.01-.04c-.13-.35-.46-.56-.6-.88-.16-.35-.02-.72.08-1.06.09-.3 0-.91-.03-1.22l-.02-.17.07-.24c0-.1-.03-.19.04-.27.1-.12.25-.15.39-.2l.05-.02c.21-.1.4-.22.6-.33.21-.13.45-.2.65-.35.22-.15.41-.35.61-.53a3.03 3.03 0 0 1 1.84-.42c.09 0 .17.03.25.06.2.08.4.2.57.36.05.05.1.15.16.2.06.07.2-.04.28 0 .09.05.13.14.2.19.08.05.2.06.3.08.2.05.41.08.6.15.16.05.3.12.41.23.07.06.1.15.16.22.08.07.18.06.28.1.16.05.3.18.45.26l.06.04c.12.04.24 0 .37-.04a.6.6 0 0 1 .19-.03c.38.04 1.12.36 1.2-.3.03-.2-.25-1.11-.3-1.3-.1-.33-.04-.7-.2-1.02-.1-.2-.38-.34-.52-.51-.05-.07-.08-.14-.11-.2-.16-.32-.18-.67-.36-.98-.15-.24-.26-.26-.33-.54-.05-.22-.03-.54-.03-.77l.04-.02c.17-.08 1.11-.22 1.22-.25.68-.2 1.15-.77 1.81-1 .23-.07.47.04.69-.04.17-.05.38-.14.52-.26l.07-.07a.25.25 0 0 1 .13-.07c.11-.03.24-.02.36-.05.16-.03.32-.1.47-.15l.15-.04c.6-.18 1.22-.14 1.82-.33.39-.12.86-.13 1.25-.22l.2-.04c.21-.06.43-.11.65-.15.15-.03.31-.03.47-.03.1 0 .21-.01.31-.03.19-.04.37-.12.56-.12.18 0 .36.08.55.1.44.03.86.18 1.3.26.16.03.32.02.48.02.25-.02.5-.06.75-.14.3-.1.6-.3.92-.32.05 0 .1-.02.14-.01.2.03.36.16.54.25.2.12.39.13.6.18.31.08.58.25.88.36l.08.02c.23.07.48.09.7.18l.06.02c.37.15.68.29 1.08.34.48.07.95.04 1.24.24.25.18.64.88.8.99l.3.15c.25.1.52.16.76.26.13.05.25.11.36.2a2.65 2.65 0 0 1-.38 1.18c-.1.16-.2.25-.34.51-.1.2-.24.24-.3.46-.08.29.08.57-.05.86-.09.18-.24.29-.35.44-.04.07-.05.14-.05.21s-.01.14-.05.2l-.14.19a.8.8 0 0 0-.09.43c.01.1.04.18.01.3-.06.23-.26.52-.04.74.04.04.17.06.24.1h.01c.08.06.14.14.23.18.22.13.37.05.56-.08.1-.07.19-.08.31-.1l.12-.02c.1-.01.19-.03.28-.07.16-.07.35-.08.5-.18.22-.12.41-.3.6-.45.08-.05.2-.1.25-.16.11-.11.11-.21.18-.3.28-.33.77-.41 1.1-.7l.27-.25a.8.8 0 0 1 .22-.1c.16-.06.37-.1.56-.1.06-.01.13-.02.18-.01.07 0 .07.02.13.06.07.06.11.1.22.12.17.04.34.05.5.1.29.07.53.15.77.33.14.1.1.18.26.24.18.07.3-.02.5.1l.54.4c.1.07.18.14.28.19.33.18.65.03.86.39.16.29.37.89.34 1.24-.1 1.05-.35 1.87-.27 2.94.02.29.1.63-.06.89-.2.34-.4.57-.4.99 0 .6.25 1.2.2 1.8-.02.42-.09.84-.2 1.24l-.03.05-.08.15c-.02.1 0 .2-.03.3-.06.3-.26.42-.23.74.04.33.22.66.12 1-.06.2-.16.37-.23.57-.1.26-.07.34-.04.59.08.6-.69.95-.96 1.4-.14.21-.23.46-.27.71-.03.28.01.51.05.78.02.16.02.55.16.65.16.11.2.39.2.56.02.2-.05.45-.14.68-.08.22-.18.43-.23.61-.11.34-.29.65-.33 1-.04.38-.03.85-.31 1.14-.13.13-.29.2-.4.34-.07.08-.11.16-.17.24l-.16.24c-.11.18-.15.4-.27.58q-.15.3-.21.6c-.04.18.03.43-.05.6-.08.15-.32.39-.44.52-.3.33-.2.61-.33 1-.06.16-.2.22-.33.34l-.15.2c-.06.1-.09.2-.15.28-.01.03-.04.05-.07.07l-.14.14c-.05.05-.08.15-.12.2-.1.19-.15.4-.22.6a.8.8 0 0 1-.25.4c-.18.14-.33.3-.46.48l-.31.33c-.1.1-.14.18-.22.3-.1.15-.27.25-.35.4-.18.38-.18.92-.23 1.35-.03.21-.07.43-.16.62a.75.75 0 0 1-.27.33c-.45.35-.32.54-.38 1.04 0 .07-.02.14-.06.2l-.05.08-.07.09-.36.46a5 5 0 0 1-.21.23z"/><path fill="#2f608a" d="M43.4 17.29c.1-.07.18-.08.3-.1l.12-.02c-.05-1.47-.07-2.94-.06-4.42-.1.16-.2.25-.35.51-.1.2-.24.24-.3.46-.07.29.08.57-.05.86-.08.18-.24.29-.35.44-.04.07-.04.14-.05.21a61 61 0 0 0-.06 1.97c.08.05.14.13.23.17.22.13.37.05.56-.08Zm-.07 31c.03 0 .05.02.08.03l-.03-.1zM21.96 17.03c.12.04.24 0 .37-.04l-.45-.28.02.28zm-20.85-13c.06-.8.02-1.61-.1-2.41H1l-.03.03-.1.1a3.3 3.3 0 0 0-.57.85l-.06.12c-.07.17-.12.34-.16.51.13.34.43.61 1.03.8M63.94 2.5c.39 5.34.93 10.67 1.63 15.98V3.92c0-.2-.02-.39-.06-.58l-.04-.16a3 3 0 0 0-.12-.4l-.06-.15c-.07-.16-.16-.31-.25-.45l-.02-.04c-.1-.15-.22-.3-.35-.43l-.12-.1c-.1-.1-.2-.18-.31-.26l-.14-.1a3 3 0 0 0-.42-.23L63.6.98h-.02zm1.63 43.26c-1-3.66-2.53-9.23-2.91-11.1-.5-2.4-3.38-16.42-3.75-19.25-.3-2.32-.4-10.2-.49-14.67h-1.4c.2 5.75.45 11.85.78 14.67 2.17 18.48 6.4 30.85 6.77 31.96.1.3.48 1.33 1 2.67zM62.43 19.5c.16.96.38 5.43 1.06 9.8.28 1.8 1.16 4.7 2.08 7.47v-4c-.31-1.44-.62-2.9-.91-4.35-.1-.48-.58-6.6-1.07-8.53-.33-1.3-1.48-11.84-2.24-19.14h-.24c.45 7.24 1.13 17.69 1.32 18.75"/><path fill="#2f608a" d="M55.22 16.23c.23-5.03-.25-10.25-.7-15.5h-1c.19 1.66.36 3.29.5 4.88C52.97 25.57 58 44.57 65.58 62.02v-6.7c-4.55-12.59-8.61-25.35-10.35-39.1Z"/><path fill="#2f608a" d="M56.91 42.73c-4.67-12.87-3.95-28.18-6.48-42h-1.58c.43 3.93 1.35 7.23 1.73 11.6.12 1.3.21 2.58.3 3.87.1.07.18.14.28.19.33.18.65.03.86.38.17.3.37.9.34 1.25-.1 1.05-.35 1.87-.27 2.94.02.29.1.63-.06.88-.2.35-.4.58-.4 1 0 .6.25 1.2.2 1.8-.02.42-.09.83-.2 1.24l-.02.05c.19 2.15.42 4.4.75 6.88 1.58 12.08 6.38 22.68 10.84 33.37v.02c.06-.02.1-.05.16-.06a3.3 3.3 0 0 0 1.01-.56l.19-.15c.13-.12.24-.25.35-.4l.1-.11c.13-.19.23-.4.32-.6l.02-.03v-.01c-2.83-7.16-6.01-14.2-8.44-21.55m-9.13-27.88c-.09-2.26-.12-4.55-.08-6.85l-.7 7.06a.8.8 0 0 1 .23-.1c.15-.06.36-.1.55-.1Zm2.37 19.21-.23.61c-.11.34-.29.65-.33 1-.04.38-.03.85-.31 1.14-.13.13-.28.2-.4.34l-.16.24c2.36 10.04 6.36 19.4 10.02 28.92h2.3a51 51 0 0 1-1.53-4.51 123.2 123.2 0 0 1-9.36-27.74M44.6.74h-.72c.03 2.02 0 4.05-.1 6.07a42 42 0 0 0-.76 4.3c.25.1.52.16.76.26.07-3.55.33-7.1.82-10.63m-5 8.65c.23-2.92.33-5.8.32-8.65h-.77c-.06 2.82-.19 5.64-.31 8.45.23.07.48.09.7.18l.07.02Zm-3-1c-.1-2.57-.26-5.12-.47-7.65h-.96c-.02 2.68-.12 5.4-.23 8.1.24 0 .49-.05.74-.13.3-.1.6-.3.92-.32m11.1 37.66c-.52-.72.22-3.7-1.15-4.23l-.14.14c-.05.05-.08.15-.12.2-.1.19-.15.4-.22.6.6 1.21-.07 3.3 1.63 3.3ZM28.07 56.06c-.25-.23-.45-.51-.68-.76-.11-.11-.23-.18-.27-.32-.06-.22.06-.46-.03-.68-.07-.16-.24-.3-.43-.42 1.08 4.18 2.3 8.33 3.67 12.42h1a222 222 0 0 1-3.23-10.2l-.04-.03Zm-16.63 1.09.24 2.38c-.35 2.25-.66 4.51-.95 6.77H12c.16-2.18.33-4.36.52-6.53-.71-.72.48-2.5-1.07-2.62ZM6.19 44.02c.63 7.44.8 14.89.55 22.29h1.44c.16-5.51.1-11.1-.2-16.8-.6-1.55.12-4.41-1.79-5.49M31.38.74h-1c.14 2.68.2 5.37.22 8.06.21-.06.43-.11.65-.15.16-.03.32-.03.47-.04a248 248 0 0 0-.34-7.87M21.2 46.1c-.1-.19.04-.46-.06-.61a1 1 0 0 0-.1-.06c-.13-.12-.2-.28-.32-.4-.15-.15-.34-.41-.5-.51-.03-.02-.06-.02-.1-.03 1.55 7.16 3.77 14.39 4.39 21.8h1.41a379 379 0 0 0-4.35-19.83c-.15-.12-.31-.24-.37-.36m-2.96 7.94-1.43-2.63c1.48 4.64 1.81 9.8 2.22 14.89h1.1c.04-4.4-.31-8.71-1.53-12.5zm-1.07-4.06c.37 0-.88-4.35-1.8-5.13h-.02c-.47 0 0 2.39.38 3.22.4.85.31 1.24 1.43 1.9Zm-2.63-10.26c.36 1.2.36 2.86 1.2 3.7 0-1.43.11-3.1-1.2-3.7m.84-4.06c-.96-2.02-.25-4.05-1.67-5.72.6 3.1-.12 6.68 1.67 9.18zm-4.3 15.79c.82 1.43-.47 4.37 1.2 5.2-.36-1.54.82-4.6-1.2-5.2m.84-.28c.12-1.67 0-4.25-1.2-5.09.84 1.31-.47 4.14 1.2 5.1Zm-1.51-10.9h-.04c0 1.66.12 4.22 1.3 5.18-.35-1.53-.57-5.19-1.26-5.19Zm-1.18-7.7c.6 2.02.06 5.48 1.85 6.91-.95-2.02-.42-6.68-1.85-6.92Zm-4.11 3.45c.35 2.39.35 4.9 1.07 7.16h.96c-.72-2.39-.96-5.01-2.03-7.16M1.05 65.47c.07.07.14.11.21.17l.2.15.31.17.22.1c.11.05.24.09.37.12.07.02.13.05.2.06q.285.06.57.06h.3c.79-5.83.85-11.84-.07-18.02l-2.3 17.19ZM0 45.7v14.67a140 140 0 0 0 1.9-23.51C1.16 39.77.55 42.72 0 45.7m.23-21.97v3.7l-.23.64v6.63c.46-2.9.92-5.8 1.42-8.7-.6-.71-.12-1.79-1.2-2.27Zm26.95-14.3.15-.04-.06-2.68-1.25-.68.2 3.67a.25.25 0 0 1 .13-.07c.11-.03.24-.02.36-.05.16-.03.32-.1.47-.15m-.63-8.7h-.86c.32 1.68.33 4.28.33 4.28l1.17.6s.1-3.18-.64-4.87ZM21.9 12.12c-.05-.22-.03-.54-.03-.77l.04-.02-.65-.52.5 4.89 1.13.54-.3-2.6c-.16-.32-.18-.67-.36-.98-.15-.24-.26-.26-.33-.54m-.73-2.7 1.13 1.1a165 165 0 0 0-.82-6.75l-1.02-.85zm-.71-7.52.93.47a9.6 9.6 0 0 1-.23-1.62h-.83zm-3.32 13.34c.37-.1.8-.14 1.1-.1l-.08-.92-1.14-.62zm-.18-2.8 1.17.73-.54-5.45-1.2-.77.57 5.48Zm-.65-7.06 1.14.95-.48-5.58h-1.1zM14.5 16.79l.05-.02c.23-2.75-.55-7.02-2.38-8.25.71 2.36.01 6.8 2.33 8.27m-.13 6.46.01-.08c.02-.2.06-.4.1-.6 0-.56.06-1.14.1-1.7l-.01-.04c-.13-.35-.46-.56-.6-.88-.16-.35-.02-.72.09-1.06.08-.3 0-.91-.04-1.22q-.285-.36-.66-.6c.46 2.08-.86 4.7 1.01 6.18m.18 5.86c-.24-1.55 1.06-4.3-1.18-5.54.24 1.68-.37 4.7 1.18 5.54M13.11 7.64c-1.79-1.55.24-4.65-2.03-5.96.6 2.02.36 5.72 2.03 5.96m-2.86 17.78c0-2.03.12-4.18-1.2-5.73.48 1.9-.95 4.77 1.2 5.73m0 6.56c-.36-1.91.78-5.21-1.37-6.17.48 1.91-.78 5.21 1.37 6.17M10 18.5c-.48-1.91-.24-4.3-1.43-5.73 0 2.15-.36 4.65 1.43 5.73M7.62 4.54c.6 2.39-.12 5.49 1.8 7.16-.6-2.39.11-5.61-1.8-7.16m.94-.44C8.3 3.07 8.29 1.88 8.2.74H7.17c.13 1.3.42 2.51 1.39 3.36m-2.85 23c.96-1.8-.74-4.14-1.1-5.45-.05 1.4-.57 4.6 1.1 5.45m-.95 1.19c-.12 1.07-.72 1.9-.48 3.1.6 1.07-.35 3.34 1.43 3.46.48-2.5-.95-4.17-.95-6.56m.6-7.4c.11-2.26.24-4.91-1.4-6.6.84 1.79-.28 5.05 1.4 6.6M3.67 8.24c0 2.02-.35 4.41 1.44 5.48l-1.2-5.48zm.6-1.43c-.71-1.32 1.55-4.54-.95-5.13.35 1.67-.72 3.93.95 5.13M1.42 22.79C1.74 20.97.8 19.02 0 17.7v2.64c.11 1.01.42 1.93 1.42 2.46ZM0 11.2V16c.23.27.57.48 1.06.59C.75 14.79.8 12.27 0 11.2m0-5.8v.02c.16.49.1 1 0 1.49v2.3c.17.18.43.34.82.46C.94 8 .71 6.35 0 5.39Zm33.77 53.35c-.28.09-.52.1-.78.09l2.27 7.47h1.25l-2.32-7.7-.41.14Zm3.3-2.68c-.26.16-.5.34-.72.55l-.04.03c.98 3.18 1.97 6.42 2.99 9.66h1.38c-1.3-3.4-2.49-6.83-3.61-10.24m11-9.18-1.27-.12c1.47 6.55 4.4 13.02 7.12 19.54h2.13c-2.98-6.36-5.95-12.7-7.99-19.42Zm-4.3 2.02-.2.01c-.24 0-.48-.04-.67-.08l-.2.24c2.18 5.64 4.27 11.45 6.39 17.23h1.88c-2.66-5.64-5.36-11.25-7.2-17.4m.57 13.6c-1.53-3.15-2.5-7-3.74-10.48l-.14.12c-.3.21-.82.42-.94.8 1.38 4.55 3.07 8.97 4.84 13.36H46l-1.67-3.8Z"/><path fill="#0f4777" d="M82.63 66.12h-6.5V35.3h13.1c7.87 0 10.25 4.68 10.25 9.62 0 7.45-4 11.24-12.05 11.24h-4.8zm4.08-15.24c3.37 0 6.05-.94 6.05-5.5 0-3.95-2.34-4.8-5.54-4.8h-4.59v10.3zm50.65-1.1c-2.9-.3-5.92.5-7.8 2v14.34h-6.42V43.94h5.5l.46 3.5c1.49-2.18 3.8-3.97 7.2-3.97.35 0 .68.05 1.06.05v6.25Zm8.88 1.91 7.32-7.75h7.12l-7.37 7.96 7.92 14.22h-7.11L148.37 56l-2.13 2.09v8.04h-6.42V35.3h6.42v16.4Zm-25.16 10.56c-.15.02-.3.04-.44.04-1.15 0-1.32-.51-1.32-1.7V51.3c0-5.57-2.94-7.83-8.9-7.83-6.04 0-8.69 2.43-9.37 6.65l5.46 1.06c.46-2.17 1.19-3.07 3.36-3.07 2.8 0 3.15 1.54 3.15 4.05v.8c-5.66 0-12.73.94-12.73 7.76 0 2.2 1.06 5.91 6.6 5.91 3.06 0 5.2-1.02 6.6-2.85.47 2.09 2 2.81 4.55 2.81.94 0 2.12-.18 3.04-.45v-3.9Zm-8.02-1.62a5.7 5.7 0 0 1-3.7 1.45c-2.05 0-2.6-1.11-2.6-2.43 0-2.26 2.17-2.81 5.28-2.94h1.02zM91.89 31.32l-9.77-20.57v20.57h-6V.5h7.83l9.56 20.66V.5h5.96v30.82H91.9Zm46.12-.8c-1.15.73-3.17 1.3-6.02 1.3-4.64 0-7.07-2.08-7.07-7.18V13.82h-3.32V9.14h3.32V2.59l6.43-.86v7.4h5.33v4.7h-5.33v9.91c0 2 .55 2.98 2.6 2.98 1.31 0 2.32-.24 3.17-.75l.9 4.56Zm8.23.8h-6.42V9.14h6.42zm-3.2-24.3c-2.27 0-3.5-1.27-3.5-3.53S140.77 0 143.04 0c2.18 0 3.48 1.23 3.48 3.49s-1.3 3.52-3.49 3.52Zm21.06 13.06c0-4.81-1.32-6.56-4.17-6.56-2.9 0-4.5 1.83-4.5 6.64 0 4.95 1.18 6.9 4.37 6.9 2.81 0 4.3-1.79 4.3-6.98m-15.4.25c0-7.1 3.7-11.66 11.4-11.66 7.66 0 10.69 4.64 10.69 11.2 0 7.28-3.32 11.96-11.28 11.96-8.05 0-10.82-4.81-10.82-11.5Zm44.69 10.99h-6.43V17.27c0-2.39-.94-3.4-2.94-3.4a6.9 6.9 0 0 0-4.34 1.74v15.7h-6.43V9.14h5.7l.35 2.21c1.66-1.49 4-2.68 7.06-2.68 4.94 0 7.02 2.39 7.02 7.5v15.15ZM218.66.5h6.42v30.82h-6.42zm-96.6 26.87c-.15.03-.3.04-.45.05-1.15 0-1.32-.52-1.32-1.71v-9.28c0-5.58-2.93-7.83-8.9-7.83-6.04 0-8.68 2.42-9.36 6.64l5.45 1.06c.47-2.17 1.2-3.07 3.37-3.07 2.8 0 3.14 1.54 3.14 4.05v.81c-5.66 0-12.72.94-12.72 7.75 0 2.21 1.06 5.92 6.6 5.92 3.06 0 5.19-1.02 6.6-2.86.46 2.09 2 2.81 4.55 2.81.94 0 2.11-.18 3.04-.45zm-8.02-1.62a5.7 5.7 0 0 1-3.7 1.45c-2.05 0-2.6-1.1-2.6-2.43 0-2.25 2.17-2.8 5.28-2.93h1.02zm102.62 1.62c-.14.03-.3.04-.44.05-1.15 0-1.32-.52-1.32-1.71v-9.28c0-5.58-2.94-7.83-8.9-7.83-6.04 0-8.68 2.42-9.36 6.64l5.45 1.06c.46-2.17 1.19-3.07 3.36-3.07 2.81 0 3.15 1.54 3.15 4.05v.81c-5.66 0-12.73.94-12.73 7.75 0 2.21 1.06 5.92 6.6 5.92 3.06 0 5.2-1.02 6.6-2.86.47 2.09 2 2.81 4.55 2.81.94 0 2.12-.18 3.04-.45zm-8.02-1.62a5.7 5.7 0 0 1-3.7 1.45c-2.05 0-2.6-1.1-2.6-2.43 0-2.25 2.17-2.8 5.28-2.93h1.02z"/><path fill="#0a7ec2" d="M166.5 66.18v-1.91l2.73-.3c.6-.1.7-.22.7-.87V38.31c0-.64-.1-.82-.7-.86l-2.72-.3V35.2h21.01v6.49l-2.2-.13-.6-3.37c-.1-.44-.26-.57-.74-.57h-11.16V49h11.09v2.42h-11.09v11.64c0 .69.05.78.7.87l6.35.34v1.9h-13.36Zm19.3-11.12c0-6.75 3.37-11.42 10.55-11.42 7.13 0 9.9 4.67 9.9 11.12 0 7.22-3.2 11.93-10.33 11.93-7.18 0-10.13-4.84-10.13-11.63Zm17.47 0c0-5.93-2.25-8.87-7-8.87-4.8 0-7.49 2.99-7.49 8.91 0 5.93 2.47 9.22 7.27 9.22 4.75 0 7.22-3.17 7.22-9.26m20.63 11.12-.4-3.18-.09-.03c-1.94 1.77-4.67 3.71-8.52 3.71-4.84 0-6.22-3.03-6.22-7.95V47.58c0-.7-.05-.9-.7-1.04l-2.29-.65.3-1.82h5.59v13.89c0 4.24.77 6.27 3.89 6.27 3.33 0 6.14-2.38 7.91-4.46V47.53c0-.69-.04-.86-.69-.99l-2.34-.65.3-1.82h5.63v18.99c0 .65.13.87.56.9l2.38.31v1.9h-5.32Zm20.95 0v-1.95l2.25-.26c.6-.1.69-.17.69-.82V52.77c0-4.46-1.21-6.49-4.41-6.49-3.16 0-6.23 2.03-7.52 3.24V63.1c0 .7.04.78.69.87l2.6.3v1.9h-9.13v-1.94l2.24-.26c.61-.1.7-.22.7-.87V47.62c0-.48-.13-.78-.56-.9l-2.51-.83.34-1.82h4.89l.34 2.69.13.04c2.17-1.6 4.94-3.16 8.4-3.16 5.05 0 6.7 3.2 6.7 8.22V63.1c0 .7.05.78.69.87l2.6.3v1.9h-9.13Zm25.24 0-.34-2.95-.14-.04c-2.07 1.95-4.32 3.5-7.78 3.5-4.89 0-8.09-3.15-8.09-11.02 0-8.44 3.63-12.03 9-12.03 2.64 0 5.1.91 6.78 2.12v-8.73c0-.44-.17-.74-.55-.87l-2.65-.82.35-1.82h5.75V63.1c0 .7.05.78.7.87l2.24.3v1.9h-5.27Zm-.57-17.26a10.27 10.27 0 0 0-6.74-2.77c-4.4 0-6.18 3.76-6.18 9.43 0 6.74 2.5 8.56 5.61 8.56 3 0 5.33-1.73 7.31-4.07zm21.63 17.25-.39-2.9-.13-.04c-2.29 2.12-4.71 3.46-8 3.46-5.4 0-6-3.71-6-5.75 0-4.32 2.67-6.14 7.78-6.62l6.18-.56v-2.42c0-3.63-.73-5.23-4.94-5.23-2.9 0-5.1 0-5.14 3.5l-2.77-.34c0-5.11 4.76-5.63 7.96-5.63 5.93 0 7.78 1.73 7.78 7.61V63.1c0 .7.05.78.7.87l2.25.3v1.9zm-.56-10.11-5.66.51c-4.16.4-5.28 1.6-5.28 4.02 0 2.6 1.3 3.68 3.54 3.68 2.99 0 5.8-1.95 7.4-4.06zm18.53 9.55c-1.65.65-3 1.08-5.08 1.08-3.76 0-5.58-1.9-5.58-5.36v-14.4c0-.26 0-.43-.34-.43h-3.2v-1.95c3.2-.43 3.93-1.56 4.5-5.84h1.94v4.93c0 .26 0 .43.34.43h6.45v2.43h-6.79v13.75c0 2.77.77 3.85 3.28 3.85 1.44 0 2.4-.25 3.66-.73zm1.28.57v-1.95l3.11-.26c.6-.1.7-.22.7-.87V47.62c0-.48-.14-.78-.57-.9l-2.5-.83.34-1.82h5.62V63.1c0 .7.04.78.69.87l3.03.3v1.9H310.4Zm4.67-27.47c-1.47 0-2.34-.82-2.34-2.3 0-1.46.87-2.28 2.34-2.28s2.33.82 2.33 2.29-.86 2.3-2.33 2.3Zm5.83 16.35c0-6.75 3.37-11.42 10.55-11.42 7.14 0 9.9 4.67 9.9 11.12 0 7.22-3.2 11.93-10.33 11.93-7.18 0-10.12-4.84-10.12-11.63m17.47 0c0-5.93-2.24-8.87-7-8.87-4.8 0-7.48 2.99-7.48 8.91 0 5.93 2.46 9.22 7.26 9.22 4.76 0 7.22-3.17 7.22-9.26m18.68 11.12v-1.95l2.25-.26c.6-.1.69-.17.69-.82V52.77c0-4.46-1.21-6.49-4.4-6.49-3.17 0-6.24 2.03-7.53 3.24V63.1c0 .7.04.78.69.87l2.6.3v1.9h-9.13v-1.94l2.24-.26c.6-.1.7-.22.7-.87V47.62c0-.48-.13-.78-.57-.9l-2.5-.83.34-1.82h4.89l.35 2.69.13.04c2.16-1.6 4.93-3.16 8.39-3.16 5.06 0 6.7 3.2 6.7 8.22V63.1c0 .7.04.78.7.87l2.59.3v1.9h-9.13Z"/><path fill="#007dc3" d="M370.18 66.18v-3.44H369v-.43h2.82v.43h-1.16v3.44h-.5Zm6 0h-.47v-3.34l-1.17 3.34h-.52l-1.14-3.35h-.01v3.35h-.46V62.3h.75l1.14 3.29 1.14-3.3h.74v3.88Z"/></g><defs><clipPath id="a"><path fill="#fff" d="M0 0h376.18v66.69H0z"/></clipPath></defs></svg>
