<svg width="937.902" height="216.063" viewBox="0 0 937.902 216.063" xmlns="http://www.w3.org/2000/svg">
<ellipse fill="#fff" cx="108.082" cy="108.157" rx="108.082" ry="107.907"/>
<path fill="#00689E" d="M125.418 121.282c-1.381 0-2.498-1.111-2.498-2.49 0-1.381 1.117-2.496 2.498-2.496 1.373 0 2.486 1.115 2.486 2.496 0 1.379-1.113 2.49-2.486 2.49m-3.484-12.397c-3.279 7.157-8.611 18.415-9.402 20.178 10.537-.822 20.582-4.176 29.048-9.641-.205-.237-19.646-10.537-19.646-10.537M149.714 129.874l.02-.01c-2.494-3.287-4.592-6.018-6.076-7.902-9.085 5.938-19.908 9.557-31.248 10.381.012 2.477.199 46.938.25 59.139 3.861-.67 7.664-1.521 11.387-2.547 0 0-3.754-41.834-3.986-44.189-.355-3.66 3.387-5.186 4.232-.537 1.18 6.479 6.322 42.707 6.322 42.707 3.979-1.354 7.854-2.91 11.591-4.662 0 0-9.714-33.65-11.552-39.83-1.393-4.658 2.623-5.635 3.924-1.723.982 2.959 13.666 38.506 13.666 38.506 3.672-2.008 7.189-4.201 10.518-6.58 0 0-16.012-30.471-17.921-34.494-1.883-3.971 1.996-4.941 3.748-2.004 1.182 1.982 19.748 32.217 19.748 32.217 2.969-2.461 5.752-5.082 8.33-7.84-7.082-9.515-16.806-22.489-22.953-30.632M112.678 195.013c.029 8.51.062 16 .084 21.051 29.667-1.279 56.265-14.553 75.06-35.102-3.504-4.736-8.104-10.951-13.049-17.611-7.111 7.513-21.047 24.265-62.095 31.662M49.877 82.334c1.061 12.193 7.027 23.191 16.158 31.474 5.367-6.978 8.898-11.575 8.957-11.646-.047-.07-2.742-3.512-3.508-4.227l-3.312 2.484-3.322-3.695-3.881 2.479c-.477-.873-3.475-6.553-3.801-7.002.703-.797 1.781-.58 3.252-1.752l-1.316-4.338 3.896-1.939c-.4-1.686-.621-3.412-.621-5.17l.012-.281c-1.592.357-6.168 1.701-12.514 3.613M8.137 150.804l.006-.006-.135-.295.129.301M46.699 83.309c-12.629 3.853-30.553 9.449-46.197 14.367-.33 3.431-.502 6.898-.502 10.408 0 2.834.115 5.649.33 8.43l22.154-10 .982-.443 13.096 6.825 2.127 15.326-28.146 26.4c2.975 6.205 6.531 12.086 10.582 17.576 11.404-14.83 30.854-40.117 42.918-55.807-9.666-8.687-16.043-20.246-17.344-33.082M32.484 115.772l-9.15-4.771c-1.17.525-13.576 6.117-22.539 10.158 1.238 10.242 3.908 20.043 7.816 29.195 6.623-6.211 24.096-22.594 25.371-23.795-.24-1.716-1.261-9.078-1.498-10.787M77.512 162.804l-3.221 10.344c21.051 18.094 28.525 38.445 28.525 38.445v-23.949s-11.759-16.731-25.304-24.84M39.318 165.026c-4.221 5.27-8.381 10.344-11.953 14.852 18.254 20.502 44.182 34.025 73.227 36.02-17.684-31.03-50.715-50.872-61.274-50.872"/>
<path fill="#7ED3F7" d="M14.225 72.699c5.586-2.764 12.812-4.461 19.354-4.373.537.008 1.066.018 1.59.051 1.121.066 2.525.158 3.984.342-2.205-7.229-.041-13.387 3.697-17.338 6.443-6.816 15.584-5.713 21.402-2.393h.139l.547-3.492c.355-2.268 4.221-22.258 30.119-25.352 1.18-.141 2.432-.07 3.758.006l.391.027c1.738.094 3.574.336 5.457.727 9.455 1.957 17.682 7.453 23.16 15.477l.098.141 1.236 1.785 1.648-.137.812-.098.947-.102c10.275-.623 20.855 3.24 29.009 10.574 7.824 7.045 12.555 16.447 12.973 25.781l.043.912c9.268-2.297 26.605-3.955 39.404 11.273-10.025-49.291-53.701-86.51-105.909-86.51-49.805 0-91.838 33.865-104.309 79.781 1.943-1.754 4.059-3.32 6.184-4.67 1.445-.914 2.883-1.726 4.266-2.412"/>
<path fill="#00689E" d="M195.625 93.451c-2.58 18.128-16.516 37.997-26.531 47.396 9.336 11.945 18.791 24.043 25.24 32.295 5.195-6.871 11.959-19.742 14.736-28.459 0 0-14.799-12.73-16.438-14.455-4.055-4.258-.4-10.029 5.387-6.76l.035-.064 15.127 7.342c2.025-8.248 2.982-13.799 2.982-22.663 0-3.135-.141-6.241-.408-9.309-6.474-1.745-13.375-3.565-20.13-5.323M179.378 89.236l-1.844 4.35-6.926-1.109-2.43 3.531c-.975-.293-2.012-.451-3.086-.443-.494.006-.973.057-1.436.133-4.295.648-7.654 3.926-8.291 8.059-.076.486-.121.992-.109 1.504.012 1.167.246 2.285.658 3.319.428 1.065 1.035 2.038 1.801 2.877l-1.789 4.564 4.154 6.096-2.805 3.604 1.367 1.748c2.67 3.42 5.461 6.996 8.295 10.621 9.443-8.982 23.016-28.445 25.291-45.519-4.455-1.159-8.793-2.282-12.85-3.335M8.137 150.804l.006-.006-.135-.295.129.301M98.91 140.813c1.365-1.697 2.195-3.854 2.195-6.205 0-3.525-1.855-6.617-4.635-8.367-.777-3.994-4.232-7.012-8.373-7.012-1.432 0-2.777.363-3.963.996-5.619-1.311-11.24 2.186-12.557 7.805-.156.648-.236 1.299-.264 1.936-14.133 8.219-4.613 22.889 2.176 22.889l-2.9 6.215c-4.527-2.021-10.408-5.619-18.561-8.07l-3.875 5.529c7.678 3.643 17.002 9.113 22.82 14.605l5.592-16.064.082-.223.648.24s2.035 2.252 5.51 3.615c1.729.781 3.656 1.186 5.678 1.104 6.973-.27 12.406-6.139 12.133-13.111-.079-2.151-.696-4.145-1.706-5.882M8.137 150.804l.006-.006-.135-.295.129.301M8.137 150.804l.006-.006-.135-.295.129.301"/>
<path fill="#00689E" d="M214.521 95.701v-.002l-.062-.008.062.01zM115.105 77.081c.484-.474.984-.915 1.5-1.274.044-.036.109-.03.185-.012.124.034.271.093.366.022 1.818 6.151 10.744 11.106 11.461 11.318-.397-.392-6.081-14.023-6.041-14.386.219-1.996 5.038-4.205 5.092-4.244.097-.066.161.047.161.047s-1.572-.057-1.699-.154c-2.553-1.976-4.436.286-4.54.374l-.034.028-.006-.029c-.09-.313-1.842-5.761-1.726-13.959.038-2.744-5.713 10.027-4.201 17.147l.125.752c-.363.239-.74.454-1.124.652-.553.284-1.117.525-1.659.716-.282.102-.542.17-.807.245-.542.154-1.055.276-1.469.323-.536.059-.938.029-1.118-.093l-.002.049c-.013.201-.042.922.083 1.876l.01.075c.105.758.308 1.654.7 2.54.276.624.643 1.24 1.13 1.804l.273.296.183-.27c.248-.367.738-1.061 1.375-1.852l.32-.395.082-.088c.392-.473.819-.955 1.276-1.411l.104-.097"/>
<g fill="#00689E">
<path d="M298.299 56.532l-3.537.748c-.68.137-1.224.817-1.224 2.313v39.319c0 .476-.272.544-.612.544h-4.422c-.544 0-.68-.136-1.021-.612l-18.57-27.958c-1.021-1.497-2.654-4.15-3.062-4.898h-.137v26.326c0 1.497.544 2.177 1.225 2.312l4.285.681c.681.136.953.612.953 1.156v1.429c0 .68-.408 1.021-1.021 1.021h-16.871c-.612 0-1.02-.34-1.02-1.021v-1.429c0-.544.271-1.021.952-1.156l3.537-.681c.68-.135 1.224-.816 1.224-2.312v-32.721c0-1.496-.544-2.176-1.224-2.313l-3.604-.748c-.681-.136-.953-.612-.953-1.156v-1.361c0-.68.408-1.02 1.021-1.02h12.585c.883 0 1.224.544 1.701 1.292l14.489 22.449c1.429 2.176 2.993 4.761 3.673 6.327h.136v-23.47c0-1.496-.544-2.176-1.225-2.313l-4.285-.748c-.681-.136-.953-.612-.953-1.156v-1.361c0-.68.408-1.02 1.021-1.02h16.87c.612 0 1.02.34 1.02 1.02v1.361c.001.544-.27 1.02-.951 1.156zM335.173 98.64c-1.224.477-3.877 1.021-5.918 1.021-3.537 0-4.966-2.245-5.169-4.762h-.273c-2.516 2.585-5.509 4.762-10.543 4.762-5.783 0-9.729-4.15-9.729-9.592 0-9.048 8.436-12.856 19.047-12.788.544 0 .681-.613.681-.953v-1.565c0-4.354-3.333-6.258-7.483-6.258-2.925 0-5.646.884-7.551 1.973-.68.409-1.292.205-1.496-.612l-.749-3.469c-.136-.613 0-1.157.612-1.361 2.994-1.225 7.075-2.041 11.225-2.041 8.503 0 12.925 3.946 12.925 12.653v16.53c0 1.292.748 2.108 1.904 2.108.68 0 1.088-.135 1.701-.339.543-.136 1.02.136 1.088.816l.34 2.721c.069.68-.204 1.02-.612 1.156zm-11.904-16.19c0-.476-.204-.612-.681-.612-8.435 0-11.427 3.129-11.427 6.938 0 3.197 2.448 5.306 5.781 5.306 4.082 0 6.327-2.993 6.327-5.782v-5.85zM360.346 97.959c-1.837.885-5.17 1.701-8.096 1.701-6.395 0-10.544-4.082-10.544-10.477v-18.91c0-.476-.408-.816-.748-.816h-4.489c-.409 0-.545-.34-.477-.884l.408-3.333c0-.271.204-.612.477-.612h4.285c.612 0 .816-.408.816-.952v-4.558c0-.749.137-1.292.884-1.564l5.442-1.973c.816-.271 1.088 0 1.088.816v7.483c0 .408.34.748.749.748h8.571c.272 0 .544.271.544.544v3.742c0 .204-.272.544-.544.544h-8.435c-.477 0-.884.34-.884.816v17.143c0 3.673 1.837 6.394 5.646 6.394 1.429 0 2.789-.408 4.149-.884.545-.204 1.089.067 1.226.748l.543 2.993c.136.611-.204 1.088-.611 1.291zM381.367 98.572c-1.224.544-3.537 1.156-5.578 1.156-5.85 0-8.23-3.129-8.23-8.231v-20.68c0-.952-.341-2.109-1.429-2.313l-2.789-.544c-.68-.136-.884-.476-.884-.952v-1.36c0-.613.34-.953.952-1.021l10.748-1.225c.545-.068 1.157.341 1.157.884v26.395c0 2.312.953 3.673 2.993 3.673.885 0 1.565-.204 2.246-.477.34-.136 1.088 0 1.157.953l.272 2.584c.065.545-.206.954-.615 1.158zm-10-40.679c-3.469 0-4.761-2.245-4.761-4.489 0-2.041 1.292-4.49 4.898-4.49 3.265 0 4.829 1.769 4.829 4.422 0 2.856-1.905 4.557-4.966 4.557zM401.367 100c-10.747 0-16.597-7.891-16.597-18.095 0-10.271 6.598-19.115 17.277-19.115 10.68 0 16.599 7.823 16.599 17.958 0 10.341-6.599 19.252-17.279 19.252zm.205-32.516c-6.531 0-8.367 6.19-8.367 13.265 0 8.911 3.401 14.49 8.435 14.49 6.462 0 8.572-5.85 8.572-13.197-.001-8.844-3.402-14.558-8.64-14.558zM462.322 98.912h-16.055c-.612 0-.952-.34-.952-.953v-1.292c0-.477.272-.884.884-1.021l3.062-.612c.612-.136 1.156-.749 1.156-2.108v-16.394c0-5.034-2.857-7.687-7.211-7.687-4.216 0-7.55 2.585-7.55 6.462v17.619c0 1.36.544 1.973 1.157 2.108l3.061.612c.612.137.884.544.884 1.021v1.292c0 .612-.341.953-.953.953h-16.054c-.612 0-.953-.34-.953-.953v-1.292c0-.477.272-.884.884-1.021l3.061-.612c.612-.136 1.157-.749 1.157-2.108v-22.109c0-.952-.341-2.109-1.43-2.313l-3.333-.544c-.68-.136-.884-.544-.884-1.02v-1.292c0-.613.339-.953.952-1.021l10.068-1.225c.749-.068 1.088.341 1.157 1.021l.408 3.741h.272c2.993-2.993 6.938-5.102 11.835-5.102 5.987 0 11.225 3.605 11.225 10.544v19.319c0 1.36.544 1.973 1.156 2.108l3.061.612c.613.137.885.544.885 1.021v1.292c.002.614-.338.954-.95.954zM498.718 98.64c-1.224.477-3.877 1.021-5.918 1.021-3.537 0-4.966-2.245-5.17-4.762h-.272c-2.517 2.585-5.509 4.762-10.543 4.762-5.782 0-9.729-4.15-9.729-9.592 0-9.048 8.437-12.856 19.048-12.788.543 0 .68-.613.68-.953v-1.565c0-4.354-3.333-6.258-7.482-6.258-2.925 0-5.646.884-7.551 1.973-.68.409-1.293.205-1.496-.612l-.75-3.469c-.135-.613 0-1.157.612-1.361 2.995-1.225 7.075-2.041 11.225-2.041 8.503 0 12.925 3.946 12.925 12.653v16.53c0 1.292.747 2.108 1.905 2.108.68 0 1.088-.135 1.7-.339.543-.136 1.02.136 1.088.816l.34 2.721c.069.68-.204 1.02-.612 1.156zm-11.904-16.19c0-.476-.203-.612-.68-.612-8.436 0-11.428 3.129-11.428 6.938 0 3.197 2.447 5.306 5.781 5.306 4.082 0 6.326-2.993 6.326-5.782v-5.85zM519.741 98.64c-1.292.544-3.604 1.021-5.646 1.021-5.851 0-8.23-3.197-8.23-8.299v-35.442c0-.952-.342-2.109-1.43-2.313l-2.789-.544c-.68-.136-.884-.476-.884-.952v-1.361c0-.612.341-.952.952-1.02l10.748-1.225c.545-.067 1.156.341 1.156.884v41.155c0 2.313.953 3.606 2.992 3.606.953 0 1.634-.204 2.314-.408.543-.136 1.02.136 1.088.816l.34 2.925c.069.681-.203.953-.611 1.157zM575.457 64.627h-1.904c-.477 0-.953-.34-1.021-.952l-.612-3.741c-.204-1.156-1.156-1.769-2.382-1.769h-6.597c-.476 0-.817.34-.817.816v33.333c0 1.497.545 2.177 1.226 2.312l3.604.681c.681.136.953.612.953 1.156v1.429c0 .68-.408 1.021-1.021 1.021h-18.23c-.611 0-1.02-.34-1.02-1.021v-1.429c0-.544.271-1.021.951-1.156l3.605-.681c.682-.135 1.225-.816 1.225-2.312v-33.333c0-.476-.34-.816-.816-.816h-6.598c-1.225 0-2.178.613-2.382 1.769l-.612 3.741c-.068.612-.543.952-1.02.952h-1.904c-.613 0-.953-.34-.953-.952v-9.455c0-.749.34-1.225.816-1.225h35.645c.477 0 .817.476.817 1.225v9.455c-.001.612-.342.952-.953.952zM602.599 70.477c-.135.477-.68.953-1.36.68-1.155-.408-2.924-.816-4.421-.816-3.129 0-6.326 2.041-6.326 5.715v16.87c0 1.36.543 2.04 1.157 2.108l4.081.612c.68.068.885.544.885 1.021v1.292c0 .612-.341.953-.953.953h-17.074c-.613 0-.952-.34-.952-.953v-1.292c0-.477.272-.884.884-1.021l3.062-.612c.612-.136 1.157-.749 1.157-2.108v-22.04c0-.953-.342-2.109-1.43-2.313l-3.4-.544c-.681-.137-.885-.544-.885-1.021v-1.36c0-.613.34-.953.951-1.021l10-1.225c.817-.068 1.157.408 1.226 1.225 0 0 .407 3.946.476 4.49h.271c2.79-3.469 5.715-6.054 10-6.054 1.156 0 2.449.204 3.402.612.477.204.611.749.477 1.36l-1.228 5.442zM645.05 98.64c-1.225.477-3.811 1.021-5.851 1.021-3.469 0-5.511-1.769-5.577-5.034h-.205c-2.856 2.925-6.734 5.034-11.428 5.034-5.782 0-10.953-3.741-10.953-10.612v-18.232c0-.952-.339-2.109-1.428-2.313l-2.789-.476c-.68-.137-.885-.544-.885-1.021v-1.36c0-.613.34-.953.953-1.021l10.68-1.225c.544-.068 1.156.341 1.156.884v21.837c0 5.033 2.857 7.687 7.007 7.687 4.081 0 7.278-2.584 7.278-6.462v-16.53c0-.952-.34-2.109-1.428-2.313l-2.789-.476c-.681-.137-.885-.544-.885-1.021v-1.36c0-.613.34-.953.951-1.021l10.749-1.225c.545-.068 1.157.341 1.157.884v27.823c0 1.292.611 2.176 1.768 2.176.68 0 1.156-.135 1.769-.339.545-.136.952.136 1.021.816l.34 2.721c.069.682-.203 1.022-.611 1.158zM660.427 99.66c-3.401 0-7.348-.68-8.912-1.225-.543-.204-1.02-.612-1.02-1.224v-7.415c0-.613.271-.953.952-.953h1.905c.543 0 .884.34 1.02.953l.611 2.381c.477 1.769 2.518 2.721 5.579 2.721 3.47 0 6.462-1.905 6.462-5.102 0-2.789-2.107-4.218-4.965-5.374l-4.15-1.701c-4.08-1.701-7.211-4.149-7.211-9.115 0-7.007 6.734-10.612 12.993-10.612 3.333 0 6.19.544 7.892 1.156.544.205.952.544.952 1.225v6.735c0 .613-.341 1.02-1.021 1.02h-1.564c-.477 0-.816-.272-1.021-.952l-.543-2.109c-.408-1.633-2.108-2.449-4.762-2.449-2.721 0-5.579 1.36-5.579 4.081 0 2.517 2.041 3.605 4.626 4.694l3.946 1.633c4.081 1.7 7.891 4.285 7.891 9.727 0 7.755-7.21 11.905-14.081 11.905zM702.197 97.959c-1.838.885-5.17 1.701-8.096 1.701-6.395 0-10.545-4.082-10.545-10.477v-18.91c0-.476-.407-.816-.748-.816h-4.488c-.41 0-.545-.34-.477-.884l.408-3.333c0-.271.204-.612.477-.612h4.285c.611 0 .816-.408.816-.952v-4.558c0-.749.136-1.292.884-1.564l5.442-1.973c.815-.271 1.088 0 1.088.816v7.483c0 .408.341.748.749.748h8.57c.272 0 .545.271.545.544v3.742c0 .204-.272.544-.545.544h-8.435c-.477 0-.885.34-.885.816v17.143c0 3.673 1.837 6.394 5.646 6.394 1.429 0 2.788-.408 4.148-.884.546-.204 1.089.067 1.226.748l.544 2.993c.138.611-.202 1.088-.609 1.291zM741.629 73.449c.387 0 .517.258.387.646l-.322 1.681c-.064.388-.194.517-.712.517h-6.462c-1.423 5.041-4.265 16.157-6.98 23.653-3.555 9.759-8.725 18.161-16.285 18.161-3.361 0-5.43-1.68-5.43-4.008 0-1.68 1.163-3.102 2.974-3.102 2.068 0 3.102 1.681 3.23 3.361.13.646.518 1.033 1.294 1.033 2.972 0 6.073-5.429 9.176-17.256l5.817-21.844h-5.559c-.389 0-.517-.258-.452-.646l.323-1.552c.129-.387.259-.646.775-.646h5.429c1.939-5.106 2.973-9.5 7.367-14.283 1.681-1.939 5.688-4.524 9.823-4.524 4.783 0 6.852 2.326 6.852 4.266 0 1.809-1.422 3.102-2.974 3.102-2.456 0-3.232-1.293-3.489-2.973-.13-.646-.646-1.874-2.326-1.874-5.041 0-7.109 9.371-9.049 16.287h6.593zM741.434 90.704c0-5.428 1.811-10.599 5.43-14.541 2.585-2.844 5.688-4.136 9.178-4.136 3.748 0 8.013 2.327 8.013 8.143 0 4.136-1.68 10.857-5.559 15.123-2.454 2.843-5.428 4.265-9.306 4.265-3.813 0-7.756-2.908-7.756-8.854zm14.22-.646c2.391-4.071 4.395-9.435 4.395-11.762 0-1.421-.905-2.908-2.78-2.908-2.649 0-5.105 2.262-8.271 7.562-2.133 3.618-3.426 7.496-3.426 10.082 0 1.745 1.293 3.037 2.715 3.037 2.519-.001 4.845-1.81 7.367-6.011zM769.095 98.912c-.388 0-.646-.258-.517-.517l3.232-10.47c.968-3.232 3.102-9.824 3.102-10.987 0-.517-.517-1.034-1.164-1.034-1.163 0-3.748 2.456-4.653 3.749-.129.258-.388.258-.646.129l-.776-.517c-.129-.13-.129-.388 0-.646 1.163-1.939 4.912-6.592 10.211-6.592 1.939 0 2.586 1.292 2.586 2.456s-1.163 4.524-2.586 8.789l.453.259c1.68-3.619 6.269-11.504 10.534-11.504 1.809 0 3.36 1.292 3.36 3.232 0 1.938-1.552 3.618-2.715 3.618-.773 0-1.421-.129-1.938-.517s-.904-.775-1.81-.775c-1.81 0-5.429 5.299-7.367 9.048-.646 1.422-1.356 3.102-2.068 5.299l-2.197 6.592c-.129.258-.388.388-.776.388h-4.265zM298.572 163.544h-18.164c-.612 0-1.02-.34-1.02-1.021v-1.428c0-.544.271-1.021.952-1.156l3.538-.681c.681-.136 1.224-.816 1.224-2.312v-14.218c0-.476-.34-.815-.816-.815h-15.781c-.477 0-.817.34-.817.815v14.218c0 1.496.544 2.177 1.226 2.312l3.604.681c.68.136.953.612.953 1.156v1.428c0 .682-.408 1.021-1.021 1.021h-18.231c-.612 0-1.021-.34-1.021-1.021v-1.428c0-.544.272-1.021.953-1.156l3.604-.681c.68-.136 1.224-.816 1.224-2.312v-32.721c0-1.496-.544-2.177-1.224-2.313l-3.604-.748c-.681-.135-.953-.611-.953-1.156v-1.36c0-.68.408-1.02 1.021-1.02h18.231c.612 0 1.021.34 1.021 1.02v1.36c0 .545-.273 1.021-.953 1.156l-3.604.748c-.681.137-1.226.817-1.226 2.313v11.564c0 .477.341.816.817.816h15.781c.477 0 .816-.34.816-.816v-11.564c0-1.496-.543-2.177-1.224-2.313l-3.538-.748c-.68-.135-.952-.611-.952-1.156v-1.36c0-.68.408-1.02 1.02-1.02h18.164c.612 0 1.02.34 1.02 1.02v1.36c0 .545-.272 1.021-.952 1.156l-3.537.748c-.68.137-1.225.817-1.225 2.313v32.721c0 1.496.545 2.177 1.225 2.312l3.537.681c.68.136.952.612.952 1.156v1.428c0 .681-.408 1.021-1.02 1.021zM321.499 163.204c-1.224.544-3.536 1.156-5.577 1.156-5.85 0-8.231-3.13-8.231-8.231v-20.68c0-.952-.341-2.108-1.43-2.313l-2.789-.544c-.68-.136-.884-.476-.884-.952v-1.359c0-.613.34-.953.953-1.021l10.748-1.225c.544-.067 1.157.34 1.157.885v26.394c0 2.312.952 3.673 2.992 3.673.885 0 1.565-.203 2.246-.477.341-.135 1.088 0 1.157.953l.272 2.585c.066.543-.205.951-.614 1.156zm-9.999-40.68c-3.469 0-4.762-2.244-4.762-4.49 0-2.04 1.292-4.489 4.898-4.489 3.265 0 4.829 1.769 4.829 4.422 0 2.856-1.904 4.557-4.965 4.557zM336.058 164.292c-3.401 0-7.346-.681-8.912-1.225-.543-.204-1.02-.612-1.02-1.225v-7.414c0-.613.272-.953.953-.953h1.904c.544 0 .885.34 1.02.953l.612 2.381c.476 1.769 2.518 2.721 5.579 2.721 3.469 0 6.462-1.905 6.462-5.102 0-2.789-2.109-4.219-4.966-5.375l-4.15-1.7c-4.081-1.701-7.211-4.149-7.211-9.115 0-7.007 6.735-10.612 12.993-10.612 3.334 0 6.191.545 7.892 1.156.544.205.952.545.952 1.225v6.734c0 .613-.34 1.021-1.02 1.021h-1.565c-.477 0-.817-.272-1.021-.952l-.543-2.109c-.408-1.632-2.108-2.447-4.762-2.447-2.721 0-5.579 1.359-5.579 4.08 0 2.518 2.042 3.605 4.626 4.694l3.946 1.633c4.081 1.7 7.891 4.284 7.891 9.728 0 7.753-7.21 11.903-14.081 11.903zM377.827 162.591c-1.837.885-5.169 1.701-8.095 1.701-6.395 0-10.544-4.082-10.544-10.477v-18.91c0-.477-.408-.816-.748-.816h-4.489c-.409 0-.544-.34-.477-.885l.408-3.333c0-.272.205-.612.477-.612h4.286c.612 0 .816-.408.816-.952v-4.558c0-.749.136-1.293.884-1.564l5.442-1.973c.816-.272 1.089 0 1.089.816v7.482c0 .408.34.748.749.748h8.57c.272 0 .545.271.545.545v3.74c0 .205-.272.545-.545.545h-8.435c-.477 0-.884.34-.884.816v17.143c0 3.673 1.837 6.394 5.646 6.394 1.43 0 2.789-.407 4.15-.884.545-.205 1.088.067 1.225.748l.544 2.993c.134.613-.206 1.09-.614 1.293zM397.964 164.632c-10.748 0-16.597-7.891-16.597-18.095 0-10.271 6.598-19.114 17.278-19.114s16.598 7.822 16.598 17.958c0 10.34-6.599 19.251-17.279 19.251zm.204-32.516c-6.53 0-8.367 6.189-8.367 13.265 0 8.911 3.401 14.489 8.435 14.489 6.462 0 8.572-5.85 8.572-13.197.001-8.843-3.402-14.557-8.64-14.557zM444.429 135.108c-.135.477-.68.953-1.359.681-1.157-.408-2.926-.816-4.422-.816-3.129 0-6.326 2.041-6.326 5.714v16.871c0 1.359.544 2.04 1.157 2.108l4.081.612c.681.068.885.544.885 1.021v1.292c0 .613-.341.953-.953.953h-17.073c-.613 0-.953-.34-.953-.953v-1.292c0-.477.272-.885.885-1.021l3.061-.612c.612-.136 1.156-.749 1.156-2.108v-22.041c0-.952-.339-2.108-1.428-2.312l-3.401-.544c-.68-.136-.884-.544-.884-1.021v-1.359c0-.613.34-.953.952-1.021l10-1.225c.817-.067 1.157.408 1.225 1.225 0 0 .408 3.945.477 4.49h.271c2.79-3.469 5.714-6.055 10-6.055 1.157 0 2.449.204 3.402.612.476.204.612.748.476 1.36l-1.229 5.441zM466.335 163.204c-1.224.544-3.537 1.156-5.578 1.156-5.85 0-8.231-3.13-8.231-8.231v-20.68c0-.952-.34-2.108-1.429-2.313l-2.789-.544c-.681-.136-.885-.476-.885-.952v-1.359c0-.613.341-.953.953-1.021l10.749-1.225c.543-.067 1.155.34 1.155.885v26.394c0 2.312.953 3.673 2.993 3.673.884 0 1.564-.203 2.245-.477.341-.135 1.089 0 1.157.953l.273 2.585c.068.543-.205.951-.613 1.156zm-10-40.68c-3.469 0-4.761-2.244-4.761-4.49 0-2.04 1.292-4.489 4.898-4.489 3.266 0 4.83 1.769 4.83 4.422 0 2.856-1.905 4.557-4.967 4.557zM496.949 161.911c-1.838 1.088-5.783 2.585-10.068 2.585-10.748 0-17.142-7.823-17.142-18.163 0-11.088 8.231-18.707 18.095-18.707 3.809 0 6.598.612 7.618 1.021.476.203.884.68.884 1.224v8.163c0 .612-.34.953-.951.953h-2.041c-.477 0-.885-.273-1.021-.885l-.611-2.857c-.408-1.77-1.837-2.518-4.422-2.518-6.055 0-9.115 5.238-9.115 12.245 0 6.803 2.789 13.605 10.339 13.605 2.449 0 5.239-1.089 6.599-1.837.613-.34 1.293-.068 1.497.611l.817 3.198c.133.614-.07 1.09-.478 1.362zM537.63 145.652c-.477 0-.748-.544-.68-1.155l.203-2.722c.068-.612.477-.815 1.021-.815 6.395 0 11.836-2.382 11.836-9.524 0-6.599-4.626-8.844-10.748-8.844h-3.537c-.408 0-.885.341-.885.817v33.536c0 1.496.544 2.245 1.225 2.312l4.627.681c.679.067.951.612.951 1.156v1.428c0 .682-.408 1.021-1.02 1.021h-19.253c-.611 0-1.02-.34-1.02-1.021v-1.428c0-.544.272-1.021.953-1.156l3.604-.681c.68-.136 1.225-.816 1.225-2.312v-32.721c0-1.496-.545-2.177-1.225-2.313l-3.604-.748c-.681-.135-.953-.611-.953-1.156v-1.36c0-.68.408-1.02 1.02-1.02h20c10.476 0 17.687 3.401 17.687 13.061.001 10.407-10.475 15.305-21.427 14.964zM589.128 135.108c-.135.477-.68.953-1.36.681-1.155-.408-2.925-.816-4.421-.816-3.129 0-6.326 2.041-6.326 5.714v16.871c0 1.359.543 2.04 1.156 2.108l4.082.612c.68.068.884.544.884 1.021v1.292c0 .613-.341.953-.952.953h-17.074c-.613 0-.953-.34-.953-.953v-1.292c0-.477.273-.885.885-1.021l3.061-.612c.612-.136 1.157-.749 1.157-2.108v-22.041c0-.952-.341-2.108-1.429-2.312l-3.4-.544c-.681-.136-.885-.544-.885-1.021v-1.359c0-.613.34-.953.951-1.021l10-1.225c.816-.067 1.156.408 1.225 1.225 0 0 .408 3.945.477 4.49h.271c2.79-3.469 5.715-6.055 10-6.055 1.156 0 2.449.204 3.401.612.477.204.612.748.477 1.36l-1.227 5.441zM605.525 148.714c-1.564 0-2.992 0-4.286-.136-.543-.068-.815.067-.747.748.408 5.782 5.51 9.252 10.748 9.252 3.264 0 6.055-1.157 7.618-1.973.681-.341 1.293.136 1.429.68l.748 3.266c.137.544-.136 1.088-.544 1.36-2.585 1.429-6.53 2.585-10.407 2.585-11.904 0-17.823-7.687-17.823-18.571 0-11.496 8.231-18.502 17.143-18.502 6.53 0 12.177 4.013 12.177 10.407-.001 7.687-8.301 10.884-16.056 10.884zm2.789-16.802c-6.054 0-8.23 6.734-8.163 11.224 0 .68.068.816.749.885.952.068 2.107.136 3.265.136 4.762 0 9.728-1.632 9.728-6.599-.001-3.198-2.586-5.646-5.579-5.646zM638.519 164.292c-3.4 0-7.346-.681-8.91-1.225-.545-.204-1.021-.612-1.021-1.225v-7.414c0-.613.272-.953.952-.953h1.904c.545 0 .885.34 1.021.953l.611 2.381c.477 1.769 2.518 2.721 5.578 2.721 3.47 0 6.463-1.905 6.463-5.102 0-2.789-2.109-4.219-4.966-5.375l-4.149-1.7c-4.082-1.701-7.211-4.149-7.211-9.115 0-7.007 6.734-10.612 12.992-10.612 3.334 0 6.191.545 7.891 1.156.546.205.953.545.953 1.225v6.734c0 .613-.341 1.021-1.02 1.021h-1.564c-.477 0-.817-.272-1.021-.952l-.543-2.109c-.408-1.632-2.109-2.447-4.763-2.447-2.722 0-5.579 1.359-5.579 4.08 0 2.518 2.042 3.605 4.627 4.694l3.945 1.633c4.081 1.7 7.891 4.284 7.891 9.728.001 7.753-7.21 11.903-14.081 11.903zM671.173 148.714c-1.564 0-2.993 0-4.285-.136-.545-.068-.816.067-.748.748.408 5.782 5.51 9.252 10.747 9.252 3.267 0 6.056-1.157 7.62-1.973.679-.341 1.292.136 1.428.68l.749 3.266c.136.544-.138 1.088-.545 1.36-2.585 1.429-6.53 2.585-10.408 2.585-11.905 0-17.821-7.687-17.821-18.571 0-11.496 8.23-18.502 17.142-18.502 6.53 0 12.177 4.013 12.177 10.407-.001 7.687-8.301 10.884-16.056 10.884zm2.789-16.802c-6.054 0-8.23 6.734-8.163 11.224 0 .68.067.816.749.885.952.068 2.107.136 3.265.136 4.762 0 9.728-1.632 9.728-6.599 0-3.198-2.585-5.646-5.579-5.646zM717.706 135.108c-.136.477-.681.953-1.36.681-1.157-.408-2.926-.816-4.422-.816-3.13 0-6.327 2.041-6.327 5.714v16.871c0 1.359.545 2.04 1.158 2.108l4.081.612c.68.068.884.544.884 1.021v1.292c0 .613-.341.953-.953.953h-17.073c-.613 0-.953-.34-.953-.953v-1.292c0-.477.272-.885.885-1.021l3.062-.612c.612-.136 1.155-.749 1.155-2.108v-22.041c0-.952-.34-2.108-1.428-2.312l-3.401-.544c-.681-.136-.884-.544-.884-1.021v-1.359c0-.613.34-.953.951-1.021l10-1.225c.817-.067 1.156.408 1.226 1.225 0 0 .407 3.945.476 4.49h.271c2.79-3.469 5.714-6.055 9.999-6.055 1.158 0 2.45.204 3.402.612.477.204.612.748.477 1.36l-1.226 5.441zM758.386 132.253l-1.088.407c-.748.272-1.36.815-1.973 2.448l-10.816 28.299c-.136.341-.34.545-.543.545h-6.734c-.206 0-.41-.204-.546-.545l-11.155-28.57c-.612-1.633-1.36-1.973-1.905-2.177l-1.089-.407c-.611-.205-.884-.546-.884-1.021v-1.292c0-.612.341-.952.953-.952h15.305c.612 0 .953.34.953.952v1.292c0 .476-.272.885-.953 1.021l-2.721.543c-.749.137-1.565.68-1.089 2.109l6.123 17.891c.544 1.564.884 2.856 1.089 4.217h.135c.205-1.225.749-2.992 1.158-4.149l6.121-17.958c.477-1.43-.341-1.973-1.089-2.109l-2.721-.543c-.68-.137-.951-.546-.951-1.021v-1.292c0-.612.339-.952.951-.952h13.401c.612 0 .952.34.952.952v1.292c.001.474-.27.815-.884 1.02zM792.742 163.271c-1.224.477-3.877 1.021-5.918 1.021-3.536 0-4.966-2.245-5.17-4.762h-.272c-2.516 2.585-5.509 4.762-10.543 4.762-5.783 0-9.729-4.15-9.729-9.592 0-9.048 8.437-12.857 19.048-12.788.543 0 .681-.613.681-.952v-1.564c0-4.354-3.334-6.26-7.483-6.26-2.925 0-5.646.885-7.551 1.973-.68.408-1.292.204-1.496-.611l-.749-3.47c-.136-.612 0-1.156.612-1.36 2.993-1.225 7.075-2.041 11.225-2.041 8.504 0 12.925 3.945 12.925 12.653v16.53c0 1.292.749 2.107 1.905 2.107.681 0 1.088-.135 1.7-.339.543-.137 1.02.136 1.089.815l.339 2.722c.067.681-.204 1.021-.613 1.156zm-11.904-16.19c0-.476-.204-.611-.681-.611-8.435 0-11.428 3.129-11.428 6.938 0 3.198 2.448 5.307 5.781 5.307 4.081 0 6.327-2.993 6.327-5.781v-5.853zM817.915 162.591c-1.838.885-5.17 1.701-8.096 1.701-6.394 0-10.544-4.082-10.544-10.477v-18.91c0-.477-.408-.816-.747-.816h-4.49c-.408 0-.544-.34-.477-.885l.409-3.333c0-.272.203-.612.477-.612h4.284c.612 0 .816-.408.816-.952v-4.558c0-.749.137-1.293.884-1.564l5.442-1.973c.816-.272 1.088 0 1.088.816v7.482c0 .408.341.748.749.748h8.571c.271 0 .544.271.544.545v3.74c0 .205-.272.545-.544.545h-8.436c-.476 0-.885.34-.885.816v17.143c0 3.673 1.838 6.394 5.646 6.394 1.43 0 2.789-.407 4.149-.884.545-.205 1.089.067 1.226.748l.543 2.993c.138.613-.201 1.09-.609 1.293zM838.935 163.204c-1.223.544-3.535 1.156-5.577 1.156-5.85 0-8.23-3.13-8.23-8.231v-20.68c0-.952-.341-2.108-1.429-2.313l-2.789-.544c-.681-.136-.885-.476-.885-.952v-1.359c0-.613.342-.953.952-1.021l10.748-1.225c.545-.067 1.156.34 1.156.885v26.394c0 2.312.953 3.673 2.994 3.673.884 0 1.563-.203 2.245-.477.341-.135 1.088 0 1.156.953l.272 2.585c.069.543-.203.951-.613 1.156zm-9.999-40.68c-3.469 0-4.762-2.244-4.762-4.49 0-2.04 1.293-4.489 4.898-4.489 3.266 0 4.83 1.769 4.83 4.422.001 2.856-1.904 4.557-4.966 4.557zM858.936 164.632c-10.747 0-16.598-7.891-16.598-18.095 0-10.271 6.599-19.114 17.278-19.114 10.681 0 16.599 7.822 16.599 17.958 0 10.34-6.598 19.251-17.279 19.251zm.204-32.516c-6.53 0-8.366 6.189-8.366 13.265 0 8.911 3.4 14.489 8.435 14.489 6.463 0 8.571-5.85 8.571-13.197 0-8.843-3.402-14.557-8.64-14.557zM919.891 163.544h-16.054c-.612 0-.952-.34-.952-.953v-1.292c0-.477.272-.885.884-1.021l3.062-.612c.612-.136 1.155-.749 1.155-2.108v-16.395c0-5.034-2.856-7.688-7.21-7.688-4.217 0-7.551 2.586-7.551 6.463v17.619c0 1.359.545 1.973 1.157 2.108l3.061.612c.612.136.885.544.885 1.021v1.292c0 .613-.341.953-.953.953h-16.053c-.612 0-.953-.34-.953-.953v-1.292c0-.477.271-.885.884-1.021l3.062-.612c.612-.136 1.156-.749 1.156-2.108v-22.108c0-.952-.34-2.108-1.429-2.313l-3.332-.544c-.681-.136-.886-.544-.886-1.021v-1.291c0-.613.34-.953.952-1.021l10.068-1.225c.749-.067 1.089.34 1.156 1.021l.409 3.741h.271c2.993-2.992 6.938-5.102 11.836-5.102 5.987 0 11.226 3.605 11.226 10.544v19.319c0 1.359.543 1.973 1.155 2.108l3.062.612c.612.136.884.544.884 1.021v1.292c0 .614-.34.954-.952.954z"/>
</g>
<g fill="#00689E">
<path d="M928.714 117.565c-5.118 0-9.186 4.223-9.186 9.238v.055c0 5.015 4.009 9.182 9.186 9.182 5.12 0 9.188-4.221 9.188-9.236v-.052c0-5.017-4.015-9.187-9.188-9.187zm8.132 9.239c0 4.486-3.534 8.236-8.132 8.236-4.646 0-8.13-3.695-8.13-8.182v-.055c0-4.486 3.54-8.234 8.13-8.234 4.646 0 8.132 3.697 8.132 8.183v.052zM931.275 128.059c1.15-.452 1.903-1.456 1.903-2.909 0-2.154-1.607-3.107-3.865-3.107h-4.406v9.225h2.602v-2.758h1.107l1.853 2.758h3.013l-2.207-3.209zm-2.106-1.606h-1.661v-2.206h1.661c.898 0 1.4.4 1.4 1.102.001.652-.501 1.104-1.4 1.104z"/>
</g>
</svg>

