<svg width="261" height="52" viewBox="0 0 261 52" fill="#dc0228" xmlns="http://www.w3.org/2000/svg">
<path d="M221.9,12.7c3.6-3.6,7.9-5.4,13.1-5.4c5.2,0,9.6,1.8,13.1,5.4c3.5,3.6,5.3,8,5.3,13.3c0,5.2-1.8,9.7-5.4,13.3c-3.6,3.6-8,5.4-13.2,5.4c-4.8,0-9.1-1.8-12.7-5.3c-3.7-3.5-5.5-8.1-5.5-13.6C216.6,20.7,218.3,16.3,221.9,12.7 M217.4,45.1c5.1,4.4,10.9,6.7,17.3,6.7c7.3,0,13.5-2.5,18.6-7.5c5.1-5,7.7-11.1,7.7-18.2c0-7.1-2.5-13.2-7.6-18.3c-5.1-5.1-11.1-7.6-18.2-7.6c-7.2,0-13.3,2.5-18.4,7.5c-5.1,5-7.7,11-7.7,18C209,33.8,211.8,40.2,217.4,45.1 M195,0.2c-8.2,0-14.9,3-20,9.1c-4.2,5-6.3,10.6-6.3,16.9c0,7.1,2.5,13.1,7.5,18.1c5,5,11.1,7.4,18.2,7.4c4.7,0,9.2-1.2,13.5-3.7v-9.1c-1.2,1-2.4,1.9-3.5,2.6c-1.1,0.7-2.2,1.3-3.2,1.7c-1.8,0.9-4.1,1.3-6.7,1.3c-5.1,0-9.4-1.8-13-5.4c-3.5-3.6-5.3-8-5.3-13.2c0-5.3,1.8-9.8,5.3-13.4c3.5-3.7,7.8-5.5,12.9-5.5c4.6,0,9.1,1.8,13.5,5.4V3.8C203.8,1.4,199.5,0.2,195,0.2 M157,50.9h7.5V1.2H157V50.9z M153.5,8.2V1.2h-30.4v7.1h11.4v42.7h7.5V8.2H153.5z M112.2,50.9h7.5V1.2h-7.5V50.9z M86.5,1.2v49.8h22.1v-7.1H94V1.2H86.5z M43.2,12.7c3.6-3.6,7.9-5.4,13.1-5.4c5.2,0,9.6,1.8,13.1,5.4c3.5,3.6,5.3,8,5.3,13.3c0,5.2-1.8,9.7-5.4,13.3c-3.6,3.6-8,5.4-13.2,5.4c-4.8,0-9.1-1.8-12.7-5.3c-3.7-3.5-5.5-8.1-5.5-13.6C37.9,20.7,39.7,16.3,43.2,12.7 M38.7,45.1c5.1,4.4,10.9,6.7,17.3,6.7c7.3,0,13.5-2.5,18.6-7.5c5.1-5,7.7-11.1,7.7-18.2c0-7.1-2.5-13.2-7.6-18.3c-5.1-5.1-11.1-7.6-18.2-7.6c-7.2,0-13.3,2.5-18.4,7.5c-5.1,5-7.7,11-7.7,18C30.3,33.8,33.1,40.2,38.7,45.1 M7.5,8.1H10c7.1,0,10.7,2.6,10.7,7.7c0,5.3-3.4,8-10.3,8H7.5V8.1z M11,30.7c5.2,0,9.3-1.3,12.3-4c3.1-2.7,4.6-6.3,4.6-10.8c0-4.3-1.4-7.8-4.3-10.6C22,3.7,20.1,2.6,17.9,2c-2.1-0.6-5.3-0.9-9.4-0.9H0v49.8h7.5V30.7H11z"></path>
</svg>
