<svg width="139" height="45" viewBox="0 0 139 45" xmlns="http://www.w3.org/2000/svg">
<path d="M63.834 21.647c0 4.31-3.265 7.138-8.446 7.138-1.916 0-4.188-.354-5.607-.92-.639-.211-.781-.352-.781-.776v-2.262c0-.282.142-.424.426-.424.142 0 .284.07.639.283 1.277.848 3.407 1.484 5.181 1.484 2.768 0 4.543-1.555 4.543-3.887 0-.636-.142-1.272-.355-1.767-.355-.706-.781-1.13-2.059-2.049l-4.471-3.11c-.781-.564-1.42-1.06-1.917-1.624-.922-1.06-1.561-2.615-1.561-4.24 0-4.1 2.91-6.643 7.807-6.643 1.846 0 3.975.353 5.395 1.06.426.212.426.212.426.706v2.191c0 .424-.071.565-.355.565-.213 0-.284-.07-.64-.282a8.426 8.426 0 0 0-4.755-1.484c-2.626 0-4.258 1.342-4.258 3.533 0 1.343.568 2.19 2.13 3.25l4.684 3.18c2.839 1.768 3.974 3.534 3.974 6.078ZM74.978 9.14c-1.42 0-2.768.283-4.33.919-.497.212-.71.282-.922.282l-.142-.07V2.426a.559.559 0 0 0-.568-.566h-2.413c-.284 0-.568.283-.568.566v25.44c0 .283.284.565.568.565h2.413a.559.559 0 0 0 .568-.565V14.227c0-1.06.425-1.625 1.561-2.05a7.87 7.87 0 0 1 2.626-.423c2.981 0 4.4 1.272 4.4 4.028v12.155c0 .282.285.565.569.565h2.413c.284 0 .568-.283.568-.565V15.71c.07-4.099-2.555-6.572-6.743-6.572Zm25.552 8.622v1.06a.559.559 0 0 1-.568.565H87.257v.212c0 3.887 2.484 6.501 6.246 6.501 1.349 0 3.123-.565 4.614-1.413l.284-.141c.142-.142.355-.142.496-.142.284 0 .568.283.568.636v1.484c0 .636-.142.778-.851 1.06-1.633.778-3.762 1.202-5.679 1.202-5.678 0-9.227-3.746-9.227-9.611 0-6.148 3.336-10.035 8.66-10.035 4.968 0 8.162 3.392 8.162 8.622Zm-3.549-1.485c0-2.685-1.916-4.593-4.826-4.593-2.84 0-4.898 2.05-4.898 4.947h9.724v-.354Zm22.5-13.85v25.51c0 .283-.284.566-.568.566h-1.987a.635.635 0 0 1-.639-.636v-.212h-.071c-.284 0-.497.07-.781.212l-.355.141c-1.135.566-2.484.848-3.903.848-5.608 0-9.156-3.816-9.156-9.681 0-5.865 3.832-9.964 9.227-9.964 1.348 0 2.768.282 3.549.848l.354.282c.284.142.355.212.639.142h.071V2.426c0-.283.284-.566.568-.566h2.413c.426 0 .639.283.639.566Zm-3.549 11.801c0-.918-.213-1.343-.852-1.767-.78-.424-1.845-.706-2.981-.706-1.916 0-3.549.636-4.684 1.908-1.207 1.342-1.633 2.756-1.633 5.441 0 4.31 2.343 6.926 6.246 6.926.781 0 1.562-.142 2.201-.283 1.277-.424 1.703-.919 1.703-1.979v-9.54ZM139 2.426v25.51c0 .283-.284.566-.568.566h-1.987a.635.635 0 0 1-.639-.636v-.212h-.071c-.284 0-.497.07-.781.212l-.355.141c-1.135.566-2.484.848-3.903.848-5.608 0-9.157-3.816-9.157-9.681 0-5.865 3.833-9.964 9.228-9.964 1.348 0 2.768.282 3.548.848l.355.282c.284.142.355.212.639.142h.071V2.426c0-.283.284-.566.568-.566h2.413c.426 0 .639.283.639.566Zm-3.549 11.801c0-.918-.213-1.343-.852-1.767-.78-.424-1.845-.706-2.981-.706-1.916 0-3.549.636-4.684 1.908-1.207 1.342-1.633 2.756-1.633 5.441 0 4.31 2.343 6.926 6.246 6.926.781 0 1.562-.142 2.201-.283 1.277-.424 1.703-.919 1.703-1.979v-9.54ZM52.194 34.791l-2.555 6.855h1.703l.426-1.201h2.697l.426 1.201h1.916l-2.555-6.855h-2.058Zm0 4.382.568-1.626c.142-.282.213-.706.284-.989.07.283.213.707.355.99l.567 1.625h-1.774Zm16.396-1.06c0-2.332-1.49-3.463-3.478-3.463-1.916 0-3.691 1.413-3.691 3.604 0 2.05 1.136 3.392 3.336 3.463v.848c1.42-.212 2.058.706 3.762.353v-1.484c-.78.141-1.278 0-1.846-.141 1.136-.566 1.917-1.626 1.917-3.18Zm-3.62 2.12c-1.136 0-1.703-.848-1.703-2.05 0-1.342.851-2.049 1.774-2.049 1.065 0 1.774.707 1.774 2.05-.07 1.413-.922 2.049-1.845 2.049Zm13.699-5.442h1.703v4.24c0 1.555-.994 2.756-3.265 2.756-2.13 0-3.123-.989-3.123-2.544v-4.452h1.704v4.099c0 1.06.496 1.484 1.49 1.484 1.065 0 1.49-.565 1.49-1.555v-4.028Zm9.44 0-2.555 6.855h1.703l.426-1.201h2.697l.426 1.201h1.916l-2.555-6.855H88.11Zm0 4.382.639-1.696c.141-.283.212-.707.283-.99.071.283.213.707.355.99l.568 1.625H88.11v.07Zm13.273-.495c.993-.212 1.703-.919 1.703-1.979 0-1.342-.994-1.978-2.697-1.978-.852 0-1.916 0-2.484.07v6.855h1.703v-2.685h.071l1.704 2.685h2.058l-1.491-2.19c-.213-.354-.425-.637-.567-.778Zm-1.207-.848h-.568v-1.767h.497c.71 0 1.136.283 1.136.848 0 .495-.426.919-1.065.919Zm8.659-3.039h1.704v6.855h-1.704v-6.855Zm12.35 0h1.704v4.24c0 1.555-.994 2.756-3.265 2.756-2.129 0-3.123-.989-3.123-2.544v-4.452h1.703v4.099c0 1.06.497 1.484 1.491 1.484 1.065 0 1.49-.565 1.49-1.555v-4.028Zm16.751 6.855h-1.845l-.497-3.321a24.594 24.594 0 0 0-.213-1.484 9.378 9.378 0 0 1-.355 1.342l-1.136 3.463h-1.774l-.994-3.18c-.142-.495-.284-1.13-.426-1.625 0 .494-.07.989-.141 1.554l-.426 3.18h-1.633l1.065-6.854h2.129l1.136 3.462c.142.354.213.848.355 1.272.071-.494.213-.848.355-1.272l1.135-3.533h2.201l1.064 6.996Z" fill="#055797"/>
<path d="M23.06 28.419c-1.207-2.332-2.94-5.64-5.803-5.565-2.864.15-3.09 2.105-3.09 2.105 1.13-.15 3.542.076 4.145 3.159.753 4.287-2.412 7.144-5.803 7.52-3.768.451-8.44-3.008-8.515-7.595-.075-4.588 3.843-10.68 11.002-10.754 5.727-.076 10.4 2.857 14.016 6.317 3.542 3.459 3.693 3.91 5.124 3.985 1.206.076 1.884-1.504 2.261-2.481.377-.978.603-2.331.603-3.61C37 11.272 28.71 3 18.462 3 8.29 3 0 11.272 0 21.5S8.29 40 18.538 40c4.295 0 8.213-1.429 11.378-3.91-1.13-.377-2.11-1.129-3.09-1.956-1.355-1.203-2.561-3.384-3.767-5.715Z" fill="#21B7CB"/>
</svg>