<svg width="150" height="18" viewBox="0 0 150 18" fill="#18191e" xmlns="http://www.w3.org/2000/svg">
<path d="M7.42279 18C11.1596 18 13.7779 16.05 13.7779 12.775V12.725C13.7779 9.825 11.8205 8.5 8.05831 7.6C4.65196 6.8 3.8385 6.2 3.8385 4.85V4.8C3.8385 3.65 4.90616 2.725 6.73644 2.725C8.36335 2.725 9.96485 3.35 11.5663 4.525L13.2441 2.2C11.4392 0.775001 9.38018 0 6.78728 0C3.25383 0 0.711775 2.075 0.711775 5.075V5.125C0.711775 8.35 2.8471 9.45 6.63476 10.35C9.93943 11.1 10.6512 11.775 10.6512 13.025V13.075C10.6512 14.4 9.43102 15.275 7.49906 15.275C5.28747 15.275 3.58429 14.45 1.88112 13L0 15.2C2.13532 17.075 4.7028 18 7.42279 18Z"/>
<path d="M22.2175 17.75H25.3697V3.1H31.013V0.25H16.5742V3.1H22.2175V17.75Z"/>
<path d="M31.2823 17.75H34.4853L36.3156 13.525H44.7298L46.5347 17.75H49.8393L42.0098 0.124999H39.1119L31.2823 17.75ZM37.4595 10.8L40.51 3.8L43.5859 10.8H37.4595Z"/>
<path d="M53.6534 17.75H56.7293V5.3L66.5416 17.75H69.1599V0.25H66.084V12.35L56.5513 0.25H53.6534V17.75Z"/>
<path d="M74.4992 17.75H81.134C86.7265 17.75 90.5904 13.925 90.5904 9V8.95C90.5904 4.025 86.7265 0.25 81.134 0.25H74.4992V17.75ZM77.626 14.95V3.05H81.134C84.8708 3.05 87.3112 5.575 87.3112 9V9.05C87.3112 12.475 84.8708 14.95 81.134 14.95H77.626Z"/>
<path d="M92.4048 17.75H95.6078L97.4381 13.525H105.852L107.657 17.75H110.962L103.132 0.124999H100.234L92.4048 17.75ZM98.582 10.8L101.632 3.8L104.708 10.8H98.582Z"/>
<path d="M114.776 17.75H117.903V11.65H121.817L126.19 17.75H129.876L125.071 11.125C127.562 10.425 129.316 8.7 129.316 5.825V5.775C129.316 4.25 128.783 2.95 127.842 2C126.698 0.900001 124.944 0.25 122.707 0.25H114.776V17.75ZM117.903 8.925V3.05H122.453C124.766 3.05 126.139 4.075 126.139 5.95V6C126.139 7.775 124.715 8.925 122.478 8.925H117.903Z"/>
<path d="M133.909 17.75H140.544C146.136 17.75 150 13.925 150 9V8.95C150 4.025 146.136 0.25 140.544 0.25H133.909V17.75ZM137.036 14.95V3.05H140.544C144.28 3.05 146.721 5.575 146.721 9V9.05C146.721 12.475 144.28 14.95 140.544 14.95H137.036Z"/>
</svg>
