<svg width="335" height="47" viewBox="0 0 335 47" fill="none" xmlns="http://www.w3.org/2000/svg">
<path d="M291.912 8.77783L291.924 8.77104C292.706 8.39294 293.511 8.04653 294.337 7.72956C293.513 7.41259 292.708 7.06392 291.924 6.68809L291.912 6.68129C288.407 4.98324 285.512 2.73501 283.3 0C281.088 2.73501 278.191 4.98097 274.688 6.68129L274.677 6.68809C273.894 7.06619 273.089 7.41259 272.264 7.72956C273.087 8.04653 273.892 8.3952 274.677 8.77104L274.688 8.77783C278.193 10.4759 281.088 12.7241 283.3 15.4591C285.512 12.7241 288.409 10.4782 291.912 8.77783Z" fill="url(#paint0_linear_4746_174)"/>
<path d="M323.769 12.9639V39.4875C323.769 40.0377 323.328 40.3751 322.882 40.3751C322.548 40.3751 322.227 40.2075 322.08 39.8249L311.498 12.9842H296.429L283.298 46.2798H294.954L297.523 39.2091H310.423L312.929 46.2798H335V12.9639H323.767H323.769ZM300.943 30.8591L303.98 22.5228L306.974 30.8591H300.945H300.943Z" fill="url(#paint1_linear_4746_174)"/>
<path d="M63.8876 12.9641H30.9001V18.4907C30.9001 18.7013 30.6264 18.7647 30.5224 18.5745C28.3716 14.6056 23.2491 12.2441 16.401 12.2441C7.18959 12.2441 1.07878 16.0659 1.07878 21.9299C1.07878 31.5092 9.69995 32.734 15.7293 33.8502C18.9114 34.4842 21.3562 35.0728 21.3562 37.3097C21.3562 38.7429 19.8816 40.0131 17.5816 40.0131C14.0218 40.0131 11.5929 38.5799 11.4685 35.2879H0C0 42.3586 6.86844 47 17.4097 47C26.6641 47 32.732 42.7594 32.732 36.2819C32.732 26.8701 22.9325 26.3856 16.9438 25.0747C14.4787 24.5245 12.6242 23.8521 12.5382 21.8257C12.4546 20.2454 13.9291 19.2107 16.2721 19.2107C18.6151 19.2107 20.2774 20.139 20.4448 22.797H41.7761V46.2619H53.0116V22.8196H63.8876V12.9664V12.9641Z" fill="#0D021C"/>
<path d="M121.61 31.2825L107.832 12.9639H96.5968V42.0188C96.5968 42.4603 95.9839 42.569 95.8369 42.1659L84.3277 12.9639H69.2587L56.1279 46.2594H67.7842L70.333 39.1887H83.2331L85.7389 46.2594H107.81V27.8592L121.657 46.2594H132.807V12.9639H121.612V31.2825H121.61ZM73.1848 31.2803L76.8305 21.2368L80.4332 31.2803H73.1848Z" fill="#0D021C"/>
<path d="M150.599 12.9593V12.9638H135.53V46.2594H150.599C163.142 46.2594 171.358 39.6347 171.358 29.5663C171.358 19.498 163.137 12.957 150.599 12.957V12.9593ZM150.599 38.369V38.3487H146.784V20.8994H150.599C156.269 20.8994 160.001 24.3159 160.001 29.5505C160.001 34.785 156.267 38.369 150.599 38.369Z" fill="#0D021C"/>
<path d="M235.544 32.3518H235.565V32.3563C238.747 30.4568 240.456 27.5021 240.456 23.7687C240.456 17.2481 235.144 12.9645 226.168 12.9645H208.502V42.1666C208.502 42.5651 207.953 42.6715 207.783 42.2934L196.231 12.96H181.162L168.031 46.2555H179.667L182.236 39.1848H195.136L197.665 46.2555H219.733V34.5434H222.918C233.353 34.5434 226.561 41.8881 231.055 46.2555H242.202V46.0246C239.231 43.0065 242.245 35.2204 235.542 32.3495L235.544 32.3518ZM185.086 31.2786L188.729 21.2352L192.332 31.2786H185.086ZM226.039 26.6644V26.6599H219.736V20.9001H225.765C227.746 20.9001 229.094 22.0185 229.094 23.7913C229.094 25.5641 227.871 26.6622 226.036 26.6622L226.039 26.6644Z" fill="#0D021C"/>
<path d="M258.5 12.9593V12.9638H243.431V46.2594H258.5C271.042 46.2594 279.259 39.6347 279.259 29.5663C279.259 19.498 271.038 12.957 258.5 12.957V12.9593ZM258.5 38.369V38.3487H254.682V20.8994H258.5C264.167 20.8994 267.901 24.3159 267.901 29.5505C267.901 34.785 264.167 38.369 258.5 38.369Z" fill="#0D021C"/>
<defs>
<linearGradient id="paint0_linear_4746_174" x1="272.261" y1="7.72956" x2="294.337" y2="7.72956" gradientUnits="userSpaceOnUse">
<stop stop-color="#F384D7"/>
<stop offset="1" stop-color="#F982BD"/>
</linearGradient>
<linearGradient id="paint1_linear_4746_174" x1="283.298" y1="29.623" x2="335" y2="29.623" gradientUnits="userSpaceOnUse">
<stop stop-color="#F384D7"/>
<stop offset="0.41" stop-color="#FC82B0"/>
<stop offset="1" stop-color="#FE9C97"/>
</linearGradient>
</defs>
</svg>
