<svg width="200" height="41" viewBox="0 0 200 41" fill="none" xmlns="http://www.w3.org/2000/svg">
<path d="M198.152 3.72749C198.152 3.22028 198.096 2.54402 198.096 1.9241V1.81139L197.983 1.86775C197.814 1.9241 197.025 1.9241 196.18 1.9241H193.7C193.193 1.9241 192.742 1.9241 192.178 1.86775C192.066 1.9241 192.066 2.09317 192.066 2.14953C192.066 2.26224 192.066 2.37495 192.178 2.43131L192.46 2.48766C193.136 2.54402 193.193 2.65673 193.193 4.06562V8.85585C193.193 10.2647 193.136 10.3211 192.46 10.4338L192.066 10.4902C192.009 10.5465 191.953 10.7156 192.009 10.7719C192.009 10.8847 192.066 10.941 192.122 10.9974C192.742 10.9974 193.193 10.941 193.813 10.941C194.376 10.941 194.827 10.941 195.56 10.9974C195.672 10.941 195.672 10.8283 195.672 10.7156C195.672 10.6029 195.672 10.4902 195.56 10.4902L195.052 10.4338C194.376 10.3775 194.32 10.2647 194.32 8.85585V6.99611C194.32 6.71434 194.32 6.71434 194.658 6.71434H195.56C196.011 6.71434 196.405 6.71434 196.574 6.77069C196.743 6.82705 196.856 6.93976 196.912 7.22154L197.025 7.78509C197.138 7.89781 197.419 7.89781 197.532 7.78509V7.72874C197.532 7.61603 197.532 7.3906 197.532 7.22154C197.532 6.99611 197.476 6.71434 197.476 6.43256C197.476 6.15078 197.476 5.869 197.532 5.64358C197.532 5.41816 197.532 5.24909 197.532 5.08002V5.02367C197.476 4.91096 197.307 4.91095 197.25 4.91095C197.138 4.91095 197.025 4.96731 196.969 5.02367L196.856 5.58722C196.8 5.92536 196.687 5.92536 196.574 5.98171C196.405 6.03807 196.011 6.03807 195.447 6.03807H194.545C194.207 6.03807 194.207 6.03807 194.207 5.75629V2.93851C194.207 2.48766 194.207 2.48766 194.489 2.48766H195.278C195.841 2.48766 196.292 2.48766 196.574 2.54402C197.138 2.71308 197.307 3.05122 197.419 3.72749V3.78384C197.476 3.8402 197.532 3.8402 197.645 3.8402C197.983 3.89655 198.096 3.8402 198.152 3.72749ZM189.192 6.31985C189.192 4.06562 187.726 1.64233 184.458 1.64233C181.696 1.64233 179.611 3.72749 179.611 6.43256C179.611 8.74314 181.302 11.0537 184.458 11.0537C187.106 11.1101 189.192 9.08127 189.192 6.31985ZM187.614 6.77069C187.614 9.53212 185.979 10.4902 184.57 10.4902C181.809 10.4902 181.076 7.72874 181.076 6.03807C181.076 3.27664 182.767 2.26224 184.176 2.26224C186.712 2.26224 187.614 4.68553 187.614 6.77069ZM176.681 29.5384C176.681 35.2867 180.964 40.415 188.064 40.415C194.264 40.415 199.166 35.6811 199.166 29.2002C199.166 23.5647 195.447 18.2109 188.064 18.2109C181.527 18.2109 176.681 23.1138 176.681 29.5384ZM179.893 28.524C179.893 21.4795 184.232 19.2253 187.557 19.2253C193.7 19.2253 196.011 24.9172 196.011 30.2146C196.011 36.5265 192.347 39.4006 188.515 39.4006C182.203 39.4006 179.893 33.2579 179.893 28.524ZM172.848 2.37495C172.905 2.31859 172.961 2.20588 172.961 2.09317C172.961 1.98046 172.905 1.9241 172.848 1.86775H172.792C171.834 1.9241 171.27 1.9241 170.256 1.86775C170.2 1.9241 170.143 1.98046 170.143 2.09317C170.143 2.20588 170.143 2.31859 170.256 2.37495L170.538 2.43131C170.82 2.48766 170.932 2.54402 170.989 2.54402C170.932 2.71308 170.481 3.61477 170.2 4.12198L170.143 4.23469C169.805 4.8546 169.467 5.53087 168.96 6.31985C168.622 5.69993 168.284 4.96731 167.945 4.29104C167.833 4.00926 167.664 3.78384 167.551 3.50206C167.438 3.333 167.156 2.60037 167.156 2.54402C167.156 2.54402 167.213 2.48766 167.607 2.43131L167.833 2.37495C167.889 2.31859 167.945 2.14953 167.889 2.03682C167.889 1.9241 167.833 1.86775 167.72 1.86775C167.382 1.86775 166.931 1.9241 166.311 1.9241C165.691 1.9241 165.184 1.9241 164.79 1.86775H164.733C164.677 1.9241 164.62 1.98046 164.62 2.09317C164.62 2.20588 164.62 2.31859 164.677 2.37495L165.071 2.43131C165.409 2.48766 165.578 2.54402 166.029 3.38935L167.607 6.48891C168.002 7.22154 168.002 7.3906 168.002 8.12323V8.7995C168.002 10.2647 167.945 10.3211 167.269 10.3775L166.818 10.4338C166.762 10.4902 166.706 10.6592 166.762 10.7156C166.762 10.8283 166.818 10.8847 166.875 10.941C167.607 10.941 168.058 10.8847 168.622 10.8847C169.185 10.8847 169.636 10.8847 170.425 10.941C170.481 10.8847 170.538 10.8283 170.538 10.7156C170.538 10.6029 170.538 10.4902 170.481 10.4338L169.918 10.3775C169.298 10.3211 169.185 10.2084 169.185 8.7995V8.12323C169.185 7.10883 169.242 6.99611 169.805 6.03807L170.651 4.57282C170.707 4.46011 170.82 4.29104 170.876 4.17833C171.383 3.27664 171.778 2.60037 172.341 2.48766L172.848 2.37495ZM168.171 18.7181C167.607 18.6054 165.917 18.2109 164.113 18.2109C159.267 18.2109 156.111 19.7325 153.969 21.9867C151.997 24.1282 151.095 26.8333 151.095 29.5947C151.095 32.4125 152.109 34.9485 154.026 36.8646C156.505 39.3443 159.999 40.415 163.775 40.415C165.522 40.415 167.833 40.0205 169.523 39.5697C170.143 39.4006 170.707 39.2879 171.101 39.2879C171.214 39.1752 171.214 39.0061 171.158 38.8934C170.594 38.668 170.369 37.879 170.369 36.6392V34.8358C170.369 33.2015 170.425 32.2998 171.721 32.1307L172.228 32.0744C172.454 31.9053 172.398 31.3981 172.172 31.2854C171.101 31.3418 170.031 31.3981 168.791 31.3981C166.875 31.3981 165.128 31.3418 164.226 31.2854C164.001 31.3981 163.944 31.9617 164.226 32.0744L165.635 32.2435C167.607 32.4689 167.72 32.6379 167.72 35.343V36.6392C167.72 37.6536 167.551 38.2172 167.382 38.4426C167.044 39.0061 165.86 39.4006 163.831 39.4006C157.407 39.4006 154.195 34.554 154.195 28.4113C154.195 23.621 156.9 19.1689 163.155 19.1689C166.424 19.1689 168.847 20.2397 169.749 23.7337C169.918 23.9028 170.538 23.9028 170.594 23.621C170.312 21.7049 170.087 20.0143 170.087 18.9999C169.749 19.0562 168.734 18.8308 168.171 18.7181ZM162.704 1.69868V1.64233C162.648 1.52961 162.535 1.52961 162.479 1.52961C162.423 1.52961 162.423 1.52961 162.366 1.52961H162.31V1.58597C162.141 1.86775 162.084 1.9241 161.352 1.9241H155.829C155.209 1.9241 154.984 1.86775 154.927 1.58597V1.52961C154.871 1.47326 154.815 1.47326 154.758 1.47326C154.702 1.47326 154.645 1.47326 154.533 1.52961H154.476V1.58597C154.364 2.09317 154.195 2.93851 153.969 3.55842V3.67113C154.026 3.8402 154.307 3.89655 154.476 3.78384C154.589 3.50206 154.758 3.16393 155.04 2.88215C155.322 2.60037 155.998 2.60037 156.618 2.60037H157.351C157.632 2.60037 157.632 2.60037 157.632 2.93851V8.91221C157.632 10.3775 157.576 10.4338 156.9 10.4902L156.393 10.5465H156.336C156.28 10.6029 156.223 10.7156 156.223 10.8283C156.223 10.941 156.28 11.0537 156.336 11.0537C157.182 11.0537 157.632 10.9974 158.196 10.9974C158.703 10.9974 159.154 10.9974 159.943 11.0537C160.056 10.9974 160.056 10.8283 160.056 10.7719C160.056 10.6592 160.056 10.5465 159.943 10.5465L159.492 10.4902C158.816 10.4338 158.759 10.3211 158.759 8.91221V2.8258C158.759 2.71308 158.759 2.54402 158.759 2.54402C158.759 2.54402 158.929 2.54402 159.041 2.54402H159.999C160.732 2.54402 161.183 2.65673 161.465 2.88215C161.577 2.99486 161.69 3.333 161.746 3.78384V3.8402C161.803 3.89655 161.859 3.95291 161.972 3.95291C162.084 3.95291 162.197 3.89655 162.254 3.78384V3.72749C162.423 3.27664 162.535 2.20588 162.704 1.69868ZM150.532 8.74314V4.00926C150.532 2.54402 150.588 2.48766 151.264 2.37495L151.602 2.31859C151.659 2.26224 151.715 2.20588 151.715 2.09317C151.715 2.03682 151.715 1.86775 151.602 1.81139C150.982 1.81139 150.475 1.86775 149.968 1.86775C149.404 1.86775 148.954 1.86775 148.277 1.81139C148.165 1.86775 148.165 2.03682 148.165 2.09317C148.165 2.20588 148.165 2.31859 148.277 2.31859L148.615 2.37495C149.292 2.43131 149.348 2.54402 149.348 4.00926V8.74314C149.348 10.2084 149.292 10.2647 148.615 10.3211L148.221 10.3775C148.165 10.4338 148.108 10.6029 148.165 10.6592C148.165 10.7719 148.221 10.8283 148.277 10.8847C148.954 10.8847 149.404 10.8283 149.968 10.8283C150.475 10.8283 150.926 10.8283 151.602 10.8847C151.715 10.8283 151.715 10.6592 151.715 10.6029C151.715 10.4902 151.715 10.3775 151.602 10.3775L151.208 10.3211C150.532 10.2647 150.532 10.2084 150.532 8.74314ZM148.334 39.0625C146.981 38.8934 146.53 38.4426 145.629 35.6811L141.233 22.7757C140.726 21.3668 140.218 19.9016 139.824 18.4927C139.768 18.2672 139.542 18.2109 139.317 18.2109C138.979 18.6054 138.415 19.2253 137.626 19.4507C137.739 19.9579 137.513 20.5778 137.063 21.7049L133.794 30.3837C132.441 33.9905 131.54 36.0756 130.976 37.5409C130.525 38.668 129.849 39.0625 129.06 39.1188L127.989 39.2316C127.82 39.4006 127.877 39.9078 128.046 40.0205C128.891 39.9642 130.074 39.9078 131.145 39.9078C132.667 39.9642 133.625 39.9642 134.47 40.0205C134.752 39.9078 134.752 39.4006 134.527 39.2316L133.456 39.1188C132.667 39.0625 132.498 38.8371 132.498 38.4989C132.498 38.1608 132.723 37.2591 133.23 35.8502L134.357 32.4689C134.583 31.7926 134.752 31.6799 135.597 31.6799H140.444C141.402 31.6799 141.515 31.7926 141.74 32.4689L143.149 36.8083C143.431 37.5972 143.543 38.1608 143.543 38.4989C143.543 38.8371 143.093 39.0061 142.416 39.0625L141.458 39.1752C141.233 39.3443 141.289 39.8515 141.515 39.9642C142.416 39.9078 143.656 39.8515 145.178 39.8515C146.643 39.8515 147.77 39.9078 149.066 39.9642C149.235 39.8515 149.292 39.3443 149.066 39.1752L148.334 39.0625ZM140.049 30.3837H136.104C135.203 30.3837 135.203 30.3274 135.428 29.5947L137.457 24.0155C137.795 23.0575 138.133 22.2685 138.246 22.0994H138.302C138.471 22.4939 138.81 23.3393 139.035 24.1282L140.782 29.3693C141.007 30.2147 140.951 30.3837 140.049 30.3837ZM141.346 3.67113C141.346 3.16393 141.515 2.31859 142.811 2.31859C143.994 2.31859 144.332 3.10757 144.501 3.72749V3.78384C144.558 3.8402 144.614 3.8402 144.727 3.8402C144.84 3.8402 144.952 3.78384 145.009 3.72749V3.67113C145.009 3.10757 144.896 2.37495 144.783 1.98046V1.9241H144.727C144.614 1.9241 144.445 1.9241 144.276 1.86775C143.938 1.75504 143.431 1.69868 143.036 1.69868C141.346 1.69868 140.218 2.65673 140.218 4.12198C140.218 5.3618 141.176 6.15078 141.684 6.48891L142.98 7.33425C143.882 7.95416 144.051 8.51772 144.051 9.13763C144.051 9.87025 143.543 10.5465 142.473 10.5465C141.12 10.5465 140.557 9.53212 140.275 8.63043V8.57407C140.218 8.51772 140.162 8.46136 140.049 8.46136C139.937 8.46136 139.824 8.51772 139.768 8.57407V8.68679C139.768 9.3067 139.937 10.2647 140.162 10.6029C140.444 10.7719 141.176 11.1101 142.304 11.1101C144.051 11.1101 145.234 10.0957 145.234 8.51772C145.234 7.44696 144.671 6.60163 143.543 5.869L142.473 5.19273C142.022 4.96731 141.346 4.40375 141.346 3.67113ZM137.964 10.941C138.021 10.8847 138.077 10.8283 138.021 10.7156C138.021 10.6592 137.964 10.6029 137.908 10.5465H137.852C137.513 10.5465 137.232 10.3775 137.006 10.2084C136.104 9.41941 135.372 8.2923 134.357 6.65798C134.301 6.54527 134.301 6.48891 134.301 6.48891C134.752 6.31985 135.992 5.64358 135.992 4.17833C135.992 3.05122 135.372 2.48766 134.808 2.20588C134.132 1.86775 133.287 1.81139 132.554 1.81139C131.314 1.81139 130.356 1.86775 129.567 1.9241H129.511C129.455 1.98046 129.398 2.03682 129.398 2.14953C129.398 2.26224 129.455 2.37495 129.511 2.43131L129.962 2.48766C130.413 2.54402 130.469 2.65673 130.469 3.95291V8.74314C130.469 10.152 130.413 10.2084 129.736 10.3211L129.342 10.3775V10.4338C129.285 10.5465 129.285 10.6592 129.285 10.7156C129.285 10.8283 129.342 10.8847 129.398 10.8847C130.018 10.8847 130.469 10.8283 131.089 10.8283C131.652 10.8283 132.103 10.8283 132.667 10.8847C132.78 10.8283 132.779 10.7156 132.779 10.6592C132.779 10.5465 132.779 10.4338 132.723 10.3775L132.441 10.3211C131.765 10.2084 131.709 10.152 131.709 8.74314V7.05247C131.709 6.8834 131.709 6.8834 132.216 6.8834C132.723 6.8834 132.892 6.99612 133.061 7.27789C133.287 7.55967 133.512 7.95416 133.738 8.29229C133.963 8.68678 134.188 9.02492 134.357 9.3067C135.259 10.6029 135.992 11.0537 137.232 11.0537C137.57 11.0537 137.795 10.9974 137.964 10.941ZM133.963 5.98171C133.568 6.26349 133.061 6.31985 132.667 6.31985C132.047 6.31985 131.878 6.31985 131.821 6.26349C131.821 6.20714 131.821 6.03807 131.821 5.92536V2.8258C131.821 2.54402 131.821 2.48766 132.61 2.48766C134.132 2.48766 134.639 3.55842 134.639 4.46011C134.583 5.13638 134.357 5.64358 133.963 5.98171ZM127.031 9.02492V8.96856C126.975 8.85585 126.806 8.7995 126.693 8.7995C126.637 8.7995 126.58 8.7995 126.524 8.85585L126.468 8.91221C126.073 9.70119 125.735 10.0393 125.566 10.152C125.284 10.3211 124.89 10.3211 123.875 10.3211C122.748 10.3211 122.466 10.2084 122.354 10.0393C122.185 9.8139 122.128 9.41941 122.128 8.74314V6.8834C122.128 6.60163 122.128 6.60162 122.466 6.60162H123.255C123.706 6.60162 124.044 6.60162 124.27 6.65798C124.439 6.71434 124.552 6.82705 124.608 7.10883L124.721 7.61603V7.67238C124.777 7.72874 124.89 7.78509 124.946 7.78509C125.059 7.78509 125.171 7.72874 125.228 7.67238C125.228 7.55967 125.228 7.3906 125.228 7.16518C125.228 6.93976 125.171 6.65798 125.171 6.3762C125.171 6.09442 125.171 5.81265 125.228 5.53087C125.228 5.30544 125.228 5.13638 125.228 5.02367C125.171 4.96731 125.059 4.91095 124.946 4.91095C124.833 4.91095 124.721 4.96731 124.721 5.02367L124.608 5.64358C124.552 5.92536 124.495 5.98171 124.382 6.03807C124.213 6.09442 123.819 6.09442 123.255 6.09442H122.466C122.128 6.09442 122.128 6.09442 122.128 5.81265V3.16393C122.128 2.71308 122.128 2.71308 122.41 2.71308H123.368C123.932 2.71308 124.382 2.71308 124.664 2.76944C125.284 2.93851 125.397 3.333 125.566 3.89655V4.00926C125.622 4.06562 125.679 4.12198 125.791 4.12198C125.904 4.12198 126.017 4.06562 126.073 4.00926V3.78384C126.017 2.99486 125.96 2.31859 125.848 2.14953L125.791 2.03682H125.679C125.51 2.09317 124.721 2.09317 123.875 2.09317H121.339C120.832 2.09317 120.381 2.09317 119.761 2.03682C119.649 2.09317 119.649 2.26224 119.649 2.31859C119.649 2.43131 119.649 2.54402 119.761 2.60037L120.043 2.65673C120.719 2.71308 120.776 2.8258 120.776 4.23469V9.02492C120.776 10.4902 120.719 10.5465 120.043 10.6029L119.592 10.6592C119.536 10.7156 119.48 10.8847 119.536 10.941C119.536 11.0537 119.592 11.1101 119.649 11.1664C120.438 11.1664 120.888 11.1101 121.452 11.1101H122.635C123.819 11.1101 124.946 11.1101 126.186 11.1664H126.242L126.299 11.1101C126.637 10.4902 126.975 9.47576 127.031 9.02492ZM117.902 2.31859C117.958 2.26224 117.958 2.09317 117.958 2.03682C117.958 1.9241 117.902 1.86775 117.845 1.81139H117.789C117.338 1.81139 116.944 1.86775 116.493 1.86775C115.986 1.86775 115.478 1.86775 115.084 1.81139H115.027C114.971 1.86775 114.915 1.9241 114.915 2.03682C114.915 2.14953 114.915 2.26224 115.027 2.31859L115.309 2.37495C115.76 2.43131 115.816 2.54402 115.816 2.54402C115.816 2.65673 115.816 2.76944 115.704 3.05122C115.478 3.61477 114.858 5.13638 114.464 6.03807C114.351 6.26349 114.238 6.54527 114.126 6.8834C113.9 7.50332 113.562 8.23594 113.28 8.7995C112.661 7.33425 112.041 5.869 111.477 4.40375C111.083 3.44571 110.857 2.76944 110.801 2.60037C110.801 2.54402 110.913 2.48766 111.364 2.43131L111.59 2.37495C111.646 2.31859 111.702 2.20588 111.702 2.09317C111.702 1.98046 111.646 1.9241 111.59 1.86775H111.533C110.913 1.86775 110.463 1.9241 109.899 1.9241C109.336 1.9241 108.941 1.9241 108.49 1.86775H108.434C108.377 1.9241 108.321 1.98046 108.321 2.09317C108.321 2.20588 108.377 2.31859 108.434 2.37495L108.716 2.43131C109.223 2.48766 109.392 2.71308 109.73 3.44571L112.097 9.25034C112.379 9.92661 112.604 10.5465 112.717 10.9974V11.0537H112.773C112.83 11.1101 112.942 11.1101 112.999 11.1101C113.055 11.1101 113.168 11.1101 113.224 11.0537H113.28V10.9974C113.506 10.2647 114.126 8.68678 114.689 7.50332L115.422 5.869C116.042 4.46011 116.549 3.38935 116.887 2.8258C117.056 2.54402 117.225 2.43131 117.507 2.43131L117.902 2.31859ZM109.166 20.916C106.743 22.8321 105.109 25.8753 105.109 29.4257C105.109 33.5396 107.081 36.4701 109.674 38.2172C112.041 39.7951 114.746 40.3587 117.676 40.3587C119.705 40.3587 122.016 39.8515 122.748 39.626C123.086 39.5133 123.481 39.3443 123.875 39.2879C124.383 38.668 125.171 36.5828 125.397 34.8922C125.284 34.6667 124.777 34.6104 124.552 34.7795C123.819 36.6956 121.959 39.3443 117.845 39.3443C112.604 39.3443 108.321 35.6248 108.321 28.9185C108.321 22.2685 112.491 19.1689 117.394 19.1689C122.016 19.1689 123.481 21.6486 123.988 23.8465C124.213 24.0155 124.721 24.0155 124.833 23.7901C124.552 21.8177 124.439 19.7889 124.382 19.0562C124.101 19.1126 123.875 18.9999 123.481 18.9435C121.959 18.549 119.536 18.1545 117.789 18.1545C114.52 18.2109 111.533 19.1126 109.166 20.916ZM105.053 8.74314V4.00926C105.053 2.54402 105.109 2.43131 105.785 2.37495L106.123 2.31859C106.18 2.26224 106.236 2.20588 106.236 2.03682C106.236 1.98046 106.236 1.81139 106.123 1.75504C105.503 1.75504 104.996 1.81139 104.489 1.81139C103.925 1.81139 103.475 1.81139 102.798 1.75504C102.686 1.81139 102.686 1.98046 102.686 2.03682C102.686 2.14953 102.686 2.26224 102.798 2.26224L103.136 2.31859C103.813 2.37495 103.869 2.48766 103.869 3.95291V8.68679C103.869 10.152 103.813 10.2084 103.136 10.2647L102.742 10.3211C102.686 10.3775 102.629 10.5465 102.686 10.6029C102.686 10.7156 102.742 10.7719 102.798 10.8283C103.475 10.8283 103.925 10.7719 104.489 10.7719C104.996 10.7719 105.503 10.7719 106.123 10.8283C106.236 10.7719 106.236 10.6029 106.236 10.5465C106.236 10.4338 106.236 10.3211 106.123 10.3211L105.729 10.2647C105.109 10.2647 105.053 10.2084 105.053 8.74314ZM98.3462 35.0049V23.621C98.3462 20.2397 98.4025 19.6761 100.319 19.5071L101.108 19.4507C101.277 19.338 101.22 18.7181 101.051 18.6617C99.4733 18.7181 98.3462 18.7744 97.05 18.7744C95.6975 18.7744 94.6267 18.7181 92.9924 18.6617C92.8233 18.7744 92.7106 19.338 92.936 19.4507L93.725 19.5071C95.6411 19.6761 95.6975 20.2397 95.6975 23.621V35.0049C95.6975 38.3862 95.6411 38.8371 93.725 39.0625L92.936 39.1752C92.767 39.3443 92.8233 39.9078 92.9924 39.9642C94.5703 39.9078 95.6975 39.8515 97.05 39.8515C98.3462 39.8515 99.4169 39.9078 101.051 39.9642C101.22 39.8515 101.333 39.2879 101.108 39.1752L100.319 39.0625C98.4589 38.8371 98.3462 38.3862 98.3462 35.0049ZM100.037 2.31859C100.093 2.26224 100.15 2.14953 100.15 2.03682C100.15 1.9241 100.093 1.86775 100.037 1.81139H99.9805C99.5297 1.81139 99.1915 1.86775 98.628 1.86775C98.1771 1.86775 97.7263 1.86775 97.05 1.81139C96.9936 1.86775 96.9373 1.9241 96.8809 2.03682C96.8809 2.14953 96.8809 2.26224 96.9936 2.31859L97.2754 2.37495C97.7263 2.43131 97.9517 2.48766 98.0081 2.60037C98.1771 2.82579 98.2335 3.8402 98.2335 5.30544V8.17958C98.2335 8.29229 98.2335 8.46136 98.2335 8.57407C97.7826 8.12323 97.2754 7.55967 96.7119 6.8834L94.8521 4.79824C93.5559 3.333 92.767 2.31859 92.5979 1.9241L92.5415 1.86775H92.4852C92.3161 1.86775 92.0907 1.9241 91.8653 1.9241C91.6399 1.9241 90.9072 1.9241 90.3437 1.86775H90.2873C90.231 1.9241 90.1746 1.98046 90.1746 2.09317C90.1746 2.20588 90.1746 2.31859 90.231 2.37495L90.5127 2.43131C90.8509 2.48766 91.1327 2.60037 91.3017 2.71308C91.5271 2.99486 91.5835 3.22028 91.5835 3.61477V7.61603C91.5835 8.23594 91.5835 9.75754 91.4144 10.2084C91.3581 10.2647 91.2454 10.3775 90.9072 10.4338L90.5127 10.4902C90.4564 10.5465 90.4 10.6592 90.4564 10.7719C90.4564 10.8847 90.5127 10.941 90.5691 10.9974H90.6818C91.1327 10.9974 91.5271 10.941 92.0907 10.941C92.5416 10.941 92.9924 10.941 93.6687 10.9974H93.7814C93.8377 10.941 93.8941 10.8847 93.8941 10.7719C93.8941 10.6592 93.8941 10.5465 93.8377 10.4902V10.4338L93.3869 10.3775C93.0487 10.3775 92.8233 10.2647 92.767 10.152C92.5979 9.87025 92.5415 8.91221 92.5415 7.44696V4.51647C92.5415 4.29104 92.5415 4.00926 92.5415 3.8402C92.767 4.06562 93.1051 4.51646 93.4432 4.8546C93.6687 5.13638 93.8377 5.3618 94.0068 5.47451L97.1064 9.02492C98.1208 10.2084 98.628 10.7719 98.797 11.0537L98.8534 11.1101H98.9097C99.0788 11.1101 99.1915 11.0537 99.2479 10.8847C99.2479 10.7156 99.1915 10.2084 99.1915 8.57407V5.19273C99.1915 4.51646 99.1915 3.10757 99.3606 2.65673C99.3606 2.60037 99.5296 2.48766 100.037 2.43131V2.31859ZM88.0331 2.31859C88.0894 2.26224 88.1458 2.14953 88.0894 2.03682C88.0894 1.98046 88.0331 1.86775 87.9767 1.86775H87.9204C87.4695 1.86775 87.075 1.9241 86.5115 1.9241C86.0043 1.9241 85.4971 1.9241 84.9899 1.86775H84.8772C84.8208 1.9241 84.7645 1.98046 84.7645 2.09317C84.7645 2.20588 84.7645 2.26224 84.8208 2.37495V2.43131L85.2153 2.48766C85.4971 2.48766 85.7225 2.60037 85.7789 2.71308C85.9479 2.99486 86.0043 3.95291 86.0043 5.41816V6.93976C86.0043 8.51772 85.5534 10.3775 83.4119 10.3775C81.6085 10.3775 80.8196 9.25034 80.8196 6.93976V4.06562C80.8196 2.65673 80.8759 2.54402 81.5522 2.48766H81.8903C81.9467 2.43131 82.003 2.37495 82.003 2.26224C82.003 2.14953 81.9467 2.03682 81.8903 2.03682C81.2704 2.03682 80.8196 2.09317 80.256 2.09317C79.6925 2.09317 79.2416 2.09317 78.6217 2.03682C78.509 2.09317 78.509 2.20588 78.509 2.26224C78.509 2.37495 78.509 2.48766 78.6217 2.48766H78.9598C79.6361 2.54402 79.6925 2.65673 79.6925 4.06562V7.22154C79.6925 8.85585 80.0306 9.8139 80.7632 10.4338C81.3268 10.941 82.2285 11.1664 83.3556 11.1664C84.4263 11.1664 85.4407 10.7719 86.0043 10.152C86.6242 9.47576 86.9623 8.40501 86.9623 6.8834V5.3618C86.9623 4.68553 86.9623 3.10757 87.1314 2.65673C87.1878 2.54402 87.4132 2.43131 87.695 2.37495L88.0331 2.31859ZM72.7043 19.4507C72.8734 19.338 72.8171 18.7181 72.648 18.6617C71.2955 18.7181 70.1683 18.7744 68.9285 18.7744C67.576 18.7744 66.4489 18.7181 64.8709 18.6617C64.7018 18.7744 64.5891 19.338 64.8145 19.4507L65.6599 19.5071C67.3506 19.6198 67.576 20.1833 67.576 23.5647V35.1176C67.576 38.4989 67.5196 38.7807 65.7162 39.1188L65.1527 39.2316C64.9836 39.4006 65.04 39.9642 65.209 40.0205C66.4489 39.9642 67.576 39.9078 68.9285 39.9078C70.1683 39.9078 71.2955 39.9642 72.9861 40.0205C73.1552 39.9078 73.2679 39.3443 73.0425 39.2316L72.1408 39.1188C70.3374 38.9498 70.1683 38.4989 70.1683 35.1176V30.6091C70.1683 29.6511 70.2247 29.5947 71.7463 29.5947H80.9323C82.4539 29.5947 82.5102 29.6511 82.5102 30.6091V35.1176C82.5102 38.4989 82.5102 38.7807 80.5378 39.1188L79.9179 39.2316C79.7488 39.4006 79.8052 39.9642 79.9742 40.0205C81.3831 39.9642 82.5666 39.9078 83.8628 39.9078C85.1026 39.9078 86.2297 39.9642 87.7513 40.0205C87.9204 39.9078 88.0331 39.3443 87.8077 39.2316L87.0187 39.1188C85.159 38.8934 85.1026 38.4989 85.1026 35.1176V23.5083C85.1026 20.127 85.159 19.6761 87.0187 19.4507L87.695 19.3944C87.864 19.2817 87.8077 18.6617 87.6386 18.6054C86.1734 18.6617 85.1026 18.7181 83.8628 18.7181C82.5666 18.7181 81.4395 18.6617 79.9742 18.6054C79.8052 18.7181 79.6925 19.2817 79.9179 19.3944L80.5378 19.4507C82.4539 19.6198 82.5102 20.127 82.5102 23.5083V27.1714C82.5102 28.1858 82.4539 28.1858 80.9323 28.1858H71.7463C70.2247 28.1858 70.1683 28.1295 70.1683 27.1714V23.5083C70.1683 20.127 70.2247 19.6761 72.0844 19.4507H72.7043ZM71.4082 9.02492V8.96856C71.3518 8.85585 71.1827 8.7995 71.07 8.7995C71.0137 8.7995 70.9573 8.7995 70.901 8.85585L70.8446 8.91221C70.4501 9.70119 70.112 10.0393 69.9429 10.152C69.6611 10.3211 69.2667 10.3211 68.2523 10.3211C67.1251 10.3211 66.8434 10.2084 66.7306 10.0393C66.5616 9.8139 66.5052 9.41941 66.5052 8.74314V6.8834C66.5052 6.60163 66.5052 6.60162 66.8434 6.60162H67.6323C68.0832 6.60162 68.4213 6.60162 68.6467 6.65798C68.8158 6.71434 68.9285 6.82705 68.9849 7.10883L69.0976 7.61603V7.67238C69.1539 7.72874 69.2666 7.78509 69.323 7.78509C69.4357 7.78509 69.5484 7.72874 69.6048 7.67238C69.6048 7.55967 69.6048 7.3906 69.6048 7.16518C69.6048 6.93976 69.5484 6.65798 69.5484 6.3762C69.5484 6.09442 69.5484 5.81265 69.6048 5.53087C69.6048 5.30544 69.6048 5.13638 69.6048 5.02367C69.5484 4.96731 69.4357 4.91095 69.323 4.91095C69.2103 4.91095 69.0976 4.96731 69.0976 5.02367L68.9849 5.64358C68.9285 5.92536 68.8722 5.98171 68.7594 6.03807C68.5904 6.09442 68.1959 6.09442 67.6323 6.09442H66.8434C66.5052 6.09442 66.5052 6.09442 66.5052 5.81265V3.16393C66.5052 2.71308 66.5052 2.71308 66.787 2.71308H67.745C68.3086 2.71308 68.7594 2.71308 69.0412 2.76944C69.6611 2.93851 69.7739 3.333 69.9429 3.89655V4.00926C69.9993 4.06562 70.0556 4.12198 70.1683 4.12198C70.281 4.12198 70.3938 4.06562 70.4501 4.00926V3.72749C70.3938 2.93851 70.3374 2.26224 70.2247 2.09317L70.1683 1.98046H70.0556C69.8866 2.03682 69.0976 2.03682 68.2523 2.03682H65.7162C65.209 2.03682 64.7582 2.03682 64.1383 1.98046C64.0256 2.03682 64.0256 2.20588 64.0256 2.26224C64.0256 2.37495 64.0256 2.48766 64.1383 2.54402L64.4201 2.60037C65.0963 2.65673 65.1527 2.76944 65.1527 4.17833V8.96856C65.1527 10.4338 65.0963 10.4902 64.4201 10.5465L63.9692 10.6029C63.9129 10.6592 63.8565 10.8283 63.9129 10.8847C63.9129 10.9974 63.9692 11.0537 64.0256 11.1101C64.8146 11.1101 65.2654 11.0537 65.829 11.0537H67.0124C68.1959 11.0537 69.323 11.0537 70.5628 11.1101H70.6192L70.6755 11.0537C70.9573 10.4902 71.2955 9.47576 71.4082 9.02492ZM60.2497 8.7995V4.00926C60.2497 2.60037 60.3061 2.48766 60.9824 2.43131H61.3205C61.3769 2.37495 61.4332 2.31859 61.4332 2.20588C61.4332 2.14953 61.4332 1.98046 61.3205 1.9241C60.7006 1.98046 60.2497 1.98046 59.7425 1.98046C59.179 1.98046 58.6718 1.98046 58.1082 1.9241C57.9955 1.98046 57.9955 2.14953 57.9955 2.20588C57.9955 2.31859 57.9955 2.43131 58.1082 2.48766L58.39 2.54402C59.0663 2.60037 59.1226 2.71308 59.1226 4.12198V5.64358C59.1226 5.98171 59.1226 5.98171 58.5591 5.98171H54.7269C54.1633 5.98171 54.1633 5.98171 54.1633 5.64358V4.12198C54.1633 2.71308 54.2197 2.60037 54.896 2.54402H55.1777C55.2341 2.48766 55.2904 2.43131 55.2904 2.26224C55.2904 2.20588 55.2904 2.03682 55.1777 1.98046C54.5578 1.98046 54.107 2.03682 53.6561 2.03682C53.318 2.03682 52.9799 2.03682 52.6981 2.03682C52.4727 2.03682 52.2472 2.03682 52.0218 2.03682C51.9091 2.09317 51.9091 2.26224 51.9091 2.31859C51.9091 2.43131 51.9091 2.54402 52.0218 2.60037L52.4163 2.65673C52.9799 2.71308 53.0926 2.8258 53.0926 4.23469V9.02492C53.0926 10.4338 53.0926 10.4902 52.4163 10.6029L52.1345 10.6592C52.0782 10.7156 52.0218 10.8847 52.0782 10.941C52.0782 11.0537 52.1345 11.1101 52.1909 11.1664C52.36 11.1664 52.529 11.1664 52.6981 11.1664C53.0362 11.1664 53.318 11.1664 53.7125 11.1664C54.2197 11.1664 54.6142 11.1664 55.4032 11.2228C55.5159 11.1664 55.5159 11.0537 55.5159 10.941C55.5159 10.8283 55.5159 10.7156 55.4032 10.7156L54.9523 10.6592C54.3324 10.6029 54.2197 10.5465 54.2197 9.08127V7.22154C54.2197 6.8834 54.2197 6.8834 54.7832 6.8834H58.6154C59.179 6.8834 59.179 6.8834 59.179 7.22154V9.08127C59.179 10.4902 59.179 10.5465 58.4464 10.6592L58.1646 10.7156C58.1082 10.7719 58.0519 10.941 58.1082 10.9974C58.1082 11.1101 58.1646 11.1664 58.2209 11.2228C58.8409 11.2228 59.3481 11.1664 59.8553 11.1664C60.3625 11.1664 60.8697 11.1664 61.4896 11.2228C61.6023 11.1664 61.6023 10.9974 61.6023 10.941C61.6023 10.8283 61.6023 10.7156 61.4896 10.7156L61.1514 10.6592C60.2497 10.2647 60.2497 10.2084 60.2497 8.7995ZM49.2604 1.69868V1.64233C49.204 1.52961 49.035 1.52961 49.035 1.52961C48.9786 1.52961 48.9786 1.52961 48.9223 1.52961H48.8659V1.58597C48.6968 1.86775 48.6405 1.9241 47.9079 1.9241H42.385C41.7651 1.9241 41.5397 1.86775 41.4833 1.58597V1.52961C41.427 1.47326 41.3706 1.47326 41.3142 1.47326C41.2579 1.47326 41.2015 1.47326 41.0888 1.52961H41.0325V1.58597C40.9197 2.09317 40.7507 2.93851 40.5253 3.55842V3.67113C40.5816 3.8402 40.8634 3.89655 41.0325 3.78384C41.1452 3.50206 41.3142 3.16393 41.596 2.88215C41.8778 2.60037 42.5541 2.60037 43.174 2.60037H43.9066C44.1884 2.60037 44.1884 2.60037 44.1884 2.93851V8.91221C44.1884 10.3775 44.132 10.4338 43.4558 10.4902L43.0049 10.3775H42.9486C42.8922 10.4338 42.8358 10.5465 42.8358 10.6592C42.8358 10.7719 42.8922 10.8847 42.9486 10.8847C43.7939 10.8847 44.2447 10.8283 44.8083 10.8283C45.3155 10.8283 45.7663 10.8283 46.5553 10.8847C46.668 10.8283 46.668 10.7156 46.668 10.6029C46.668 10.4902 46.668 10.3775 46.5553 10.3775L46.1045 10.3211C45.4282 10.2647 45.3718 10.152 45.3718 8.74314V2.8258C45.3718 2.71308 45.3718 2.54402 45.3718 2.54402C45.3718 2.54402 45.5409 2.54402 45.6536 2.54402H46.6117C47.3443 2.54402 47.7951 2.65673 48.0769 2.88215C48.1896 2.99486 48.3023 3.333 48.3587 3.78384V3.8402C48.4151 3.89655 48.4714 3.95291 48.5841 3.95291C48.6968 3.95291 48.8095 3.89655 48.8659 3.78384V3.72749C49.035 3.27664 49.0913 2.20588 49.2604 1.69868ZM40.1871 29.4257C40.1871 33.5396 42.1596 36.4701 44.7519 38.2172C47.1189 39.7951 49.8239 40.3587 52.7544 40.3587C54.7832 40.3587 57.0938 39.8515 57.8265 39.626C58.1646 39.5133 58.5591 39.3443 58.9536 39.2879C59.4608 38.668 60.2497 36.5828 60.4752 34.8922C60.3625 34.6667 59.8553 34.6104 59.6298 34.7795C58.8972 36.6956 57.0375 39.3443 52.9235 39.3443C47.6824 39.3443 43.3994 35.6248 43.3994 28.9185C43.3994 22.2685 47.5697 19.1689 52.4727 19.1689C57.0938 19.1689 58.5591 21.6486 59.0663 23.8465C59.2917 24.0155 59.7989 24.0155 59.9116 23.7901C59.6298 21.8177 59.5171 19.7889 59.4608 19.0562C59.179 19.1126 58.9536 18.9999 58.5591 18.9435C57.0375 18.549 54.6142 18.1545 52.8672 18.1545C49.5422 18.1545 46.5553 19.0562 44.1884 20.8596C41.7651 22.8321 40.1871 25.8753 40.1871 29.4257ZM31.8465 24.0155V1.69868C13.9254 -0.0483438 0.400024 1.69868 0.400024 1.69868V24.0155C1.80892 39.1752 16.0105 40.9222 16.1233 40.9222C18.6029 40.4714 30.494 38.0481 31.8465 24.0155ZM5.41568 29.5947C5.69746 29.7638 6.03559 29.8765 6.37373 29.9892C6.76822 31.0036 6.37373 31.9617 6.1483 31.5672C5.75381 30.8909 5.58475 30.271 5.41568 29.5947ZM5.41568 18.6054C5.35932 18.6054 3.38687 19.8452 2.14705 19.2253C3.1051 18.7181 6.37373 16.6329 7.27542 16.013C7.72626 16.1257 7.89533 15.9567 8.00804 15.844C7.66991 15.844 6.54279 16.0694 7.10635 14.9986C7.33177 15.9003 8.90973 15.055 9.52964 14.9423C11.1076 14.5478 11.1076 16.2948 10.9949 16.9711C10.8822 17.3092 11.4457 17.4783 11.7275 17.4783C11.2767 18.6054 10.4877 17.5346 10.375 17.9855C10.3186 18.1545 9.81142 18.3236 9.81142 18.7181C9.81142 19.338 10.0368 18.9999 10.0932 19.4507C10.0932 19.9016 9.92413 19.5634 9.92413 20.0143C9.98049 20.8033 11.2767 19.9016 11.7839 20.127C12.0656 20.2397 12.2347 20.4651 12.4601 20.4088C12.5165 20.3524 12.5165 20.0706 12.5165 19.9579C12.5165 19.7325 12.0656 19.6761 11.8402 19.338C11.6712 19.0562 12.0656 18.1545 12.2347 17.9291C12.5165 19.3944 13.869 18.9435 14.0945 20.4088C14.2072 20.8596 13.6436 21.3105 14.0945 21.9867C13.7563 22.3249 13.3055 23.9592 14.0381 24.7482C13.9254 25.0863 13.7563 25.8753 14.4326 26.3825C14.2072 26.8897 14.2635 27.4532 14.4326 28.0168C14.0381 28.0168 14.0945 25.7062 11.6148 25.6498C11.5584 25.6498 11.5584 25.9316 11.6148 26.0443C11.8966 26.5515 12.2911 26.5515 12.2347 27.735C12.1784 28.1295 11.9529 27.6786 11.8402 27.5659C11.5584 27.2842 11.333 27.2842 11.164 26.3825C10.1496 27.1714 10.2623 28.1295 10.3186 28.5803C10.3186 28.5803 10.0932 27.9604 9.86778 27.3405C9.86778 27.2842 10.8822 26.0443 11.0512 25.7626C13.1364 21.9867 9.69871 27.0024 9.69871 26.946C9.52964 26.4952 9.36058 26.157 9.24786 26.0443C9.24786 25.988 9.86778 25.3681 10.0932 24.8045C11.7275 21.4232 9.13515 25.9316 9.02244 25.8189C8.85338 25.6498 8.68431 25.4244 8.5716 25.4808C8.51524 25.988 8.40253 25.9316 8.45889 26.4388C8.17711 26.777 7.61355 27.3405 7.21906 27.6223C7.21906 27.6223 7.10635 26.6642 7.1627 26.6642C7.38813 26.4388 8.17711 25.5935 8.34617 25.3117C10.9949 21.1414 7.10635 26.3261 7.10635 26.2698C7.10635 26.1007 6.88093 25.8189 6.6555 25.5935C6.6555 25.5935 7.50084 24.41 7.72626 24.0155C9.36058 20.6905 6.43008 25.4808 6.43008 25.4808C6.37373 25.4244 6.37372 25.4244 6.26101 25.4244C6.20466 25.4244 6.37373 24.4664 6.48644 23.9028C6.71186 22.7757 6.1483 23.6774 5.97924 25.4244C5.81017 25.4244 5.47204 25.4808 5.35932 25.5935C5.47204 26.0443 5.58475 25.7062 5.75381 26.157C5.97924 26.7206 5.41568 27.5659 5.92288 28.2422C6.09195 28.4676 6.1483 28.4676 6.09195 28.6367C5.81017 28.6367 5.58475 28.6367 5.41568 28.8621C5.02119 27.1714 5.07754 26.3825 5.1339 24.6918C5.19026 23.9028 5.41568 22.7757 5.30297 22.7193C5.19026 22.7193 3.44323 27.2278 2.99239 28.0731C2.25976 27.8477 3.44323 23.9028 4.96483 22.0431C5.1339 21.4232 4.17585 22.663 3.6123 23.1138C3.1051 23.5647 2.42883 24.1282 1.75256 23.9028C2.65425 22.9448 4.73941 21.1414 4.96483 20.6905C5.1339 20.2961 3.55594 21.874 1.80892 21.3105C2.82332 20.8596 5.41568 19.5634 5.41568 18.6054ZM8.51524 27.1151C8.51524 27.5096 8.51524 27.8477 8.62795 28.2422C8.79702 28.8621 8.74066 28.693 8.45889 28.4676C8.23346 28.2422 8.0644 28.0168 7.95168 27.7914C7.89533 27.5659 8.06439 27.5659 8.51524 27.1151ZM12.6292 16.9147C12.4038 16.4639 12.911 16.0694 12.911 16.0694C12.911 17.2528 14.4326 16.4639 15.2216 16.802C15.3906 16.9147 15.5597 17.0838 15.6161 17.2528C14.8271 16.6893 13.2491 17.9291 12.6292 16.9147ZM3.6123 7.3906C2.25976 7.3906 2.25976 5.3618 3.6123 5.3618C4.96483 5.30544 4.96483 7.3906 3.6123 7.3906ZM3.6123 11.4482C2.20341 11.4482 2.20341 9.41941 3.6123 9.41941C4.96483 9.41941 5.02119 11.4482 3.6123 11.4482ZM6.26101 7.05247H5.07754V5.869H6.26101V7.05247ZM6.26101 11.1101H5.07754V9.92661H6.26101V11.1101ZM15.8978 13.1389C15.8978 13.1389 14.658 12.4626 13.1928 12.3499C11.7839 12.2372 8.90973 13.3643 6.71186 13.2516V3.61477C6.71186 3.61477 9.19151 3.95291 10.2623 3.55842C13.7563 2.20588 15.8978 3.72749 15.8978 3.72749V13.1389ZM18.2648 14.7168C18.3211 15.055 17.983 15.1677 17.983 15.1677C18.4902 15.2804 18.772 14.9986 18.8847 14.7732C19.1101 15.6185 18.2648 15.6749 17.983 15.7312C17.983 15.7312 18.4338 15.844 18.4338 16.1257C18.4902 16.8584 18.941 16.802 19.0538 16.7456C19.0538 16.8584 18.8847 17.2528 18.3775 16.8584C18.2648 16.9711 18.4902 17.0838 18.5465 17.4219C18.6029 17.8728 18.6029 18.2672 19.1101 18.549C18.772 18.7744 18.4338 18.1545 18.3775 18.2109C18.3211 18.3236 18.8283 18.549 18.3211 19.7889C18.0957 19.6761 18.2084 19.6761 17.9266 19.338C17.7012 19.1689 17.6449 19.1126 17.8139 19.3944C18.0957 19.7889 18.2084 20.6342 18.0957 20.916C17.8139 20.8033 17.9266 20.5778 17.5885 20.3524C17.5885 20.4651 17.7012 21.0287 17.983 21.3105C18.5465 21.8177 18.7156 22.3812 18.7156 22.4939C18.772 22.9448 18.6593 23.5083 18.6029 24.0719C18.3211 24.0155 18.1521 23.2829 18.0393 23.3393C17.983 23.3956 18.0957 24.0719 18.5465 24.5227C18.772 25.199 18.6593 25.5935 18.6029 25.5935C18.5465 25.6498 18.2648 24.9172 18.0957 25.0299C18.772 26.777 18.3211 27.3969 18.0957 27.9604C17.9266 27.3969 17.8703 27.0024 17.7012 26.3825C17.3067 26.6642 17.2504 27.1151 16.7995 27.5096C16.7995 26.777 16.405 25.0863 16.0669 24.6918C16.0669 24.6918 15.447 26.2134 15.2216 26.946C14.8834 27.8477 14.8271 28.9748 15.2216 29.8765C14.3762 28.693 14.2635 26.4388 14.9961 26.1007C15.0525 25.9316 14.9398 25.4244 14.7707 25.4808C14.7144 25.7626 14.7707 25.988 14.5453 26.2134C13.9817 26.0443 14.2635 25.3681 14.2635 25.1426C14.9961 24.241 14.5453 24.0719 14.4889 24.0719C14.4326 24.2973 14.3199 24.5227 14.0945 24.6354C13.6436 23.8465 13.9254 22.5503 14.8271 21.5922C14.8834 21.2541 14.4326 21.874 14.1508 21.8177C14.0945 21.1414 14.3199 19.9579 15.5597 19.9016C15.3343 19.8452 15.1652 19.7889 15.1089 19.5634C15.5033 19.5071 16.6868 19.3944 16.4614 18.4927C16.3487 18.6054 16.2923 18.7745 16.0105 18.9435C15.7851 19.0562 15.5597 19.0562 15.447 18.8872C16.0105 18.7181 15.8415 18.0418 15.1089 18.2109C14.8834 18.2672 14.5453 18.0418 14.5453 17.76C14.7144 17.9291 15.0525 17.8164 15.2216 17.7037C16.0105 17.1965 16.5177 17.9291 16.6305 18.0982C16.6868 18.0982 16.9686 17.3092 15.8415 17.1401C15.7288 16.8584 15.5033 16.4075 14.7144 16.4639C14.4326 15.5622 13.7 16.013 13.7 16.4075C12.8546 15.7876 13.7 14.9986 14.0381 14.8859C14.2635 14.8859 14.2072 15.6185 14.6017 15.5058C14.7144 15.4495 14.2635 14.9986 14.4326 14.7732C14.8271 14.5478 14.7707 15.055 14.9961 14.8859C15.1089 14.5478 15.447 14.3787 15.7851 14.3787C16.7995 14.2096 17.4758 15.1677 18.2648 14.7168ZM25.9291 13.3079C24.0694 13.4207 20.2936 12.4063 19.2792 12.4063C17.2504 12.4063 16.2923 13.1952 16.2923 13.1952C16.2923 13.1952 16.2923 4.12198 16.2923 3.78384C16.2923 3.78384 18.941 2.54402 20.8571 3.27664C23.2241 4.12198 25.9291 3.78384 25.9291 3.78384V13.3079ZM28.3524 9.58847C29.3668 9.41941 29.5359 10.6592 29.5359 10.6592C29.3105 10.4338 28.8033 10.3775 28.4651 10.6029C27.338 11.3355 26.3236 11.3355 26.3236 11.3355V9.53212C26.2673 9.47576 26.4927 9.87025 28.3524 9.58847ZM29.5359 7.05247C29.5359 6.99611 29.5359 6.93976 29.4795 6.77069C29.4795 6.60162 28.916 6.48891 28.5779 6.65798C28.0707 6.8834 26.7745 7.61603 26.2673 7.50332V5.69993C27.4507 6.20714 27.9016 5.75629 28.2961 5.75629C29.4795 5.75629 29.5359 6.82705 29.5359 6.82705C29.5359 6.93976 29.5359 6.99611 29.5359 7.05247ZM28.2397 26.0443C27.9016 26.157 26.9999 26.4952 26.7745 26.8333C26.8872 24.8609 26.2673 22.9448 26.0419 22.4939C25.6474 21.5922 26.2109 24.5791 26.2673 25.2553C26.2673 25.3117 23.055 21.085 24.9711 24.2973C25.4783 25.1426 26.2673 25.7062 26.2673 25.7062C26.2673 26.2698 26.2673 26.7206 26.1546 27.0024C25.9291 27.1714 21.7588 21.4232 24.0694 25.3681C24.3512 25.8753 26.0419 27.3405 26.0419 27.3969C25.9291 27.6223 25.7601 27.9604 25.4783 28.1858C25.4219 28.1295 24.5203 27.4532 24.5203 27.3969C24.4639 26.946 24.4639 26.5515 23.9003 26.8333C23.9003 26.8333 21.8152 24.41 22.7732 26.1007C23.1677 26.8333 23.4495 26.946 23.5622 27.0587C23.5622 27.0587 23.2241 27.5096 23.1114 27.9604C23.055 28.1295 21.308 25.988 21.9842 27.3405C22.2097 27.7914 22.9986 28.2422 22.9986 28.2422C22.9423 28.524 22.8296 28.8058 22.7732 28.9748C22.6605 29.2002 21.1389 30.4401 21.1389 30.4401C21.1389 30.4401 21.4207 29.482 22.097 28.9748C22.4914 28.693 22.4914 28.7494 22.7169 28.5803C22.7169 28.4113 22.5478 28.1858 22.3787 28.1295C22.1533 28.0731 21.4207 28.1858 21.4207 28.1858C21.477 27.8477 21.1953 27.0587 21.1953 26.157C20.9135 26.157 20.4626 26.6079 20.3499 26.8333C20.2936 28.2422 19.9554 27.8477 19.6737 28.8621C19.3355 28.4113 19.6737 27.7914 19.3919 27.3969C18.941 26.8333 18.8847 26.4388 18.8283 25.7626C18.941 25.7062 19.3919 25.199 18.941 24.2409C18.8847 22.663 19.561 22.0431 18.3211 20.916C18.4338 20.8596 18.4902 20.0706 18.4902 20.0706C19.4482 20.5778 19.2228 19.5071 19.6173 19.2817C20.1809 18.9435 20.0682 18.6054 19.8427 18.1545C21.477 18.6054 19.7864 19.7325 20.519 19.7889C21.0826 19.7889 21.4207 19.6761 21.6461 19.2817C21.8715 18.8872 21.5898 18.6617 22.3224 18.0418C22.3787 17.9855 22.6042 17.5346 22.0406 17.4219C21.9279 17.4219 22.0406 16.9147 22.0406 16.9147C21.5898 17.3092 21.477 17.8164 20.7444 17.4783C20.3499 17.3092 20.1245 17.4783 20.0118 17.5346C20.0118 17.5346 19.9554 17.2528 20.2372 17.1401C21.0262 16.8584 21.1953 16.5766 21.1953 16.4075C21.0826 16.013 21.0826 16.4075 21.0826 15.9567C21.0826 15.7876 21.308 15.5622 21.477 15.3368C21.9842 14.7168 22.3787 14.9423 22.5478 14.9986C22.8296 14.7732 22.8859 14.7732 23.2241 14.6605C23.7313 14.4914 24.802 14.7732 25.3656 15.055C25.6474 15.1677 25.9855 15.2804 26.3236 15.1677C26.3236 15.3368 26.2109 15.4495 26.0982 15.4495C25.9291 15.5058 25.7037 15.4495 25.7037 15.5622C25.7037 15.6185 25.9855 15.6749 26.1546 15.6749C27.0563 15.9003 28.1834 16.6893 27.4507 16.5202C27.338 16.5202 28.0143 16.9711 28.4651 17.6473L30.1558 19.2817C30.0995 19.3944 29.4795 19.2817 27.6198 17.5346C27.338 17.76 29.874 19.6761 30.9448 21.7049C30.8321 21.7613 29.5359 21.3105 29.0851 20.8033C28.3524 20.0706 27.5071 18.1545 27.169 18.4363C27.1126 18.4363 28.5779 20.6905 29.2541 21.9867C29.5923 22.663 29.874 23.621 29.9304 24.2973C30.0431 27.8477 29.5359 27.5659 29.5359 27.5659C28.6906 24.8045 28.2961 21.5359 27.1126 20.0706C26.38 19.9016 28.1834 23.1138 28.2397 26.0443ZM24.5766 29.2002C24.1821 29.5384 23.9567 29.6511 24.013 29.482C24.1258 29.313 24.1821 29.1439 24.2385 29.0312C24.2385 28.9748 24.5766 29.2002 24.5766 29.2002ZM24.3512 28.7494C24.4075 28.4676 24.4075 28.2422 24.4639 27.9604C24.4639 27.8477 24.4639 27.8477 24.4639 27.7914C24.4639 27.735 25.2529 28.4676 25.3092 28.4676C25.0838 28.7494 24.9147 28.8058 24.7457 28.9748C24.633 28.9185 24.2948 28.8058 24.3512 28.7494ZM26.9435 29.6511C25.8164 30.7782 24.1258 30.3837 22.8296 30.9473C21.5898 31.3981 20.7444 32.5252 19.5046 32.807C19.1101 32.9197 19.0537 33.0888 19.3355 33.0888C19.4482 33.0888 20.2372 33.8778 21.477 33.2579C21.8715 33.0324 23.1677 32.3562 23.3931 32.2998C22.7169 32.9761 22.3787 33.5396 21.7588 33.8778C21.3643 34.1032 19.8427 34.6667 18.3211 34.3286C17.6449 34.2159 17.1377 34.8358 17.3067 34.8358C17.6449 34.7231 18.0957 34.7795 18.3211 35.1176C18.772 35.4557 19.3919 35.9066 19.9554 35.2303C20.1245 35.0049 21.0262 34.554 21.8715 35.3994C20.9698 35.343 21.0826 36.921 19.3919 36.7519C18.772 36.7519 17.4194 35.343 17.0249 35.7939C16.3487 36.5828 18.4902 37.3155 17.5885 38.2735C16.7432 39.1752 15.7288 37.5972 15.7288 37.5972C16.236 37.8227 17.2504 37.9354 16.7995 37.09C16.6305 36.7519 16.2923 36.4138 16.2923 35.7939C16.236 35.4557 14.2635 38.2735 12.9673 37.0337C12.4601 36.5265 11.4457 35.4557 10.4877 35.0049C12.9673 34.7795 13.3055 35.7939 13.4182 35.9629C14.2072 37.0337 14.9398 35.9629 15.1089 35.7375C15.3906 35.4557 15.7288 35.0612 15.6161 35.0049C14.658 34.554 13.5873 34.4413 12.7419 34.8358C14.4889 32.4689 15.8415 34.6667 15.8415 34.6667C16.0105 34.7795 15.7851 33.2579 14.0945 33.1451C13.0237 33.0888 12.0656 34.0468 11.333 34.0468C10.7131 34.0468 8.90973 32.807 8.45889 31.7363C9.52964 32.5252 10.8822 32.9761 11.7275 32.4689C13.3055 31.5108 15.3343 32.9761 15.3906 32.807C14.9398 32.4689 13.9254 31.1163 11.2203 31.849C10.1496 32.4689 9.69871 31.3981 9.0788 31.3981C10.2059 30.4401 10.9385 30.8909 11.333 30.9473C11.4457 30.9473 10.8822 30.4964 10.4877 30.4401C7.44448 30.1019 5.58475 29.313 5.58475 29.313C5.58475 29.313 5.81017 28.693 7.10635 29.1439C7.10635 29.1439 5.92288 28.4113 5.97924 27.5096C6.03559 26.946 6.31737 26.3261 5.86652 25.8753C7.61355 25.8189 6.37373 28.2422 7.61355 28.8621C7.61355 28.8621 7.27542 28.2986 7.78262 27.7914C8.0644 28.524 8.68431 28.8621 9.0788 28.9748C9.19151 28.9185 9.30422 28.693 9.30422 28.693C8.85338 27.9041 8.79702 27.0587 8.90973 26.0443C9.02244 26.0443 9.19151 26.3825 9.30422 26.6642C9.586 27.2278 9.52964 28.0168 10.0368 28.6367C10.3186 28.9748 10.4877 29.3693 10.7695 29.5384C10.8822 29.2566 10.8258 28.8621 10.7695 28.7494C10.7131 28.3549 10.4313 27.6223 11.164 26.946C11.5021 27.9041 11.9529 27.6223 12.0093 28.0731C12.0656 28.693 12.0656 28.6367 12.0093 29.0875C12.0656 29.7638 12.6856 29.9329 13.1928 30.3837C14.4326 31.06 15.2779 31.3981 15.7851 32.2998C16.0669 30.8346 12.122 30.5528 12.6292 27.735C12.5728 26.6079 12.7419 26.4952 11.9529 25.8189C13.5309 25.8753 14.3762 28.4676 14.4889 28.9185C14.658 29.7638 15.1652 29.8202 15.8978 30.9473C16.0105 31.0036 14.6017 27.9604 16.2923 25.3117C16.2923 25.3117 16.8559 26.6642 16.5741 27.5659C16.405 28.1295 16.5741 28.693 16.5741 29.0312C16.6305 29.3693 16.5177 27.7914 17.7012 27.0024C17.7576 27.6223 18.3211 28.524 17.8139 29.5384C17.1377 30.7219 17.0813 30.3274 17.0813 31.7926C17.1377 31.7926 17.3067 30.7782 17.7576 30.2146C18.7156 29.0312 18.0393 28.3549 18.941 27.3405C18.9974 27.8477 19.1665 27.6786 19.2228 28.1295C19.3355 29.1439 18.2648 30.3274 18.4902 30.271C18.772 30.2146 19.2228 29.9892 19.3355 29.2002C19.3355 29.2002 19.73 29.9329 19.3919 30.1583C18.7156 30.6091 18.6029 31.06 18.7156 31.5672C19.2228 30.9473 19.9554 30.2146 19.8427 29.313C19.8991 28.7494 20.519 28.524 20.6317 27.2842C20.6317 27.0587 20.8571 26.8333 21.0826 26.7206C20.9698 27.4532 21.5334 28.1858 20.9135 29.0312C21.0826 29.0875 21.5898 28.3549 22.3787 28.6367C20.8008 28.9185 21.2516 30.6091 20.0682 31.3981C19.73 31.6235 19.7864 31.9053 19.6737 31.9053C20.7444 31.849 21.5334 30.5528 21.7025 30.4964C22.7732 29.7638 22.9986 29.6511 23.4495 28.4676C23.6186 28.0168 23.5058 27.8477 24.0694 27.2278C24.3512 27.8477 23.9567 29.0312 23.844 29.313C23.6749 29.8765 22.9986 30.3837 23.1114 30.3837C25.9855 29.1439 25.9291 28.2422 26.6054 27.3405C26.8308 27.0024 27.8452 26.3825 28.2397 26.3261C28.127 26.4952 27.7325 26.8333 27.7325 27.1714C27.6762 27.7914 27.5071 28.1858 27.169 28.693C27.338 28.9185 27.6762 28.2986 28.0143 28.5803C27.5071 28.8621 27.338 29.3693 26.9435 29.6511ZM27.4507 29.482C27.2817 30.3274 26.9999 31.1163 26.4927 31.7926C26.1546 32.2998 25.9855 31.2854 26.3236 30.3274C26.7181 30.2146 27.169 29.8765 27.4507 29.482ZM25.2529 8.29229C25.1965 8.29229 25.0275 8.23594 24.9711 8.23594C24.8584 8.23594 24.8584 8.34865 24.9711 8.40501C25.0275 8.40501 25.1965 8.46136 25.3092 8.46136C25.3656 8.46136 25.3092 8.34865 25.2529 8.29229ZM24.9147 8.68679C24.9711 8.68679 25.0838 8.74314 25.2529 8.74314C25.3092 8.74314 25.3092 8.63043 25.2529 8.57407C25.1965 8.57407 25.0275 8.51772 24.9711 8.51772C24.8584 8.57407 24.802 8.68679 24.9147 8.68679ZM24.9147 10.5465C24.8584 10.4902 24.6893 10.3211 24.5203 10.2084C24.4075 10.2647 24.2385 10.4338 24.1258 10.4902C24.013 10.3775 23.9003 10.2647 23.7313 10.152C23.6186 10.2084 23.3368 10.4902 23.2241 10.5465C23.3931 10.5465 23.6749 10.6029 23.6749 10.7719C23.6749 10.8847 23.6749 11.7863 23.6749 11.9554C23.7876 11.9554 23.9003 11.9554 24.0694 11.9554C24.0694 11.8427 24.0694 10.8283 24.0694 10.7156C24.1258 10.6592 24.1821 10.6592 24.2385 10.6029C24.2948 10.6592 24.5203 10.8847 24.633 10.941C24.6893 10.8847 24.9147 10.7156 24.9711 10.6029C25.0838 10.4902 25.0275 10.4338 24.9147 10.5465ZM24.4075 9.08127C24.5203 8.91221 24.6893 8.57407 24.633 8.34865C24.633 8.06687 24.4639 7.61603 24.013 7.50332C23.5058 7.67238 23.1677 8.12323 23.1114 8.63043C23.1114 8.91221 23.3368 9.53212 23.844 9.53212C24.0694 9.36305 24.2385 9.19399 24.4075 9.08127ZM24.0694 9.19399C23.9567 9.13763 23.6186 8.85585 23.5058 8.63043C23.3931 8.34865 23.3931 8.01052 23.7313 7.84145C23.9567 7.95416 24.2385 8.17958 24.2948 8.40501C24.3512 8.68678 24.2385 9.02492 24.0694 9.19399ZM24.0694 6.99611L24.4639 6.60162C24.4639 6.60162 24.2948 6.48891 24.1821 6.31985C24.1821 6.20714 24.1821 5.41816 24.2385 5.3618C23.9567 5.08002 23.7313 5.08002 23.6186 5.08002C23.3931 5.13638 23.1677 5.41816 23.055 5.53087C22.9986 5.58722 22.9986 5.69993 23.055 5.75629C23.1114 5.81265 23.1677 5.81265 23.2241 5.869C23.2241 5.869 23.2241 5.869 23.1677 5.869C23.055 5.98171 22.8859 6.26349 22.8859 6.48891C22.8859 6.71434 23.055 6.99611 23.1677 7.10883C23.2804 6.99611 23.5058 6.82705 23.7876 6.77069C23.9003 6.82705 23.9567 6.8834 24.0694 6.99611ZM23.844 5.98171C23.6749 5.92536 23.2804 5.75629 23.1677 5.64358C23.1114 5.58722 23.1114 5.58722 23.1677 5.53087C23.2804 5.41816 23.3368 5.30544 23.3931 5.30544C23.4495 5.30544 23.844 5.53087 23.844 5.58722C23.844 5.69993 23.844 5.869 23.844 5.98171ZM23.844 6.54527C23.7313 6.54527 23.6749 6.60162 23.5058 6.65798C23.3931 6.60162 23.1114 6.26349 23.3368 5.869L23.2804 5.81265C23.4495 5.92536 23.6749 5.98171 23.844 6.03807C23.844 6.20714 23.844 6.31985 23.844 6.3762C23.844 6.48891 23.844 6.54527 23.844 6.54527ZM22.7732 4.8546C22.6605 4.8546 22.097 4.8546 22.0406 4.8546C21.9842 4.74189 21.9842 4.57282 22.097 4.3474C22.1533 4.23469 22.0406 4.17833 21.9842 4.29104C21.9279 4.40375 21.6461 4.79824 21.308 4.96731C21.1389 5.02367 21.5334 5.19273 21.477 5.19273C21.477 5.58722 21.5334 6.20714 21.6461 6.43256C21.7025 6.60163 21.8715 6.82705 21.9842 6.71434C22.0406 6.65798 22.2097 6.3762 22.266 6.31985C22.3787 6.26349 22.266 6.15078 22.2097 6.20713C22.1533 6.26349 22.0406 6.15078 22.0406 6.09442C22.0406 6.03807 21.9279 5.13638 21.9842 5.13638C21.9842 5.13638 22.7169 5.02367 22.7732 5.02367C22.7732 5.02367 22.8296 4.8546 22.7732 4.8546ZM20.8008 6.48891L21.0826 6.09442C20.8571 6.03807 20.8008 6.03807 20.6317 5.869V4.91095L20.3499 4.62918H20.2372L19.7864 5.02367C19.73 5.08002 19.8427 5.08002 19.9554 5.02367L20.2936 5.24909V6.15078C20.2936 6.26349 20.4063 6.3762 20.5754 6.48891H20.8008ZM20.519 4.3474L20.6881 4.17833V3.95291L20.4626 3.78384L20.2372 3.95291V4.23469L20.3499 4.3474H20.519ZM19.7864 4.06562C19.6737 4.06562 19.2228 4.06562 19.1101 4.12198C18.941 4.12198 18.941 4.23469 19.1101 4.23469C19.2228 4.23469 19.2792 4.29104 19.3355 4.46011C19.3919 4.62918 19.1101 5.41816 18.9974 5.58722C18.8847 5.47451 18.6029 4.74189 18.6029 4.62918C18.6029 4.57282 18.772 4.51646 18.8283 4.46011C18.941 4.40375 18.941 4.3474 18.8283 4.3474C18.6029 4.29104 17.7012 4.23469 17.5321 4.23469C17.4194 4.23469 17.3631 4.3474 17.5321 4.3474C17.7012 4.3474 17.8139 4.29104 17.983 4.51647C18.1521 4.79824 18.7156 5.98171 18.8847 6.48891C18.941 6.3762 19.5046 4.74189 19.561 4.57282C19.6173 4.40375 19.73 4.23469 19.8991 4.17833C19.8991 4.17833 19.8991 4.06562 19.7864 4.06562ZM17.0813 8.01052C17.0813 8.68678 17.3631 8.74314 17.6449 8.91221C17.9266 9.08127 18.4338 9.02492 18.772 8.96856C18.8847 8.91221 18.9974 8.91221 18.9974 9.02492C18.9974 9.08127 19.1101 9.08127 19.1101 9.02492C19.1101 8.96856 19.1101 8.40501 19.1101 8.34865C19.1101 8.2923 18.9974 8.2923 18.9974 8.34865C18.9974 8.46136 18.9974 8.46136 18.8847 8.63043C18.6593 9.02492 17.983 8.96856 17.6449 8.51772C17.5321 8.34865 17.4194 8.17958 17.5321 8.12323C17.6449 8.06687 18.0957 8.17958 18.3211 8.17958C18.4902 8.17958 18.8283 8.23594 18.8847 8.23594C18.941 8.29229 18.9974 8.29229 18.9974 8.23594C18.9974 8.17958 18.9974 7.89781 18.9974 7.84145C18.9974 7.78509 18.941 7.78509 18.8847 7.84145C18.8283 7.89781 18.4338 7.95416 18.2648 7.95416C18.0957 8.01052 17.5885 8.01052 17.4758 7.95416C17.3631 7.89781 17.3631 7.67238 17.5321 7.50332C17.8703 7.05247 18.5465 7.10883 18.8283 7.44696C18.941 7.55967 18.941 7.61603 18.941 7.72874C18.941 7.78509 19.0538 7.78509 19.0538 7.72874C19.0538 7.67238 19.0538 6.99611 19.0538 6.93976C19.0538 6.8834 18.941 6.8834 18.941 6.93976C18.941 6.99611 18.8283 6.99611 18.7156 6.99611C18.4902 6.93976 17.8703 7.05247 17.5885 7.16518C17.4758 7.27789 17.0813 7.61603 17.0813 8.01052ZM17.194 9.19399C17.194 9.36305 17.2504 11.0537 17.2504 11.2791C17.2504 11.3919 17.4194 11.5609 17.5885 11.6736C17.6449 11.5609 17.8139 11.3355 17.983 11.2228C18.0393 11.1664 17.983 11.1101 17.9266 11.1101C17.8139 11.1664 17.6449 11.1101 17.6449 10.9974C17.6449 10.8283 17.6449 9.41941 17.6449 9.19399C17.5885 9.19399 17.3067 9.19399 17.194 9.19399ZM18.6029 10.5465C18.4902 10.6592 18.3211 10.941 18.3211 11.1101C18.3211 11.3355 18.4338 11.5046 18.5465 11.6173C18.772 11.5046 18.8847 11.2791 19.2228 11.1664C19.2792 11.3355 19.3919 11.3355 19.5046 11.4482C19.561 11.3355 19.8427 10.9974 19.9554 10.941C20.0118 10.8847 19.9554 10.8283 19.8991 10.8847C19.7864 10.941 19.73 10.8847 19.6173 10.7719C19.6173 10.6592 19.6173 9.98297 19.6173 9.92661C19.5046 9.75754 19.3355 9.58847 19.1665 9.58847C18.941 9.58847 18.6593 10.0393 18.5465 10.0957C18.4338 10.2084 18.4902 10.4902 18.6029 10.5465C18.5465 10.5465 18.5465 10.5465 18.6029 10.5465ZM18.772 10.6592C18.8847 10.7156 18.941 10.6592 19.1665 10.6592C19.1665 10.7719 19.1665 10.8847 19.1665 10.941C19.0538 10.9974 18.941 11.0537 18.8283 11.1101C18.7156 11.1101 18.5465 10.9974 18.772 10.6592ZM18.6593 10.0957C18.772 9.98297 18.772 9.92661 18.8847 9.92661C18.941 9.92661 19.1665 10.0957 19.1665 10.2084C19.1665 10.2647 19.1665 10.4338 19.1665 10.6029C18.9974 10.6029 18.8847 10.6592 18.6593 10.4902C18.6029 10.4338 18.6029 10.152 18.6593 10.0957ZM20.0682 9.8139C19.8991 9.87025 20.2936 10.0393 20.2372 10.0393C20.2372 10.4338 20.1245 11.1101 20.2936 11.2791C20.4063 11.3919 20.5754 11.5046 20.6881 11.4482C20.8008 11.3919 20.9698 11.1664 21.0262 11.1101C21.1389 11.0537 21.0262 10.941 20.9698 11.0537C20.9135 11.1101 20.6881 11.0537 20.6317 10.9974C20.6317 10.941 20.5754 10.0393 20.6317 10.0393C20.6317 10.0393 20.8571 10.0393 20.9698 10.0393C21.0262 10.0393 21.0262 9.87025 20.9698 9.87025C20.8571 9.87025 20.6881 9.87025 20.6881 9.8139C20.6317 9.75754 20.6881 9.47576 20.7444 9.36305C20.8008 9.25034 20.6881 9.19399 20.6317 9.3067C20.6317 9.41941 20.3499 9.70119 20.0682 9.8139ZM20.1245 8.01052C20.1245 8.40501 19.9554 8.7995 19.73 8.96856C20.1245 8.85585 20.1245 8.63043 20.3499 8.40501C20.4626 8.57407 20.6881 8.74314 20.8008 8.85585C20.9135 8.7995 21.1953 8.46136 21.2516 8.34865C21.0262 8.2923 20.6317 8.06687 20.519 7.84145C20.4626 7.67238 20.4626 7.55967 20.519 7.44696C20.5754 7.55967 21.0826 7.78509 21.3643 7.3906C21.1389 7.27789 20.8571 7.10883 20.8008 6.99611C20.7444 7.05247 20.519 7.27789 20.4063 7.3906C20.3499 7.27789 20.1809 7.10883 20.0118 7.05247C19.9554 7.10883 19.561 7.3906 19.3919 7.50332C19.3355 7.50332 19.3355 7.67238 19.4482 7.61603C19.5046 7.55967 19.6173 7.50332 19.7864 7.44696C19.9554 7.50332 20.1245 7.67238 20.1245 8.01052ZM21.9279 8.06687C21.9842 7.84145 22.1533 7.72874 22.2097 7.67238C22.3224 7.78509 22.4351 7.8978 22.6042 7.8978C22.7732 7.8978 22.9423 7.84145 22.9423 7.78509C22.8296 7.67238 22.5478 7.3906 22.4914 7.33425C22.3224 7.3906 21.7025 7.72874 21.6461 8.12323C21.5898 8.68679 21.7588 8.7995 21.9842 9.08127C22.097 9.25034 22.3787 9.25034 22.4351 9.25034C22.5478 9.19399 22.9423 8.7995 22.9986 8.74314C23.055 8.68678 22.9986 8.63043 22.9423 8.68679C22.8859 8.74314 22.8859 8.74314 22.8296 8.74314C22.7732 8.74314 22.4914 8.7995 22.3224 8.74314C22.1533 8.63043 21.8715 8.40501 21.9279 8.06687ZM21.5898 9.87025C21.477 9.98296 21.308 10.0957 21.1953 10.2647C21.308 10.2647 21.4207 10.3211 21.477 10.4338C21.5334 10.5465 21.477 11.0537 21.477 11.2791C21.477 11.4482 21.5898 11.5046 21.7588 11.6736C21.9279 11.6173 22.3224 11.4482 22.4914 11.3355C22.4914 11.5046 22.6605 11.6736 22.7732 11.73C22.8296 11.6173 22.9423 11.6173 23.055 11.5046C22.9423 11.4482 22.9423 11.3919 22.9423 11.2791C22.8859 11.1101 22.9423 10.6029 22.9423 10.3775C22.8296 10.2647 22.7169 10.0957 22.5478 9.98297C22.4351 10.0957 22.3224 10.2084 22.1533 10.3775C22.266 10.3775 22.5478 10.4338 22.5478 10.4902C22.5478 10.6029 22.5478 10.941 22.5478 11.1664C22.5478 11.3919 21.8715 11.2791 21.8715 11.1101C21.8715 10.941 21.9279 10.4902 21.9279 10.2647C21.8152 10.0393 21.7588 9.98296 21.5898 9.87025ZM17.4758 15.4495C17.1377 15.3931 16.8559 15.1113 16.5177 14.9986C16.0669 14.8296 15.5597 15.1677 15.5597 15.224C15.5597 15.3368 15.6724 15.3931 16.0669 15.1677C15.7851 15.5058 16.1233 15.7876 16.1233 15.7876C16.0105 15.7876 15.8415 15.7312 15.7288 15.6749C15.7288 15.7876 15.8978 15.844 15.9542 15.9003C16.5177 16.1821 16.9122 15.5622 17.4758 15.4495ZM16.4614 15.7876C16.4614 15.7876 16.6305 15.6185 16.6305 15.5058C16.6305 15.3368 16.4614 15.224 16.4614 15.224C16.5741 15.2804 16.9122 15.4495 17.0249 15.5058L16.4614 15.7876ZM13.2491 10.9974C13.0237 10.941 13.1364 10.941 13.0237 10.8847V10.0957L12.7419 9.70119H12.6292L12.2347 10.0957C12.122 10.2084 12.2347 10.2084 12.3474 10.152L12.6292 10.2647V11.1101C12.6292 11.2228 12.7419 11.2228 12.8546 11.3919L13.2491 10.9974ZM13.1928 8.34865C13.3055 8.74314 13.6436 8.85585 13.869 8.85585C13.9254 8.74314 14.0945 8.51772 14.1508 8.40501C14.2635 8.23594 14.1508 8.17958 14.0945 8.34865C14.0381 8.46136 13.7 8.34865 13.5873 8.23594C13.4182 8.12323 13.3618 7.72874 13.4745 7.61603C13.5873 7.50332 13.7563 7.55967 13.9817 7.55967C14.1508 7.55967 14.1508 7.3906 14.2072 7.33425C14.1508 7.27789 14.0381 7.22154 13.869 7.16518C13.7 7.27789 13.4745 7.44696 13.4182 7.50332C13.3055 7.61603 13.0237 7.95416 13.1928 8.34865ZM13.7563 10.4902C13.5873 10.6592 13.4745 10.8283 13.5309 10.9974C13.5309 11.2228 13.5873 11.3919 13.8127 11.5046C13.9817 11.3919 14.2072 11.2228 14.4326 11.1664C14.5453 11.2791 14.7144 11.3919 14.8271 11.4482C14.8834 11.3919 15.1089 11.1664 15.1652 11.1101C15.2216 11.0537 15.1652 10.941 15.1089 11.0537C15.0525 11.1101 14.8834 11.0537 14.8834 10.9974C14.8834 10.941 14.8271 10.0393 14.8271 9.98297C14.7144 9.8139 14.4889 9.53212 14.3199 9.53212C14.0945 9.53212 13.7563 9.87025 13.7 9.98297C13.6436 10.0393 13.7 10.4338 13.7563 10.4902C13.7563 10.4338 13.7563 10.4338 13.7563 10.4902ZM14.3199 10.5465C14.1508 10.5465 14.0381 10.4902 13.8127 10.3211C13.7563 10.2647 13.7563 10.0957 13.8127 10.0393C13.869 9.92661 13.869 9.87025 13.9817 9.87025C14.0381 9.87025 14.3762 10.0957 14.3762 10.152C14.3762 10.2647 14.3199 10.3775 14.3199 10.5465ZM13.9254 10.5465C14.0945 10.6592 14.1508 10.6592 14.3762 10.6029C14.3762 10.7156 14.3762 10.7719 14.3762 10.8283C14.3762 10.8847 14.3762 10.8847 14.4326 10.941C14.3199 10.9974 14.2072 10.9974 14.0945 11.0537C13.9254 11.0537 13.6436 10.8283 13.9254 10.5465ZM15.1652 8.91221L15.3343 8.74314C15.1089 8.68678 15.1089 8.74314 15.0525 8.63043V7.67238L14.8271 7.3906H14.7144L14.3199 7.78509C14.2072 7.89781 14.3199 7.95416 14.4326 7.84145L14.658 7.95416V8.85585C14.658 8.96856 14.7707 9.02492 14.8834 9.13763L15.1652 8.91221ZM14.8271 5.64358C14.7707 5.64358 14.6017 5.81265 15.1089 5.869C15.1652 5.869 15.2779 5.69993 14.8271 5.64358ZM14.8271 5.3618C14.7707 5.3618 14.6017 5.58722 15.1089 5.58722C15.1652 5.58722 15.2216 5.41816 14.8271 5.3618ZM14.9398 6.82705L14.7144 6.60162L14.4889 6.77069V7.05247L14.6017 7.16518H14.7144L14.8834 7.05247V6.82705H14.9398ZM14.4889 4.8546C14.3199 4.74189 14.2072 4.51647 13.869 4.51647C13.5309 4.51647 13.1364 4.79824 13.0237 5.02367C12.8546 5.30544 13.08 5.53087 13.3055 5.69993C13.1928 5.81265 12.9673 5.98171 12.7983 6.15078C12.8546 6.20714 13.2491 6.43256 13.4745 6.43256C13.8127 6.43256 14.0945 6.26349 14.3199 6.09442C14.658 5.81265 14.5453 5.53087 14.2072 5.30544C14.1508 5.30544 14.1508 5.30544 14.0945 5.24909C14.2635 5.08002 14.4326 4.91095 14.4889 4.8546ZM13.6436 5.58722C13.7563 5.64358 13.869 5.69993 13.9817 5.75629C14.1508 5.869 14.0945 6.03807 13.869 6.15078C13.6436 6.26349 13.3055 5.98171 13.2491 5.869C13.3055 5.81265 13.4745 5.69993 13.6436 5.58722ZM13.9817 5.08002C13.9254 5.08002 13.869 5.19273 13.7563 5.24909C13.7 5.24909 13.6436 5.24909 13.5873 5.24909C13.4182 5.24909 13.3055 5.08002 13.2491 4.96731C13.1928 4.8546 13.3618 4.74189 13.4745 4.79824C13.5873 4.79824 13.869 4.96731 13.9817 5.08002ZM12.5728 5.81265C12.0656 5.92536 11.8402 5.53087 11.7839 5.41816C12.0093 5.19273 12.3474 4.8546 12.5728 4.68553C12.4038 4.57282 12.3474 4.3474 12.122 4.3474C11.8966 4.3474 11.3894 4.62918 11.2767 5.24909C11.164 5.869 11.7839 6.20713 12.2347 6.20713C12.4038 6.20713 12.5728 5.98171 12.6856 5.98171C12.8546 5.869 12.7983 5.75629 12.5728 5.81265ZM11.7275 5.30544C11.6148 4.91095 11.6712 4.74189 11.8966 4.51647C11.9529 4.68553 12.122 4.74189 12.1784 4.79824C12.0656 4.96731 11.8402 5.24909 11.7275 5.30544ZM11.1076 4.96731C11.2203 4.8546 11.1076 4.79824 11.0512 4.91095C10.9949 4.8546 10.8258 4.68553 10.7695 4.57282C10.7131 4.62918 10.4877 4.74189 10.375 4.79824C10.3186 4.68553 10.2059 4.68553 10.0368 4.57282C9.92413 4.62918 9.75506 4.79824 9.64235 4.91095C9.81142 4.96731 9.98049 4.96731 9.98049 5.13638C9.98049 5.24909 9.98049 6.09442 9.98049 6.26349C10.0932 6.26349 10.2059 6.26349 10.375 6.26349C10.375 6.15078 10.375 5.08002 10.375 4.96731C10.4313 4.91095 10.4877 4.91095 10.544 4.8546C10.6004 4.91095 10.7131 5.08002 10.8258 5.13638C10.8258 5.13638 11.0512 5.02367 11.1076 4.96731ZM9.52964 7.10883C9.30422 7.10883 8.96609 7.3906 8.90973 7.61603C8.85338 7.72874 8.90973 8.01052 8.96609 8.06687C9.02244 8.06687 9.02244 8.12323 9.02244 8.12323C8.85338 8.23594 8.74066 8.34865 8.74066 8.57407C8.74066 8.74314 8.90973 8.91221 9.0788 9.02492C9.19151 8.85585 9.36058 8.74314 9.52964 8.74314C9.52964 8.91221 9.586 9.02492 9.69871 9.08127C9.75507 9.02492 10.0368 8.74314 10.0932 8.68679C10.1496 8.63043 10.0932 8.57407 10.0368 8.63043C9.98049 8.68678 9.86778 8.63043 9.86778 8.57407C9.86778 8.51772 9.86778 7.61603 9.92413 7.55967C9.81142 7.3906 9.64235 7.10883 9.52964 7.10883ZM9.52964 8.01052C9.30422 8.17958 9.19151 8.17958 9.02244 7.95416C8.96609 7.84145 8.96609 7.67238 8.96609 7.61603C9.02244 7.50332 9.19151 7.3906 9.24786 7.3906C9.30422 7.3906 9.52964 7.61603 9.47329 7.72874C9.52964 7.78509 9.52964 7.89781 9.52964 8.01052ZM9.52964 8.46136C9.52964 8.51772 9.52964 8.57407 9.52964 8.57407C9.47329 8.57407 9.41693 8.57407 9.36058 8.63043C9.24786 8.57407 8.85337 8.40501 9.13515 8.17958C9.30422 8.29229 9.36058 8.17958 9.52964 8.12323C9.52964 8.2923 9.52964 8.40501 9.52964 8.46136ZM9.36058 6.60162C9.30422 6.54527 9.24786 6.48891 9.24786 6.43256C9.24786 6.3762 9.24786 5.869 9.24786 5.75629C9.24786 5.69993 9.13515 5.69993 9.13515 5.75629C9.13515 5.869 9.13515 6.03807 9.0788 6.15078C8.85337 6.48891 8.40253 6.65798 8.0644 6.20713C7.95168 6.03807 7.95168 5.81265 7.89533 5.69993C7.89533 5.47451 8.0644 5.19273 8.0644 5.19273C8.45889 4.68553 9.02244 5.08002 9.0788 5.24909C9.13515 5.41816 9.13515 5.58722 9.13515 5.64358C9.13515 5.69993 9.24786 5.69993 9.24786 5.64358C9.24786 5.58722 9.24786 4.74189 9.24786 4.68553C9.24786 4.62918 9.13515 4.62918 9.13515 4.68553C9.13515 4.79824 9.0788 4.79824 8.96609 4.79824C8.74066 4.74189 8.28982 4.62918 8.0644 4.79824C7.83897 4.91095 7.50084 5.24909 7.50084 5.64358C7.50084 6.31985 7.78262 6.3762 8.0644 6.54527C8.34617 6.71434 8.68431 6.60162 9.02244 6.48891C9.13515 6.43256 9.19151 6.54527 9.24786 6.65798C9.36058 6.77069 9.41693 6.71434 9.36058 6.60162ZM7.50084 7.50332C7.27542 7.84145 7.1627 8.40501 7.55719 8.74314C7.72626 8.91221 7.89533 9.02492 8.28982 8.96856C8.34617 8.7995 8.40253 8.74314 8.51524 8.57407C8.23346 8.63043 8.0644 8.57407 7.83897 8.40501C7.44448 8.12323 7.55719 7.61603 7.6699 7.44696C7.89533 7.10883 8.17711 7.55967 8.23346 7.61603C8.28982 7.55967 8.40253 7.3906 8.51524 7.33425C8.40253 7.16518 8.28982 7.05247 8.23346 6.93976C8.0644 7.05247 7.66991 7.27789 7.50084 7.50332ZM7.6699 10.4902C7.61355 11.1101 8.17711 11.5046 8.45889 11.6173C8.51524 11.4482 8.68431 11.2228 8.79702 11.0537C8.90973 10.941 8.79702 10.8847 8.68431 10.9974C8.5716 11.1664 8.17711 10.9974 8.0644 10.8283C8.23346 10.6592 8.74066 10.2647 8.96609 10.0957C8.85338 9.98297 8.62795 9.64483 8.62795 9.47576C8.40253 9.58848 7.78262 9.87025 7.6699 10.4902ZM8.28982 9.8139C8.34617 9.98297 8.51524 10.2084 8.62795 10.2647C8.45888 10.4338 8.12075 10.6592 8.0644 10.7156C7.83897 10.5465 7.78262 10.152 8.28982 9.8139ZM9.586 9.58847C9.47329 9.70119 9.36058 9.8139 9.19151 9.92661C9.24786 10.0393 9.41693 10.152 9.41693 10.3211C9.41693 10.4902 9.41693 11.2791 9.41693 11.4482C9.52964 11.4482 9.52964 11.4482 9.75507 11.4482C9.75507 11.3355 9.75507 10.3211 9.75507 10.152C9.81142 10.0957 9.86778 10.0393 9.92413 9.98297C9.98049 10.0393 10.1496 10.0957 10.1496 10.2084C10.1496 10.3211 10.2059 10.7719 10.1496 10.941C10.0932 11.1664 10.1496 11.3355 10.2623 11.5046C10.375 11.3919 10.6568 11.1664 10.7695 11.1101C10.8258 11.0537 10.8258 10.9974 10.7131 11.0537C10.6004 11.0537 10.6004 11.1101 10.6004 11.0537C10.6004 10.941 10.544 10.4338 10.544 10.0957C10.544 9.75754 10.375 9.64483 10.2623 9.64483C10.1496 9.75754 9.98049 9.87025 9.81142 9.98297C9.75507 9.92661 9.69871 9.75754 9.586 9.58847ZM10.9385 8.7995C11.0512 8.68678 11.1076 8.57407 11.164 8.51772C11.2767 8.46136 11.164 8.34865 11.1076 8.46136C11.0512 8.51772 10.8822 8.40501 10.8822 8.40501C10.8258 8.34865 10.7695 7.55967 10.7695 7.55967C10.7695 7.55967 11.2767 7.50332 11.333 7.50332C11.3894 7.50332 11.3894 7.33425 11.333 7.33425C11.2767 7.33425 10.8822 7.3906 10.8822 7.33425C10.8822 7.27789 10.8258 6.99611 10.9385 6.77069C10.9949 6.65798 10.9385 6.54527 10.8822 6.65798C10.8258 6.77069 10.544 7.22154 10.3186 7.33425C10.1496 7.3906 10.1496 7.44696 10.2623 7.44696C10.3186 7.44696 10.4313 7.55967 10.4313 7.55967C10.4313 7.95416 10.375 8.40501 10.4877 8.63043C10.6004 8.74314 10.8258 8.91221 10.9385 8.7995ZM12.5728 8.96856C12.5165 9.08127 12.4038 9.19399 12.2347 9.25034C12.3474 9.36305 12.4601 9.47576 12.5728 9.53212C12.6856 9.41941 12.7983 9.3067 12.911 9.19399C12.7983 9.19399 12.6856 9.13763 12.5728 8.96856ZM11.8402 8.57407C12.0093 8.57407 12.2347 8.63043 12.5165 8.63043C12.8546 8.63043 13.08 8.12323 12.9673 7.72874C12.8546 7.33425 12.4038 7.44696 12.122 7.33425C11.8402 7.27789 11.7839 7.10883 12.0656 6.93976C12.4038 6.71434 12.7983 7.05247 12.8546 7.16518C12.911 7.27789 12.9673 7.27789 12.9673 7.10883C12.9673 6.77069 12.9673 6.99611 12.911 6.65798C12.911 6.54527 12.7983 6.54527 12.7983 6.65798C12.7983 6.77069 12.6856 6.71434 12.5728 6.71434C12.4601 6.71434 12.1784 6.65798 11.9529 6.82705C11.7839 6.93976 11.4457 7.16518 11.6712 7.50332C11.7839 7.67238 12.4601 7.84145 12.6292 7.95416C12.7983 8.06687 12.8546 8.34865 12.6856 8.46136C12.4601 8.63043 11.9529 8.46136 11.8402 8.40501C11.7275 8.2923 11.6712 8.17958 11.6712 8.06687C11.6712 7.89781 11.5021 7.95416 11.5021 8.06687C11.5021 8.17958 11.5584 8.63043 11.5584 8.74314C11.5584 8.85585 11.6712 8.7995 11.7275 8.74314C11.7275 8.57407 11.7275 8.57407 11.8402 8.57407ZM11.1076 9.92661C10.9949 10.0393 11.2767 10.152 11.2203 10.152C11.2203 10.5465 11.164 10.941 11.333 11.1664C11.4457 11.2791 11.6712 11.3919 11.7275 11.2791C11.7839 11.1664 11.9529 10.941 12.0093 10.8847C12.0656 10.8283 12.0093 10.7719 11.9529 10.8283C11.7839 10.9974 11.7275 10.8847 11.6148 10.8283C11.5584 10.7719 11.5584 10.2084 11.5584 10.2084C11.5584 10.2084 11.8402 10.152 11.8966 10.152C11.9529 10.152 11.9529 9.98297 11.8966 9.98297C11.8402 9.98297 11.5584 9.98297 11.5584 9.92661C11.5021 9.87025 11.6148 9.47576 11.6148 9.3067C11.6148 9.19399 11.5584 9.13763 11.5584 9.25034C11.5584 9.36305 11.2767 9.8139 11.1076 9.92661Z" fill="#800000"/>
</svg>
