<svg width="42" height="42" viewBox="0 0 42 42" fill="none" xmlns="http://www.w3.org/2000/svg"><path d="M15.77 20.988v-4.759h-1.856v4.831c0 1.338-.687 2.024-1.82 2.024-1.132 0-1.819-.71-1.819-2.084V16.23H8.42v4.82c0 2.481 1.385 3.746 3.65 3.746 2.266 0 3.7-1.253 3.7-3.807zM24.948 24.663l-2.06-3.012c1.072-.398 1.807-1.253 1.807-2.615v-.024c0-1.735-1.192-2.783-3.18-2.783h-3.856v8.434h1.856v-2.7h1.457l1.808 2.7h2.168zm-2.132-5.53c0 .71-.518 1.192-1.422 1.192h-1.88v-2.421h1.844c.904 0 1.458.41 1.458 1.204v.025zM33.438 16.06v5.567c0 .594-.132 1.132-.397 1.614-.257.474-.651.851-1.181 1.133-.522.273-1.185.41-1.988.41-1.14 0-2.008-.29-2.602-.868-.595-.587-.892-1.358-.892-2.314V16.06h1.82v5.265c0 .707.144 1.205.433 1.494.29.29.719.434 1.29.434.594 0 1.023-.157 1.288-.47.273-.313.41-.803.41-1.47V16.06h1.82zm-1.53-1.964v1.241H27.92v-1.24h3.988z" fill="#000"/><path d="M11.441 28.21v-.01c0-.587-.385-.833-1.07-1.011-.583-.15-.727-.222-.727-.444v-.01c0-.163.15-.293.434-.293.284 0 .578.125.877.332l.385-.559a1.953 1.953 0 00-1.253-.429c-.689 0-1.18.405-1.18 1.017v.01c0 .67.438.858 1.117 1.031.564.145.68.241.68.429v.01c0 .197-.183.318-.487.318-.385 0-.703-.16-1.007-.41l-.439.525c.405.362.921.54 1.432.54.728 0 1.238-.376 1.238-1.046zM15.72 27.01V27c0-.688-.488-1.166-1.292-1.166h-1.379v3.374h.742v-1.012h.564c.757 0 1.364-.405 1.364-1.186zm-.753.015c0 .289-.216.51-.588.51h-.588v-1.03h.574c.371 0 .602.178.602.51v.01zM20.668 27.521v-.01c0-.959-.747-1.734-1.787-1.734-1.041 0-1.798.785-1.798 1.744v.01c0 .959.747 1.735 1.788 1.735 1.04 0 1.797-.786 1.797-1.745zm-.776.01c0 .578-.414 1.05-1.011 1.05-.598 0-1.022-.482-1.022-1.06v-.01c0-.578.414-1.05 1.012-1.05.597 0 1.021.482 1.021 1.06v.01zM25.206 29.208l-.824-1.205c.43-.159.723-.501.723-1.046v-.01c0-.693-.477-1.113-1.272-1.113H22.29v3.374h.742v-1.08h.583l.723 1.08h.867zm-.853-2.212c0 .284-.207.477-.568.477h-.752v-.969h.737c.362 0 .583.164.583.482v.01zM29.291 26.519v-.685h-2.795v.685h1.027v2.689h.742v-2.69h1.026zM33.194 28.21v-.01c0-.587-.386-.833-1.07-1.011-.583-.15-.728-.222-.728-.444v-.01c0-.163.15-.293.434-.293.285 0 .578.125.877.332l.386-.559a1.953 1.953 0 00-1.253-.429c-.69 0-1.18.405-1.18 1.017v.01c0 .67.438.858 1.117 1.031.564.145.68.241.68.429v.01c0 .197-.184.318-.487.318-.386 0-.704-.16-1.007-.41l-.439.525c.405.362.92.54 1.431.54.728 0 1.239-.376 1.239-1.046z" fill="#00A84F"/><path fill-rule="evenodd" clip-rule="evenodd" d="M39.554 21c0-10.247-8.307-18.554-18.554-18.554V1c11.046 0 20 8.954 20 20s-8.954 20-20 20S1 32.046 1 21h1.446c0 10.247 8.307 18.554 18.554 18.554 10.247 0 18.554-8.307 18.554-18.554z" fill="#00A84F" stroke="#00A84F" stroke-width="1.4"/></svg>
