<svg width="90" height="28" viewBox="0 0 90 28" fill="none" xmlns="http://www.w3.org/2000/svg">
<path d="M88.969 17.642C88.8431 17.6412 88.7185 17.6662 88.6027 17.7156C88.4869 17.7649 88.3825 17.8376 88.296 17.929C87.387 18.867 86.198 19.439 84.813 19.439C84.0358 19.4403 83.2699 19.2529 82.581 18.893C80.767 17.946 79.594 15.878 79.92 13.574C80.276 11.045 82.487 9.16301 84.965 9.23601C86.287 9.27601 87.422 9.84001 88.299 10.745C88.3853 10.8363 88.4896 10.9088 88.6052 10.958C88.7208 11.0073 88.8453 11.0321 88.971 11.031C89.525 11.031 90 10.541 90 10.011C90 9.76401 89.922 9.48101 89.722 9.27601C88.5925 8.09537 87.0726 7.36511 85.445 7.22101C81.532 6.87301 78.01 10.061 77.888 14.107C77.766 18.173 80.898 21.481 84.813 21.481C86.753 21.481 88.455 20.704 89.722 19.4C89.92 19.196 90 18.91 90 18.666C89.998 18.133 89.522 17.642 88.969 17.642ZM71.535 15.095C72.818 14.36 73.67 12.995 73.629 11.325C73.574 9.00001 71.634 7.19001 69.379 7.19001H63.14C62.594 7.19001 62.151 7.64701 62.151 8.21001V20.093C62.151 20.612 62.509 21.088 63.007 21.145C63.623 21.215 64.13 20.789 64.13 20.171V17.58C64.13 17.38 64.261 17.208 64.447 17.16L67.953 16.265L69.4 15.885C69.4958 15.8605 69.5972 15.871 69.6859 15.9147C69.7747 15.9583 69.8449 16.0322 69.884 16.123L71.843 20.563C72.003 20.928 72.35 21.143 72.715 21.143C72.9483 21.1412 73.173 21.0544 73.347 20.899C73.677 20.611 73.746 20.111 73.567 19.706L71.535 15.096V15.095ZM64.13 14.675V9.58201C64.13 9.34201 64.318 9.15101 64.548 9.15101H69.315C70.699 9.15101 71.65 10.131 71.65 11.439C71.65 12.746 70.871 13.69 69.28 14.041L64.637 15.097C64.5749 15.11 64.5107 15.1088 64.4491 15.0934C64.3876 15.0781 64.3303 15.0491 64.2816 15.0085C64.2328 14.9679 64.1939 14.9168 64.1676 14.8591C64.1414 14.8014 64.1285 14.7384 64.13 14.675ZM51.89 7.96701C51.68 7.51201 51.235 7.24001 50.698 7.24001C50.161 7.24001 49.715 7.51201 49.506 7.96501L44.044 19.707C43.973 19.852 43.934 20.032 43.934 20.195C43.934 20.752 44.356 21.171 44.919 21.171C45.1081 21.1766 45.2946 21.1253 45.4542 21.0237C45.6138 20.922 45.7391 20.7748 45.814 20.601L46.831 18.429C47.2874 18.5955 47.7567 18.7246 48.234 18.815C49.026 18.966 49.824 19.018 50.611 19.009C51.401 19.002 52.179 18.905 52.946 18.774C53.329 18.708 53.706 18.611 54.087 18.531L54.553 18.398L55.577 20.586C55.6511 20.7633 55.7769 20.9141 55.938 21.0188C56.099 21.1235 56.2879 21.1772 56.48 21.173C57.118 21.173 57.462 20.671 57.462 20.198C57.462 20.032 57.421 19.854 57.357 19.717L51.89 7.96701ZM52.647 17.007C51.961 17.124 51.267 17.212 50.581 17.217C49.894 17.223 49.211 17.181 48.551 17.053C48.2249 16.9919 47.9034 16.908 47.589 16.802L48.409 15.047H48.406L50.319 10.962C50.3517 10.8895 50.4046 10.828 50.4714 10.7849C50.5382 10.7417 50.616 10.7188 50.6955 10.7188C50.775 10.7188 50.8528 10.7417 50.9196 10.7849C50.9864 10.828 51.0393 10.8895 51.072 10.962L52.833 14.722L52.921 14.91L52.985 15.047L53.782 16.754L53.672 16.785C53.332 16.859 52.992 16.948 52.647 17.007ZM32.035 9.30701C32.247 8.24901 32.079 7.17701 31.567 6.28801C30.975 5.26501 30.029 4.57401 28.899 4.34201C28.6332 4.28731 28.3624 4.2605 28.091 4.26201C26.171 4.26201 24.555 5.64901 24.16 7.63301C23.9432 8.69892 23.5429 9.71908 22.977 10.648C22.9668 10.6653 22.9521 10.6794 22.9345 10.6889C22.9169 10.6984 22.897 10.703 22.877 10.702C22.8555 10.7012 22.8347 10.6943 22.8169 10.6821C22.7992 10.6699 22.7854 10.6528 22.777 10.633L19.012 2.46301C18.491 1.33401 17.563 0.496012 16.466 0.165012C14.59 -0.403988 12.544 0.541012 11.704 2.36201L7.807 10.811C7.80321 10.8193 7.79716 10.8263 7.78955 10.8312C7.78194 10.8362 7.77308 10.8389 7.764 10.839C7.736 10.839 7.731 10.823 7.727 10.811C7.109 9.23601 5.647 8.21801 3.998 8.21801C3.465 8.21801 2.944 8.32701 2.448 8.54001C1.456 8.96601 0.691999 9.78001 0.289999 10.832C-0.10751 11.8686 -0.0960731 13.0175 0.321997 14.046C1.059 15.864 2.292 17.619 3.888 19.12C3.927 19.156 3.938 19.21 3.915 19.258L2.657 21.99C1.707 24.053 2.506 26.546 4.437 27.55C4.99613 27.844 5.6183 27.9977 6.25 27.998C7.793 27.998 9.22 27.069 9.883 25.632L10.969 23.276C10.98 23.251 10.9999 23.2308 11.0247 23.2194C11.0496 23.208 11.0778 23.2061 11.104 23.214C12.4128 23.5906 13.7672 23.7851 15.129 23.792C16.587 23.792 18.071 23.569 19.533 23.132C19.5592 23.1235 19.5876 23.125 19.6128 23.1363C19.6379 23.1476 19.6579 23.1678 19.669 23.193L20.743 25.526C21.433 27.02 22.867 27.99 24.403 28H24.426C25.0574 28.0011 25.6795 27.8476 26.238 27.553C28.168 26.548 28.966 24.048 28.01 21.978L26.653 19.044C26.6428 19.0211 26.64 18.9956 26.645 18.971C26.65 18.9464 26.6626 18.9241 26.681 18.907C29.423 16.29 31.324 12.881 32.035 9.30701ZM9.201 22.69L8.221 24.816C8.04865 25.1964 7.77116 25.5195 7.42124 25.7473C7.07131 25.9752 6.66355 26.0982 6.246 26.102C5.908 26.102 5.582 26.024 5.276 25.868C4.216 25.325 3.784 23.952 4.312 22.803L5.357 20.535C5.36654 20.5143 5.38173 20.4966 5.40082 20.484C5.41992 20.4715 5.44215 20.4645 5.465 20.464C5.483 20.464 5.506 20.469 5.527 20.485C6.6466 21.3046 7.85815 21.9906 9.137 22.529C9.177 22.545 9.197 22.579 9.203 22.597C9.20968 22.6117 9.21298 22.6276 9.21263 22.6437C9.21229 22.6598 9.20831 22.6757 9.201 22.69ZM18.766 21.345C18.7596 21.3597 18.75 21.3729 18.7379 21.3834C18.7258 21.394 18.7115 21.4017 18.696 21.406C17.506 21.731 16.305 21.896 15.125 21.896C9.66 21.896 3.885 18.079 1.975 13.208C1.525 12.058 2.065 10.743 3.181 10.277C3.442 10.167 3.718 10.111 3.998 10.111C4.894 10.111 5.688 10.663 6.023 11.52C7.27 14.703 11.44 17.393 15.125 17.393C15.68 17.393 16.25 17.338 16.819 17.229C16.872 17.219 16.925 17.243 16.946 17.293L18.766 21.24C18.773 21.2566 18.7765 21.2745 18.7765 21.2925C18.7765 21.3105 18.773 21.3284 18.766 21.345ZM14.298 15.162L15.031 13.571C15.0523 13.522 15.0876 13.4803 15.1324 13.4512C15.1772 13.422 15.2296 13.4067 15.283 13.407C15.3364 13.4074 15.3886 13.423 15.4335 13.4521C15.4783 13.4811 15.5139 13.5224 15.536 13.571L16.252 15.124C16.2712 15.1649 16.2805 15.2097 16.2793 15.2548C16.2781 15.3 16.2663 15.3442 16.245 15.384C16.2255 15.4232 16.1967 15.4571 16.1612 15.4827C16.1256 15.5083 16.0844 15.5249 16.041 15.531C15.5386 15.6074 15.0287 15.6208 14.523 15.571C14.4785 15.5661 14.4358 15.5504 14.3987 15.5253C14.3616 15.5002 14.3312 15.4665 14.31 15.427C14.2872 15.3869 14.2743 15.342 14.2722 15.296C14.2701 15.2499 14.2789 15.204 14.298 15.162ZM25.388 25.868C25.0884 26.0224 24.7561 26.1026 24.419 26.102C24.0019 26.0979 23.5947 25.9747 23.2453 25.7468C22.8959 25.519 22.6189 25.196 22.447 24.816L15.869 10.546C15.8235 10.442 15.7486 10.3535 15.6536 10.2914C15.5586 10.2293 15.4475 10.1962 15.334 10.1962C15.2205 10.1962 15.1094 10.2293 15.0144 10.2914C14.9194 10.3535 14.8445 10.442 14.799 10.546L12.759 14.972C12.7478 14.9974 12.7277 15.0179 12.7025 15.0297C12.6773 15.0415 12.6487 15.0437 12.622 15.036C11.261 14.553 9.984 13.741 9.026 12.754C9.01035 12.7366 9.00026 12.7149 8.99705 12.6918C8.99384 12.6686 8.99766 12.645 9.008 12.624L13.416 3.06201C13.564 2.74201 13.775 2.48401 14.025 2.31601C14.617 1.91601 15.29 1.79701 15.924 1.97901C16.2271 2.06816 16.5075 2.22159 16.7459 2.42884C16.9844 2.63609 17.1754 2.89229 17.306 3.18001L26.353 22.806C26.883 23.952 26.449 25.326 25.388 25.868ZM25.914 17.061C25.9004 17.075 25.8838 17.0855 25.8653 17.0918C25.8469 17.098 25.8273 17.0998 25.808 17.097C25.7898 17.0936 25.7727 17.0857 25.7584 17.074C25.7441 17.0623 25.7329 17.0472 25.726 17.03L23.797 12.844C23.7879 12.8242 23.7844 12.8022 23.7869 12.7806C23.7894 12.7589 23.7977 12.7383 23.811 12.721C24.901 11.278 25.648 9.63501 25.971 7.96601C26.176 6.91601 27.074 6.15401 28.109 6.15401H28.111C28.288 6.15401 28.467 6.17801 28.644 6.22301C29.788 6.51601 30.484 7.72901 30.228 8.98301C29.615 11.984 28.125 14.776 25.914 17.061Z" fill="#fff"/>
</svg>
