<svg width="115" height="28" viewBox="0 0 115 28" fill="none" xmlns="http://www.w3.org/2000/svg">
<path d="M0.110001 25.53C1.53 21.93 2.29 17.99 2.29 13.89C2.29 9.79 1.54 5.85 0.110001 2.25C0.0400006 2.07 0 1.86 0 1.65C0 0.8 0.66 0 1.6 0C2.2 0 2.77 0.369999 3 0.939999C4.56 4.95 5.43 9.31 5.43 13.89C5.43 18.45 4.56 22.83 3 26.84C2.77 27.41 2.2 27.78 1.6 27.78C0.66 27.78 0 26.98 0 26.13C0 25.92 0.0500006 25.72 0.110001 25.53Z" fill="#5B53FF"/>
<path d="M7.59001 22.62C8.23001 19.82 8.58001 16.89 8.58001 13.89C8.58001 10.89 8.24001 7.95001 7.59001 5.14001C7.57001 5.03001 7.54001 4.89001 7.54001 4.77001C7.54001 3.90001 8.23001 3.14001 9.14001 3.14001C9.83001 3.14001 10.45 3.62001 10.61 4.31001C11.34 7.38001 11.73 10.59 11.73 13.89C11.73 17.19 11.34 20.4 10.61 23.47C10.45 24.16 9.83001 24.64 9.14001 24.64C8.22001 24.64 7.54001 23.86 7.54001 22.99C7.54001 22.87 7.56001 22.74 7.59001 22.62Z" fill="#5B53FF"/>
<path d="M14.87 13.89C14.87 12.45 14.8 11.05 14.66 9.64999C14.57 8.68999 15.3 7.85999 16.24 7.85999C17.04 7.85999 17.71 8.45999 17.78 9.23999C17.94 10.78 18.01 12.31 18.01 13.89C18.01 15.45 17.94 17.01 17.78 18.54C17.71 19.32 17.05 19.92 16.24 19.92C15.3 19.92 14.57 19.07 14.66 18.13C14.8 16.73 14.87 15.31 14.87 13.89Z" fill="#5B53FF"/>
<path d="M24.32 13.89C24.32 14.28 24.16 14.69 23.86 14.99L22.94 15.91C22.73 16.12 22.46 16.21 22.21 16.21C21.68 16.21 21.16 15.8 21.16 15.16V12.64C21.16 12 21.69 11.59 22.21 11.59C22.46 11.59 22.74 11.68 22.94 11.89L23.86 12.78C24.16 13.06 24.32 13.48 24.32 13.89Z" fill="#5B53FF"/>
<path d="M34.58 11.12V21.13H36.96V11.12H41V8.98999H36.97V8.25999C36.97 7.13999 37.54 6.51999 38.6 6.51999H40.96V4.35999H38.6C36.01 4.35999 34.59 5.70999 34.59 8.25999V8.98999H32.57V11.12H34.58Z" fill="#fff"/>
<path d="M42.4 9.01001H44.16L44.53 11.53C45.22 9.81001 46.55 8.89001 48.66 8.89001H49.1V11.2H48.69C45.99 11.2 44.79 12.6 44.79 15.21V21.12H42.4V9.01001Z" fill="#fff"/>
<path d="M63.07 9.01002H64.93L65.16 10.94C65.99 9.54002 67.57 8.65002 69.29 8.65002C70.87 8.65002 72.04 9.48002 72.64 10.92C72.66 10.97 72.71 10.97 72.73 10.92C73.51 9.52002 75.07 8.65002 76.88 8.65002C79.08 8.65002 80.57 10.3 80.57 12.91V21.14H78.19V13.49C78.19 11.75 77.5 10.79 76.22 10.79C74.43 10.79 73.03 12.05 73.03 13.75V21.15H70.65V13.5C70.65 11.76 69.96 10.8 68.68 10.8C66.89 10.8 65.47 12.18 65.47 14.03V21.16H63.09V9.01002H63.07Z" fill="#fff"/>
<path d="M95.93 18.06C96.87 18.06 97.56 18.75 97.56 19.69C97.56 20.61 96.87 21.32 95.93 21.32C94.99 21.32 94.28 20.61 94.28 19.69C94.28 18.75 94.99 18.06 95.93 18.06Z" fill="#fff"/>
<path d="M97.49 9.01001H98.82C100.45 9.01001 101.3 9.95001 101.3 11.74V21.14H98.92V12.25C98.92 11.59 98.62 11.24 98.09 11.24H97.49V9.01001Z" fill="#fff"/>
<path d="M108.9 8.66003C105.42 8.66003 102.81 10.96 102.8 14.94C102.8 18.66 105.03 21.36 108.9 21.36C112.46 21.36 115 19 115 14.94C115 11.34 112.75 8.66003 108.9 8.66003ZM108.9 19.23C106.8 19.23 105.28 17.72 105.28 14.94C105.28 12.39 106.63 10.79 108.9 10.79C111.17 10.79 112.52 12.4 112.52 14.94C112.52 17.42 111.26 19.23 108.9 19.23Z" fill="#fff"/>
<path d="M99.62 4.26001C100.54 4.26001 101.22 4.95001 101.22 5.86001C101.22 6.75001 100.53 7.46001 99.62 7.46001C98.68 7.46001 97.99 6.75001 97.99 5.86001C98 4.95001 98.68 4.26001 99.62 4.26001Z" fill="#fff"/>
<path d="M61.19 18.98C60.71 18.98 60.46 18.7 60.46 18.2V13.34C60.46 10.41 58.56 8.64001 55.33 8.64001C52.3 8.64001 50.06 10.31 49.81 12.74H52.26C52.51 11.39 53.47 10.75 55.26 10.75C57.09 10.75 58.08 11.55 58.08 13.09C58.08 13.64 57.05 13.78 55.56 13.92C52.49 14.22 49.49 14.54 49.49 17.77C49.48 19.89 51.36 21.36 54.06 21.36C56.54 21.36 57.75 20.56 58.37 19.34C58.6 20.46 59.31 21.13 60.62 21.13H61.72V18.98H61.19ZM58.07 16.16C58.07 17.95 56.69 19.35 54.49 19.35C52.86 19.35 51.95 18.73 51.95 17.63C51.95 16 53.83 15.82 55.64 15.68C57.15 15.57 57.68 15.36 58.07 15.04V16.16Z" fill="#fff"/>
<path d="M84.77 15.48H93.87V14.69C93.87 11.02 91.53 8.64001 88.07 8.64001C84.7 8.64001 82.07 11.05 82.07 15.13C82.07 18.79 84.52 21.48 88.26 21.48C91.12 21.48 93.28 19.76 93.83 17.17H91.38C90.97 18.57 89.91 19.28 88.26 19.28C86.11 19.28 84.8 17.93 84.66 15.57C84.66 15.52 84.71 15.48 84.77 15.48ZM88.07 10.77C89.79 10.77 91.03 11.85 91.3 13.63H84.72C85.07 11.8 86.26 10.77 88.07 10.77Z" fill="#fff"/>
</svg>
