<svg width="580" height="151" viewBox="0 0 580 151" fill="none" xmlns="http://www.w3.org/2000/svg">
<path d="M569.318 112.892C564.267 112.892 560.315 111.521 557.494 108.77C554.674 106.02 553.263 102.198 553.263 97.3569V67.3474H544.2V56.1139H553.313L554.934 41.1091H565.647V56.1139H579.581V67.3674H565.597V95.7264C565.568 97.2769 566.146 98.7775 567.208 99.9077C567.75 100.485 568.411 100.938 569.144 101.237C569.878 101.535 570.668 101.672 571.459 101.638H579.531V112.892H569.318Z" fill="#fff"/>
<path d="M514.811 113.952C508.076 113.952 502.657 112.345 498.556 109.131C494.481 105.945 491.687 101.401 490.683 96.3266H504.078C504.664 98.2768 505.964 99.9341 507.719 100.968C509.87 102.21 512.329 102.817 514.811 102.719C521.953 102.719 525.544 100.718 525.544 96.8567C525.544 94.9295 524.421 93.459 522.173 92.4453C519.561 91.3252 516.829 90.5095 514.031 90.0146C510.85 89.4044 507.659 88.6141 504.418 87.6538C501.193 86.7013 498.331 84.7977 496.205 82.1921C493.971 79.5246 492.851 76.0168 492.844 71.6688C492.809 69.3843 493.301 67.1225 494.283 65.0595C495.265 62.9966 496.71 61.1881 498.506 59.775C502.294 56.614 507.545 55.0369 514.261 55.0435C520.976 55.0502 526.311 56.5507 530.266 59.545C534.199 62.5176 536.901 66.8327 537.858 71.6688H524.434C523.004 68.1177 519.632 66.3071 514.291 66.2971C508.559 66.2971 505.698 68.0877 505.698 71.6688C505.708 72.4898 505.937 73.2932 506.361 73.9964C506.784 74.6997 507.388 75.2774 508.109 75.6701C509.946 76.7787 511.987 77.5067 514.111 77.8107C516.768 78.2627 519.397 78.8706 521.983 79.6313C524.666 80.3986 527.296 81.341 529.856 82.4522C532.353 83.5808 534.464 85.4172 535.928 87.7339C537.626 90.4549 538.472 93.6213 538.358 96.8267C538.412 99.2133 537.895 101.578 536.852 103.725C535.808 105.872 534.267 107.739 532.356 109.171C528.375 112.352 522.527 113.945 514.811 113.952Z" fill="#fff"/>
<path d="M474.868 60.7253C470.74 57.0108 464.959 55.1536 457.523 55.1536C451.594 55.1536 446.623 56.7507 442.608 59.9451C438.645 63.06 435.847 67.419 434.666 72.319H447.33C447.974 70.4632 449.202 68.8662 450.831 67.7675C452.808 66.4421 455.155 65.7799 457.533 65.877C461.014 65.877 463.755 66.7772 465.766 68.5578C466.786 69.5071 467.584 70.67 468.103 71.9634C468.621 73.2569 468.848 74.649 468.766 76.0402V78.751H454.272C447.603 78.751 442.365 80.4349 438.557 83.8026C436.736 85.3566 435.283 87.2946 434.3 89.4773C433.318 91.6601 432.831 94.0334 432.875 96.4266C432.807 98.7923 433.243 101.145 434.156 103.329C435.068 105.513 436.436 107.477 438.167 109.091C441.688 112.425 446.356 114.092 452.171 114.092C455.774 114.174 459.338 113.345 462.534 111.681C465.105 110.424 467.278 108.482 468.816 106.07H469.337L470.387 113.072H481.1V76.0602C481.08 69.5648 479.003 64.4532 474.868 60.7253ZM468.776 91.0549C468.851 92.7389 468.553 94.4187 467.905 95.9747C467.257 97.5308 466.273 98.9248 465.025 100.058C462.538 102.265 459.143 103.372 454.842 103.379C451.711 103.379 449.31 102.659 447.66 101.258C446.858 100.607 446.215 99.7803 445.782 98.8423C445.348 97.9042 445.135 96.8795 445.159 95.8464C445.159 90.8448 448.43 88.364 454.842 88.364H468.776V91.0549Z" fill="#fff"/>
<path d="M400.725 114.072C392.596 114.072 386.1 111.465 381.239 106.25C376.377 101.035 373.943 93.8191 373.937 84.6029C373.937 75.4066 376.361 68.1977 381.209 62.9761C386.057 57.7544 392.562 55.1469 400.725 55.1536C407.354 55.1536 412.849 56.9208 417.21 60.4553C421.489 63.8695 424.537 68.5861 425.893 73.8895H413.599C412.396 71.5398 410.543 69.5853 408.26 68.2587C405.978 66.9322 403.362 66.2895 400.725 66.4071C398.723 66.3353 396.732 66.7267 394.907 67.5509C393.082 68.3751 391.471 69.6098 390.202 71.1586C387.534 74.3396 386.2 78.8211 386.2 84.6029C386.2 90.3847 387.534 94.8661 390.202 98.0471C391.469 99.5997 393.079 100.838 394.904 101.666C396.73 102.494 398.722 102.888 400.725 102.819C403.363 102.932 405.977 102.286 408.259 100.958C410.541 99.6299 412.394 97.6755 413.599 95.3263H425.883C424.531 100.634 421.482 105.355 417.2 108.771C412.852 112.305 407.36 114.072 400.725 114.072Z" fill="#fff"/>
<path d="M328.252 134.469L336.825 113.022L313.808 56.2439H327.202L342.737 96.4266H343.257L358.812 56.2439H372.206L341.116 134.469H328.252Z" fill="#fff"/>
<path d="M302.224 60.7253C298.096 57.0108 292.314 55.1536 284.878 55.1536C278.947 55.1536 273.965 56.7441 269.964 59.9451C265.999 63.0579 263.2 67.4178 262.021 72.319H274.685C275.324 70.4604 276.554 68.8619 278.186 67.7675C280.162 66.4395 282.51 65.7771 284.888 65.877C288.369 65.877 291.114 66.7706 293.121 68.5578C294.144 69.5053 294.943 70.668 295.462 71.9619C295.981 73.2557 296.206 74.6487 296.122 76.0402V78.751H281.617C274.949 78.751 269.71 80.4349 265.902 83.8026C264.08 85.3552 262.625 87.293 261.643 89.476C260.66 91.6591 260.174 94.0331 260.221 96.4266C260.149 98.7918 260.583 101.145 261.494 103.329C262.405 105.513 263.771 107.477 265.502 109.091C269.023 112.425 273.692 114.092 279.507 114.092C283.109 114.174 286.674 113.345 289.87 111.681C292.44 110.424 294.614 108.482 296.152 106.07H296.672L297.722 113.072H308.426V76.0602C308.426 69.5648 306.359 64.4532 302.224 60.7253ZM296.122 91.0549C296.198 92.7391 295.901 94.4193 295.252 95.9756C294.604 97.5318 293.62 98.9257 292.371 100.058C289.89 102.272 286.496 103.379 282.188 103.379C279.057 103.379 276.646 102.669 275.005 101.258C274.204 100.606 273.563 99.7791 273.129 98.8413C272.696 97.9035 272.482 96.8793 272.504 95.8464C272.538 90.8649 275.766 88.3707 282.188 88.364H296.122V91.0549Z" fill="#fff"/>
<path d="M232.742 84.6029C234.651 84.0924 236.497 83.3676 238.244 82.4422C240.282 81.3255 242.187 79.9834 243.925 78.4409C246.026 76.5069 247.646 74.1092 248.657 71.4387C249.874 68.302 250.475 64.9599 250.428 61.5956C250.428 54.4534 248.147 48.7316 243.585 44.4302C239.024 40.1288 233.089 37.9848 225.78 37.9982H194.7V113.022H208.094V85.1831H218.257L237.563 113.022H252.568L232.742 84.6029ZM208.094 73.3193V49.8119H224.689C228.491 49.8119 231.492 50.8422 233.692 52.9029C235.893 54.9635 237 57.8511 237.013 61.5656C237.013 65.2801 235.9 68.1744 233.672 70.2483C231.223 72.3811 228.043 73.4818 224.799 73.3193H208.094Z" fill="#fff"/>
<path fill-rule="evenodd" clip-rule="evenodd" d="M150.506 75.5L142.683 83.3225L113.004 53.6431V37.9882L150.506 75.5ZM75.4822 0.476318L67.6598 8.29879L97.3392 37.9782H112.994L75.4822 0.476318ZM58.6869 17.3016L50.8545 25.1341L63.7385 38.0182H79.3935L58.6869 17.3016ZM112.994 71.6088V87.2637L125.878 100.148L133.711 92.3153L112.994 71.6088ZM108.513 100.718L112.994 96.2366H54.7757V37.9882L50.2943 42.4696L41.8916 34.0669L34.0392 41.9094L42.4418 50.3121L37.9604 54.7935V63.7963L25.0763 50.9122L17.2439 58.7447L37.9604 79.4613V97.3269L8.29103 67.6775L0.458557 75.51L75.4822 150.534L83.3147 142.701L53.6353 113.022H71.571L92.2876 133.738L100.12 125.906L87.236 113.022H96.2388L100.72 108.54L109.123 116.943L116.955 109.111L108.513 100.718Z" fill="#FF6363"/>
</svg>
